<mxfile host="Electron" agent="Mozilla/5.0 (Windows NT 10.0; Win64; x64) AppleWebKit/537.36 (KHTML, like Gecko) draw.io/26.1.1 Chrome/132.0.6834.210 Electron/34.3.3 Safari/537.36" version="26.1.1">
  <diagram name="PÃ¡gina-1" id="pwciqv0GK_1jqo8GQkf6">
    <mxGraphModel dx="792" dy="820" grid="1" gridSize="10" guides="1" tooltips="1" connect="1" arrows="1" fold="1" page="1" pageScale="1" pageWidth="827" pageHeight="1169" math="0" shadow="0">
      <root>
        <mxCell id="0" />
        <mxCell id="1" parent="0" />
        <mxCell id="bWpkbeTwa-cKXVXdCSfd-1" value="" style="shape=image;verticalLabelPosition=bottom;labelBackgroundColor=default;verticalAlign=top;aspect=fixed;imageAspect=0;image=data:image/png,iVBORw0KGgoAAAANSUhEUgAAA6oAAAHTCAYAAAAuzuU+AAAAAXNSR0IArs4c6QAAAARnQU1BAACxjwv8YQUAAAAJcEhZcwAADsMAAA7DAcdvqGQAAP+lSURBVHhe7P1/dFPXnej9vzuwKk99Bz1DE5mk5KRuRg5JUWhubJJ5kMdMDe5cBM2DbGYycqap8CVU7pAITxY16b0YZ4bKyWWEWybS9IdNm9RuUozzUGw6YNwLI7GagPtNg3KTYJVSKx5qq5NMxJR7rQ59/P3j6OexdCyDCab5vNbSStA+P/ePzz77nK3jD5WUlEySYd68eXz4wx9m/vz5/N7v/V5mkhBCCCGEEEIIcVX+v//v/+Py5cv85je/4be//a02GYAPZQ5Uf//3f58Pf/jD2UsIIYQQQgghhBDXwG9+8xv+z//5P9qvST0yLS4ulkGqEEIIIYQQQoj3zYc//GGKi4u1X6sD1d///d9n/vz52jQhhBBCCCGEEOKamj9/Pr//+7+f9d3vJX+TKoQQQgghhBBCXA8f/vCHmTdvXurfvyeDVCGEEEIIIYQQ11vm2PT3ZMqvEEIIIYQQQojrLXNs+nvyJ2iEEEIIIYQQQlxvmWNTGaUKIYQQQgghhJhTZKAqhBBCCCGEEGJO+VBZWdmk9st8qhr34v6LB7hjgQEu/zvn/qePL2/r4o2spVx856SLez/y77z6zRU84gPYwUuv1nFH1nJJ5+i5t4fFP/oSD/yhJunfXubpTz9KFwCLqd+5i/o/u5fFBiA+yssH/TzlOcRoaoVplvmrbzDY9AA3JxeP/4pzwy/T88yX6Xod2PkSZx68g3MH72H9zuRCD7D70DeoWQyjA4+yZtvLyQRxzRVYb0jUk0T5JcUvjnIudAj/X/s5kfzyT13s/euHeeATf4CBOP/+8xP4Wp5Qy19Lu71/G+XcG0fp+h/tHBoBqOcb09Zb1Y4DZ6j7RPJfcX41eo43jnXx9Fcz6y952o+q4G3M5ByFmMs0bTDp3MF7WP/GXga3V7Fg5BBb/p8vo0bmKnYd2s26xb/i6LY1XPxCZptJrU3Pvet5Krnt0aM8uu6JxPoJjd/h5KZ7+YNEW75D0/b+fewc/79Dfrb4TqTjQDIOZW4Hpu+XkDYrhBBCZIrFYjCTJ6pVXznM3sdruPsPf8Po6Cijv/kD7n5wBy8c2sUDmQs+XsW9NxkwfOQm7q1yJ778lbrO6CijF8HwEQPxXyX+PTrKrzBg+AMDBkOcXyWXGx1ldOxXXARgMRufe4kdf/kAd8xTt/WreXdQ9fndvPTcRhYXusw8Aws+YsAQTxzP/17A3ffXsePr36AO4MMGDB8xYMh8EfKKeu4tU7+/o7w++1zFNVZgvfkDAwbS5cfFRPr8xdy72s3e//dLavn/6S4Of9VNzdI/4Ddjo4yO/YY/WLqOHd2H2fWn2n1P3d7Fjyzm3tUudnd/h423A9PW2zTDRwwYPgL/PjrK6OhFFtx+LzWNu3mxM1l/E3K2H1VB25jpOQoxl2naYOoTBb7/NF2hOAvuWseXtqst4IG//RLryhYQf7WHJwa0bSYzdmTE+7I/ZmNt5k4Xs6PmAW76SDq2ZG/nV/Cxe6l5fC8vbV+cjgPJOJSlgH6JjXzH46bmrg9z8c2XefnNi3x46bp0vySEEEJ8QBU2UL19B+7/5w4M//YyT69bwZp1a1izYg3+n8YxlNXg+nx60S/96b0YGOWNYTBYqvgSAH62rFujrndyFLjIG92Jf6/bgj+58qU36Eout24Naxxf5hBA7Q4a7l9A/Oc9PFpRzZp1a6iueJSj/wIL7q/DdXv+ZQ6NwIL7G/jSg+ljvDjcpW7/0xU8/cpFuOle1v1VOj3Tuof/M4u5yBtv/it87D+zMWM74lorsN5ojJ5MLLNCrSOGu6pwsZgdj9dxh+EiL/+PNaz4L2tY819WsOZ/vMxFwx2s+2u1puaS3F71A/fw6IFzxG96gIb/lnEJma/eTjHK8XVrWLOumop7HqXn53FuWtHAjoyL5NztJ5PeNq78HIWYy1JtOvHZ4gMYpfO/d/Hq/zZwt30XG5e6ca+9A8PFl/G3dmaunWgz+WLHTTxQ60r/c4Wbqrsy05PS21nhOsooBu7+vzPWy6WQfunzVdz9hzA6sIVqx6M86qjm6QOvcu5dA3ev1m5QCCGE+OAobKDquJe758HoP3+ZzpHkl6O0/+0Wntj2FJ1Dye++xANlwM9f5suvvAHz7uaB/5b1vOiKrFv1SW7iIq8e+HJ6Cicn2PLpO7nzzjV8eST/Mk/0v0qcm7j709M8C03/bdkM61h3z01w8Q0OPf+/+Fdu4pNr5R73jeNlRlOPNuu5twwYOcGXv5WeKDv6LT8v/wsYPnEv2c8vczvxZA+vXoSb7q5hnTZxRk7w5Rdf5SI38clVyS3NtP1otzE75yjEDWOknSe+/wbxBQ/g2reRez8S543ezH5qOhcZHYlj+FQNO25Xv3ngz+9lMaOM/ot22QwnR7n4W2Cav+5WUL/0bxf5DbD4/97B7s01PHA79Dz5EGvWPcJTA1mbE0IIIT5QChuo/oFB7dCHs39Nx+snOHTwECcSv6NZ/N8e4O55cO5VP288/ypv/BbuLtdMbdSz4AG+dPYsZxOf089tBODm4g8DF/lVstNu3MvhQ4cTnxfY9WCOZZJiceLAgj+8O/XVgrJ6dd0fnsR9/wL4tzc48e2stVS16/jkTXDxzRN0HjjK//pXdYAiQ9W5zVC8jnUPrsP1ty9Rdxcwdo6XWYBhHlwce0Pzm9CXuRgHPrIg/dtlXZ2M/qs6bTC1fJ56O61vq1MQP1ysbumK2k/WNmbrHIWYW+6oTbevs2cPsysjbdTzNCf+BRYsMMC/nOBpj6af4g7qMtrn2R9mrg2j//wy/zrvbqoeewCoY2P5YnjzBK/GsxYDDCx4cB3rHnSx60Add8+Dfz2n/86Cgvqlg1t48lsvM2q4g3VNe/nO0bOcOfESu/9St+ULIYQQv/MKG6j+FmABN095KUWmxWwsvxu4SNzgZvcXF8BF4K4H1Km5hbj4Kp3bnuCJxOfp76uvaYpfRt2/9jd2CxZzR9kdLP5DnWUSd7x/c+lX6e8W3MzixYu54xM3Yfi3V/Fvf4TMiWJJdX/2SW4izsXLd7P7mQcwXIqr04QzpjqLuWfxn+1m9zO7cf/53Sz4tzfo2rklNRV3wc3aF7MsxjAP+G18yu9Kc1vHzQs0X+Wpt9N68GaMqX9cYfvJ2obq6s9RiLll9J/S7euJbZ0c/VRGYu1G/vPHEv//sf+s+b0pwChHM9rnE986yr1ZyZ38eAQWP7CRusY6HrgpzqtHn2LKOJXF1Dyzm93PuKlbuoCLr3fx5F/nnuSfVGi/dOJ/PEL1PdU88ng7Xf/8Bv/+h3ezbvs32LUiezUhhBDig6Swgeo/qU9o7rg3+8VJVX9/mDOvnuQ7m4HbXTxwF/BbA3d8uoaa1TXc8RGAO7h3c6F3huP86uAhDiU+PX3q3equoXPEWcDdn048qfJtYc26NXQO/zvwG+L/ll7mj1ZkPu9czMY/uZsFxHk7lL6guDjUzj33qr+x5Q/v4N6cA4GNrPvUTfBbuPle9XzuvRnIPA4xJ507cCd33pn4PLCep/4nwCHeGAFuvzs1xQ+AP3Vz72Jg9FzG1Dwdiafs8fDLGTc3ctfb6SRvhJx7ufOK20/WNmbrHIWYY+KX0u3r0MEeTvw0mVLF3i9WcdNvRzn01RP8KzdR9cW9VGWvzcWM9nnowAlezUp/mfZ/fgNueoAvfe5eDBdf5WjG27bTztGTjCt33klF7VPTtqdC+qWand9JzAwa5eV/8vPUpvX8xT+NgmExdyzLWE0IIYT4gClsoHqynUM/jcMn6th76Bvs+m872PXNw+xeeweG+M848XVYvPle7gDO/b9ruOfee9TPui7e+C3cUe4u7G2582/mgWfUp2G7n9nN7p0b1fV8fnVq1/1uTnbvZcd/28He7kF2/MlNxIeP03lQXebQz+Pc9Cc7GEwt8yLu+xcQ//kh/FMuPEZp/8cTjLKABz6nvbBJvOBiQXJQmzife5/ixL/CAksN07xCQ8w5L9P+/Ze5OO9u6nsO842/3cGOv/0Gh59Zx+J5F3n5++3Zf54ig/GORH385kucbKnipvg5Dn0z43Us+ertFEbuSCzzjQMn2fHpm1J1s/D2k38bV3OOQsxlqTaY+LgTT02rvrqDmo/B6MBTPOF7lI6TF+FjNex4JjOip9uM+nFP+fnG6N8d5dX/bWDBH8K//vRQzhk209LGgaa6gvqlo1EDi8vuZd0Xv4H7r9axbvNuvvGni9W3nr+m3YkQQgjxwVHYQJVR2v9iC52vjGK4o4q6v6qn7k/uwPAvL9O5/RE6eQB3+R3AOV79esbvg0Y6eXUYuP1e6rRTmHK9hOIjd1D1oPr7wnUPrmOdrQr1l6Un2OJ8ikPDcW66r4b6v6qn5r7FxIcP8fRfJ/9+3gm+/IWnOTQcZ3FqmZvUZb6Q+SKLDP9zC12vXISPVeFO/HmDJFfNvSzgIm/8KPOSpYejb/wrfORuqhozvhbvn1z1pkCj33qEJ771MqPz76Dqz+up//Mq7pg/ysvfeoJHMl4+pHXTpxL1ccUdfPhfX6bzyUf58v/MWCBvvdW6iXsTy1SZP8yvXunky1/4Midm1H7ybUN1pecoxFyWaoOJT819wJ/uZsfqxfBvL9P1uNoCOlv9vHwRFv/ZlzL+HFO6zaifmuypvwD46Rn6V2CUH3+7R5tYGG0cWH1vYf2S7wmePniO+OIqXP9tN7ub1nFH8UXeeP4pnjip3YkQQgjxwfGhsrKySe2X+hbzwJ/dDW8e5eWC36w4m+6m6sGb+dXBE+T/JWAhy4gPssX313A3b3D0ld/dwdsH4RyFuHFM3y/d/afrWPy/X5U2K4QQ4gMtFovBlQ1UhRBCCCGEEEKI2ZccqBY49VcIIYQQQgghhHh/yEBVCCGEEEIIIcScIgNVIYQQQgghhBBzigxUhRBCCCGEEELMKTJQFUIIIYQQQggxp8hAVQghhBBCCCHEnCIDVSGEEEIIIYQQc4oMVIUQQgghhBBCzCkyUBVCCCGEEEIIMad8qKysbDIWi2m/F+KaMhqNSL0T4oNLYoAQQggh9MgTVSGEEEIIIYQQc4oMVIUQQgghhBBCzCkyUBVCCCGEEEIIMafIQFUIIYQQQgghxJwiA1UhhBBCCCGEEHOKDFSFEEIIIYQQQswpMlAVQgghhBBCCDGnyEBViBtUdZMX3y4X5dqED5pSK7YN1Vi0388ZVrzHRxjpb0bRJl1zFqo32LCWar+fZaUues6OcWpvtTblhmBt9ODb7camTZhzFJw7fHi32bUJ4gPMUmOnepn22/fBnI+9s0XanRDXS2ED1YYuTp0bYSTxOftqgIEDXpxXGhjbBhg5d4quBm3CFdIcX/Jz6jmndkkNBes6O/Z11iu/gFxWjX3D+9VJOOk6PcLIEY824XeW87lTGWV6ljPBPnwNV9st2ul4dYyxVzuYrtux1Nixrbji2lEQ9RxP0fGQNgWsewOMnBthoE2TUNpC8+O1mC/3M6RJSmno4tS5ATwAOwYYGRthYId2odmXXWbJT+I42gbS/69LbZvTt6tqvM934f07Hz0HXIW14/cxLwB4yMWqJeMce6aNCOA5os2bEUZOd+GcYV3I3s5ZTh3pomW9Jgc2NLNnbzP26cqloYtTOWKy87lTmmNL7y+rLZ730/6jCMqarbizN3F1Cjgue+cZxsbO0LEhe5kpllXnifVumv/GgWV+iH5tUkrhMeOaesjD1ketlER6tSlpbQMzz5sblPJkH2dHxzh7vAtf/xlGjrVoF5l1V9UnFBp78tT7qVx0nRlj4DkfXc96c9Tta0mNvb7dnYXHXh1zq66q11qpfnezl+ZHyyn6qU67uwY8R9LXezPpGwCocdNx5Axnk/3DQd+VX7MLcR0VNlCdb8BYbMAQHyfydoQoJiwrHHh+EMBbo124AEVFGIqNGOZrE66Q5viSn2g0pl1Sw4Z7t+/q7qQ7d+Lb62PndGPiWVGEYYEBQ7FBm/A7q6jYiIEIwcP99B8OMjzPjH1XDz2btUvORC/dz3fT/Xw303U7zh0+vE1XXDsKUlRsxFCssOovtZf4DlxVZgzFBoqKslPK/7IMTvhpaIlkJ2Sab8BYXIQB4PluOvd30v28dqHZl11myc8gIZJtP3FMutS2OV27Kn9yI5bxbhr/rJ3gf7LR0ljA8+X3MS8A3H9pxRQN039C/beh2IDhUigjb/rpHwwSnmFdyN7OELFbrLjau/BWpdey1pgxvT1M7/lpymW+AWOOmFxUbMSwwEDRlHKd2haDL4SIFFtYtS17G1elgOPqfaGT7u920r0/e5kpnDtzx/rHLBh+2s1O96A2JUPhMeNacjxgJNLTRv0L2pQMRWo/MaO8uUHZSyH4ldVsPwHm+SE6n2nVLjLrrqpPKDT25Kn3U2yuptwUZdC9iEXWJnR6g1ln2+XCMt7NxpVtBP+TjeZCYq+OuVVXE20oEWudS42EvrOdxqPa5a4tQ3H6em8mfQM1XgLfbMb28RhDh/vp/1EIltjxfK8H17WeXSPELCtsoJoQe3MflSsrqbz3TpY/FSRmMOPY5kndSVPWN9NxMEDgeIC+zmbsqQahYG/tYuB4gIHuFuzz0ttMpW/roO94gMDxPjq22TPuzllw7u5h4HiAwJEevDpP01LHl/isfSJxSVFqp7mzj8DxAIGDHTQnnjq4O51YioFiC87jHbgBd2eAwEEv7tYuBo534MaO92CAQGc6OCSXsW/w0lelbkupCtC32w4bvPQdD9DRlFqajuOJtNS2WnDu7VO3AbDMiffAAIHjOZ5UL3PiO6jmi69h6uW9pcFLz5EAgeMD9Ox2Zk3B0Uu7oVweJ7ilkcYtDdT9cTvBmBFLjUtNyyjbKXmXUXcGuluobupI5bllaQUVS5M5kl3HPI8k60eAVbeA8S5naj13Z4BApwd3Z+7yy6732jbhJu/EyMtguM+GJ7MTaXJgNWX8O8HS4KW5SqFIsdKS1VYy2tFBH87MdlZuocJSgSV5LaGXb7NyPskyS37a6NYuQ7592fEeVNumUpVse2rb6WtvwXNgINUeh/qPEaKcnfsclPxLkP4fJp4vb/DSd7wDd407cbwZT/9mkhc6aYXlhZ2KUgPxt0PZA5yLwxl500hjs59gMm0GdSG9nXpWP3iAsMGMtS4VkbHfpRCLDGVsu8ByyUevLZ4YIhIzYL5vmrsLs22phYpySyq+ZcW9NqfaPpo6CFQpiVjfhzfx1MbS4KXHVkbRRy04MttSUweB4x14mjroSyyfHTMy96PtszLaoU6f5e4M0LfbqfYFxwfoarWjpNqDduaIuk3Hp4wY77JrtqmJcxkp2rzJ3d5U+c8nn0Sb3O1S4+HxAH17M/qZHHl4Ze0pd3wGaN9/jHi1l61VCvx6nMh4Kkn3XLNV496b4xpjg1c97h0eeo6ofXquPgGdvJvSX2hjT40bX76+fzobvPR93oIRI5YvJK4xcuW5bn3M30cmt5W68knmR6Lt9H+/Pyv2HkvG3sQ2HI+o+RbQzvTIVwc0dVV5pIWunNeTGnnLWcG5oyvndeWUcsmqf334HklvHuxYlCKKDMbEv/PUF9DP66sp66SC+gaFlm21mCeCtP5ZJfVbGmncVMfyLb1EFlhxbrNmLizEnDejgWqmiK+J/p8BS8pxAmzuYcDvZlUpgAHzGjd79nmxAtXtXezZXI3lFgNFZgeeNdldoOvFAXxNNszFwEILtiYffZ0OtcEd68PzcAUl89U0x64++lKDwEI46Drow11jVp/ilK7C7e/Bl/HUIZNSZsZ8n4OtDVbKblMooQRliRlzWcZlSJkZ8xKFkqw1ExYqmJeYSS+uULbEjLm0BJLbqnGx87MWlFtLMFZ5CfzAg2OpGgRLyh3qXS8Sv/v6ngf7/QrG+UasT7qoyLjDat0doG+Xg4pbgGIF68Me+o60oABK60A6DSOWhz30HdTeibvROejo9eFeYSQSGiau1OL5wQAtiSDuerEHz8MWjO8ME/1oLXs2W1PlppSly9T1Yg+eDWXEwyGGKcP5tFo/oj8LEbkE8XfDhN4ME02ut8bJ1vJEp1XawsAPPNSaIRKKYFzhxtefKL8qL13tbqzGCKHQOKbqZjrzlcEvhhiKW6hOdSIKnjXlGF4PZd0lV1oH6GutRZkYJnTBiPWxZFsB6+4u9jStQolHGL5cztYvWEg9iE3US2UhGflmYjw8TPwTGfk2W+dTiOS+lDjDyX31duAgSvjNMNE4xC6ECP0smmo75Q+5sCuJs9I71oUK5iVWXLs2olyKMLHQgn1Xh9ruC80LbZpSq84iqZpJXpRgMEDsnWFtQn4F1oXpObF8PE74Fb824RrpJ/ouGEtyD8yuGaUM85Iy9SJ0cw89u2opmxgmFIayhz30+K1wIUzoQgziUcKhEOFoMkbWUkYk1ZYGXkwMupUyzEtsOL9YQfLyNDNmTFm3yUffc2o7dHT24WuyYnpnmOEJhdpdfQR2T704VMrMWNZtxVUWI4JC9eY9DHyvmYp4NLu+Jrf5mBXjhZC6zdY+Bloz4ldGnPPUZFy1ZuZNrvZysAtHrvPJzIu8Em1yQzOuT8QYfgfM6z30HEz8FntKHurEa532lC8+U5V4apSIH0VLHXi+nZianetck7EhixXv8U6aP6sQD4eIGCw4dnWp008XKpiXlON41I6SuEecs0/QiclT+ovM2KN3/IWIhgmdjxInRiQUIvTzaI48n2Hd+a/pPjKr7qA59ryxO7HeUhvNf2OFd8YxfLwa125fYsCrE2817XjgaRflxgihcAyl2s2ef8wxrTtXOSfqtOvFATyPlqvnHVNY1bSHjsSU6ynlkqh/q0oniIQnKP8bF5bUtVbiuq20RL++TGn7ZdTuSuT11ZZ1UkF9g4OKUgPRV7rxn099CUfbaHI10vrdmfUiQlxvVzxQhQjh8RjML8IIKK/vo+1r7ex8sJLKlcvpfR0MSyqw48RVY8ZwaYj2P1tOZcVq9r2VuZ0W7CuM8Po+VldUUnnPRvrfBlONkxaqsdxqgOhp9vxVJZUVrbR9bSf+V7IHuknGFS2MjY0lPmcTU9LKUUzAz3ppWFlJ5ZY22r/SxoH3oH3jPkKXgEsh9q1soD21pQj9G2/n9jtWsz1zB1r7m1h7Qm30kRMZT3CncylI28rbub2inn3v9bPn79tp27KcypWVtJ2MwkIL1Q3AFx1YF0Lk0EbusVZyjyvIeHFyI3Y1X6ODbL+nksqK1bT/JI5hWS2eDVC9RMFAlNN/X0/lyuW0PtPOzm8NFXCXfA6aX4J1rw/f3g56fuzGaowROuqHVie2m8N0P1pJ/ZYG1lb4GbpsYdXjSqpeRQ83sry2gfrPrOXALzTzZxPMHzMSf+sA2zc10vCZeuq3tNIdge6vNDJ8ESbGg9lPvH7Zz8Z7Kql8sAlaa7FcDtH54Grqt9RT+WgvkYVWHO0KLFEwGaIEv7qdxi111DkaaHx2ME8ZDNP9ShRlhUvt7KuaqV4aZ+hwiHhqGTue9RYmXmlj+YMNNDoqafhhBNMKO65EfeC1TtZ+pp6G2uVsHYrnnmLb6sR2S5T+Lcup29TAWrufwfOgrAP7bJ2P0UpLqi2OMRb0apdQ9zURpK1iLQ1b6ql8tJ/ILVbsm4P4m4OMX4ZYuJHGr6Sf+cVf86txYmO7/rECUER4/z2sdtSz+sF+IihY1qU2pdLJiylpFXsYumzG9phrBnlhpsQIsXc1seGPHBmxaoyzBzIvoQupCwkLyvDt9eHb28XAwVrM8TDBnsSFyLYKyhjm9DMZy+uWixFra0ba2BgtK5KXuwn52iIAESZ+C0w3XXHGCjiupLtKMF4a5sCOBho3raZ+Y+LC7IU2GsOxxBPh7fhPqG0p2V4aHZU0HIpgrHLgTT2tiNLvuofKlWtpypqOOHXd1heGiBVbsNGCs8aUijsNDy5nzytgXufOMUgCw8XTNH2mnvqV7QRjBnizncpUfS1BuR9IbDPc00Clo5GGB5fjfw0s1W6UHHGu/+3ccW5Ke2npZuhdA5Y1U89nal7oCHezemU9DbWJ9e634c6Vh0t14rVOe8oXn4n00vZUExuT8eOHYbilDGuuc50SG5Ii9P79Tpo2LWftpkbqV/YTxkTZimR6nNA3VrN8ZSUN3lx9gl5MTsjoL7KigM7xF+SEn+0nxpkgxvCWRrb7kj1UZr2dnbqjlT92JxYojnF6SyV1jjqWfzVIrNiMtSFHTM2MtxmUl/00PdFIw8p6GjetxT8Uw/Bxy5Q2NKWcU3VaIdjRRNOW5Hn7OR0zoCzL2EJmP96wCnNyO5vqWP7EaeKpa61MevVF2/bX4j8agVvtV1/WKYX0DSaMxTn6HCIED/XSf1IGquLGchUDVTAZ0xcLkQsmKu6303xshJHRMZxLkykWShYCvxym7TxAhLZwRkPZbEGZD9ELpxN3hAYZisRgvoKlYR/+o2HiJiueH48xcraZ2qUKhgu5G1rsJ/6MKW2tdL8F0E73iSgscTIwNsaI34nVbCT6mnbtDJcihK7lbxF+FUnf6XoNLA/Y2Lh3hJGRMbyfTtwNnw+uUhMQIzKU+O3U0SEiqZ/dWtUBeHQ4MXUvma8mlPthX0c/4bgJ69OnGBs5S/NnLSjzIzN8IjNHFJuxrrFh+6z69tIhbx11Xwd7aQnMN1PbmXzBi4vyYjDdZoMNZZTMjzH8SvJ3ZxFa38x99r2DQ0x80sXA6AhnX/WxcamBSOadSK1LMZJbtSom+GWI1uTyJ0JEYolj+PogwbeN2PxqGfRss2Eaz/9UrPvrQSImK44mcGy2osRO0581vrNgWgjG8ubUS226ahQwlmBOpEXebE1tf3BomFy/0nYuUSA2zFCyjp9vo37lahq+NovnExvCnznF9Kl92iWw3GqC4gqaky/o6VyFgpGSu7RLpk38Opran+6xqkszkcyA8xNqR64ZROnlxZQ02hn+JRhLzDPIizDjMTDdopkOe74/a+pvkzf7NT7T14WEhRZsa2zYPluNZeE4ve56mhK/hXXeZ8bwixBZOa9bLjGGfJnTghvx/0RTg/K0RZUVowHSmT5bCjiupJeOMXTZguvIGCNnz+D7vCVPf6HGz8z2EvxphBgmlNR7F2LEcvYDU9ftdq+lsnY7/Q0WlKy4A+3nI4k2mkM8lr4Blun8BHEMGG8lEcvAvL4r1e5dywxws4ItR5zbN5w5/zVtSnt5oYm1K+vYfnjq+UzNi/xisXS/MnW9dB7qxmud9pQ3Pp+PYfqUA88bat859lA6h6ec65TYkBQhZqrAsessI+dGGBt1aMppgth4rvqTpBeTEzL6iyw6x391MurtLNUdreljd5xYIg7x28R/5+eIqRnxNlPkopHyNVvxnVXzJt+NqSnlnKrTEWLF5dge96kvExptwardREa5WG7VbOfoEMM5Q4xOfZnS9iO0fa6S1ZvaZ7Wsp+8bYkxcBkPxzIfBQsxFVz5QLW3BagbOq7+9avnHndjvNxJ+YSdbN66m9WSylauNhnlFqacN1syXAb0bJw4YirUTaWPEfgaD7kpu/0w927/WTfAXoHzahWe39r5awkSU3v29iU83vScAIvj/4h6W1zbQ1tHP6ZiR8g0efFPurBZKoWjKb2x1lOq/OMbeuQfXpxUmTu5h61/XsXp/ulMcv5S4R5ban5Gi1IV2Il+LS1L5qswzqB1EFDjaROXtq6n/cjvdJyNQWo2rzTvljuQNIRak7Y7buX2ln1DciKXKhgIMxSbg0hDdzVvZmvikLvr3jxPDiFFJl7PDpO2pVMGWtdy5eDX1LX4GI0asm9NThKYTficGC0qmTOGJXxoH/DRU3K7Wve8OEV9i15/uc6KNwdcNlK/pwn6fiehPesmetBkldgkig9tT57v1iUYat+xkXyLNuDBj6yXG1PSvTIPRGBQbyfWTx9k7nwmiqbbYS+/RkHYBorEY/PIY2zXlt3PqmDYn/WMtjF5eTE1LtP2J2AzyIkTsIhg/qok3v41lxKocd7mnrQsJvzjA7Xfczu1fGiQ6X6F8TfICyIr1E0Yib/ZqBs/65TIxnpG2v5foRFZy3raoslKyEKIXppb11Zr2uJJOtLL2zkWs/tx2/EcjGFe4ck8ZTNxAyGov8wDixN/NWCynHOsm/Siqxp1b018p8wxweSLnTaOCDMWYIM7Qd9PtZOvWRhqfaKc/Gecy9lduzP1ULF97yXk+BeeFhs56uvFapz3li89Kuw/PeoXISztpdCxn0Qvh1L7yneuU2FDqxbfLjhLpZae7nuWLu0lvpRB6MVmf3vHPmlmqO5B5HXLlsXtqTM3NtduD634IPruVjZ9dlHE9mS1fOYMLb5sL6/wg/uaNrF3cSjD3JiB5PlnbUZ9KTqFXX3K0/aRZLetp+4ZBwm+D8imn5r0JbnrOjBDwa2/WCDG3zWigWlRiVaeZfbOHU//kwmKIEXy+jSBgNBjgUoTT39/HULEde+I3l7CPobeA0mp8u5zYG7y0fDrjom1/P6EoGMsd+Brs2B/rwFluhPND7DvRTN8bI4w8W0u8v4m2fSFiQNH83EO/1PElPp5GK6zxETg3Qt82C0PfaqX9RxF1YGxQgHHicWC+ESXv3wJLLPNHNgZ2N9Pc2UV15nSomHrFZFzoVF9Znxh4m2sG8D7ZTMe+6hzTAdOMxQYgRuhQL70RM+4H0kv3Hg4RxUjFX3Xg3mCn+UUH5anguY/gW3Eorcb7pB17gwdftQKXQhx7BpoPnmXknI/aS/00Pb2P0LvAfP1B85x3vpW2oxEM9znwPASRniEixRasfwJD+3sZuryKrX+3E+d9EaCX0HmwrPfhSdQr94pc3aMavE89V064o43GZ08Tw0DRgvQSxo8qWEqVnOXoPxkmbipnY5MFULDvdVBhjBI63Et5e4CRswO4ft1P+5e3c+wXcTDkHjyqImw/PER8aTVWY4Tg17WvufETfCuO8oAdZbiX3v1hlId24vmiDQU/oV/EMd3voqVGfWGFryZ3jY70DBGZb8HWqb5oxtLUx9nEVPnZO58iTBvs2FOfqe3LfzJM/DYr9tvC9O7vJXybg51/txXbx9LLGG9xYinNlfP6x1oovbxIpe1VX8JhafJSXRondHLfDPIiSP+bUbhNM21tnjEjb3L9iazp6oLGC9vp/kkcpaY58VtjO2W3RQkf1T6vm75cCqJpiwA8ZEEpjjF8svD8n23uF88wcrqL8vA+2rbs4fS7YEi9BCVxY2+ZglKqtiXT/RtxL0u0F0cFxmiI/mnfOppcN6Ot/VidRq2c72boPFhqfOpLXZa58VYrxN8KTjtwyet8N0PnDViqVsFQL71DsOqLHnY+XE6EIMO/BMuaDpyJ/W28P1ecS7cX147qRHs5xdhYAO+0eaH/p6KM5Q5865Uc62XTi9f521P++Fy+0AjxcULf2kf/STOepekWVHBsKC/BSJzx1/zsOxTEvMuSM85rpfsEvZisT+/4ta74T+JcTd2JxIijULHXgXWFQy3bRFIhsTsXvXibyWQ0wsVhDnytl8GLTqyfmBpZ0a3Tiemvwwdo3z9I7BErZbk3AYD/tYhmO7aM36hm0KsvybafkZ99Z9WfdeiXtX77mmq6viFI2/NBYrfZ2HPQg7PGgqXGje+4C+vCcUIv5f8jXELMRTMaqBr+SP2bofZ1Vkp+G6b3y3XU+dT79e3fDxI1qFOuTu2tpejd5O2rCNuf2UcoZqS8wYOvdRWxn2be4++m/ol9hCbM2Hf58D1pQ7kUYl9LI0Ha2PPSMBMft+M9MsZAezXGt4N0Ppv+NWmm1PElP9UWONxG98lxjPe76fnxKXoaLEy81Yv/mSDQS+ePwsSLLTj37qE559/v6mX7PwaJXjZiediNu3ycUOa00G/3EoyCqcZDR6sT9m/Hf0L9nanjMTcVOacDpiWn6Nr8pxg7spOyeDSd+IL6VIBSG817fbhKhgml7gpGaN3UxuDbRVgf8+Hb5aTcEGHw7xtpB9qe7WX4shl7+wBjR7xUL4wQ/M6ejN/h3pgGN+0jGDNR/biP6hONbO8YxrTex6mxMU757Zh+0Y//awBBGlv8BC+ZcezYw54vKAwO5rqL2Y7/0DDGT3s4NTrG2HM2jD/rp/NZNbX35RDxP3IyEOhQXxqm5W2k7WgMy7YBxsZO4VtvYrhjK/UvwNBXuwleLMN5ZIyx0VO4Phlj6AW//gWr95j6u+nXB2lLTp3K0O5uY/BSBc1HxhgbG6C5fIKh77fTD7R+xU8wbsH13BhjP96D5YJ6Y2eKE41s7whhrPFwamyMgW0WYkfbafr6LJ6PsRxXxk0j396dU/Mvsa+KbQOMjY0xsK2CiVe6aT8M4GfwJ1FMVR4GDnpy3DHXP9aC6eVFMi1Rvwa2VRA72kZDS2RGedHbESRirMCW+RK4UlvWTbWcfzZlmrqQLULbMwcIz7Pg2O1C+bwFc2yYoHbAUEi5FCirLQKOz1owRYfoTU0Ffv+1d/QzvKAaz4/HGBvtwrYgTP++RNR76TShuBnnkVN0fD7Rli5a1Lb0Yx/2m4fZ90R9QW9BVtctS7Q1H/aFIfY91USEII0t+wgtTAxejzRTcWmQtk3pabUzp25z+ObENn/sw35LhP6OdqCXhqd7iZhs6jn3b2Ti9Tx7SrSXssauRHsxEurYSdP56fLCjeebPppzNkKIhWOUt59S17ttnMF/3J47D3Xidf72lD8+93YcUKd5B0YYGe2k+qMZj9kLjQ37/Rz4yQSWxlOMjIzRWVNCvof1Sdo+QS8m69E9/ixOWtp9eDZfyZ9/uYq6493DgbfAvMFLzwEPlvGMn5Loxm4devE2Q+v+fiILbXSNjjAWaMY8b8qv81V563QrvUcjGNd0MTYyxqknzXBJu3KGp1rxn4xjSWxnjyWSca2VQbe+JNr+gkR+HmnGcnGQ9if805S1fvvKaZq+IeKro9EXZOJTTjzPDTDwXDP2W6L0frnuff8TO0JcrQ+VlZVNxmK5WuSVULDWKESOBnN2ysoKK8aTQfXv9uWgrLBhITR1GlzijqJpvJdBvd+W6lKwrrPA6/0E9X5/eJ1YaqrhaOJvGk5hwboiRjBHvkDiD9mXRKdM45s27ToyGo3Mar3LVbbLHDg+EaT7JTXf7M+dwXf/MK131uWYRplnGwWzUL3OSPhQjrp/LcpAZ5vKimqUC4MFnIeCdZ2Z2KFc9e79PB8L1RtMRPfnOo5C6BxrwfTyQietwLxwdZ/Bbeyn3radxB9xuKaa+0dwGzpZtOra/11JAO5roe/5Wib+YW3q5uV0ZjcGZNPrS6ZYVo3tP4ULW1ZLZ11lhQ3zr/uvos+aSu+89PuQTDrtJdf5VHVw6sUygn9cSVNWTHHRc7YFy+ut3FkbzL/NKXRibd72lH8d/WsDnXPNlHe/M3CF29A/foBm+s45mXjmzozfg89cQXWnPcDYfxnP00fmcqWxWyempuQv86nylHOpFdtSCGm/z6fUSvWtEQZz5FGWaco6X9vPWdZ529fsyHcsQtwoZnmgKkRhruVFqsqK93gXjtIYoZNBIgYL1vvNcLKVO/+isC5YiBtTOa5dGzENt9H6nWkuuK6jax8DxKxoHWCkJkz9HzdqXvyUOVCVmHrNbOjiTJuRzjvWXvsZUTMeqIqrlrd9CSEA5n30ox/dGY/nmVYhxDVSVFTEta13EY58e5B3bi6j7JNlfGzeOC+/0Mbmrc/nng4rxO+MCwz9qJ8Tr83tmn7tY4CYFf92gfDxHzD4trY+FfHRxfO58NNBBk/P3RsiN7z/EyXy436eP5fxs6Br5f8q4RPvvcngsaHCnkCKq5e3fQkhkCeq4nqRpylCfLBJDBBCCCGEnhm9TEkIIYQQQgghhLjWZKAqhBBCCCGEEGJOkYGqEEIIIYQQQog5RQaqQgghhBBCCCHmFBmoCiGEEEIIIYSYU2SgKoQQQgghhBBiTvlQWVnZpPZLIYQQQgghhBDi/Zb883Xyd1TFdSF/Q1GIDzaJAUIIIYTQI1N/hRBCCCGEEELMKTJQFUIIIYQQQggxp8hAVQghhBBCCCHEnCIDVSGEEEIIIYQQc4oMVIUQQgghhBBCzCkyUBVCCCGEEEIIMafIQFUIIYQQQgghxJwiA1UhhNBR3eTFt8tFuTZBCPGBoDT2cHb0FL4abYq4oSyrxl5j0X4rxA3jg3g9IgNVMac5nzvFyLmRxOcsZ4J9+BquYUfTNsDIuQE8AChY19mpXqZdqDCeIyOces6p/Xr2tA0wcrqLme3Bw0AqP9Ofa3qc10B1UwcDr55Vj/+NU/TtdTJbtSKr3Kq87GyyYfqXfoa0C4prr6GLUznq60BbepFC6kL2MgF62pwommUyuV48y9jpDqqx0/HqGGOvdmDXLjTF1cWLK+U5MsLIETVizQbPkcy8PsupI120rE/mliZ+vHGKge4W7KWajeSzzInvyBnOJrd90IczI7+mj/cWnHsHOHNWXeZssAfPI3olmUFv33nq2cg5NW8jvnYG31awfdGt2ejvgIx+xN55hrGxM3Rs0C50A9qs3lzoSNxccHWfYexIF77nfHgLra8FceALjjA2coq+b3YROHeGrqvOPyddp7Pj3NWZSRzTUdpM3xtjjJ0N0LW3jzMjA7Rol9EqddFzdoxTe6u1Kbktq8a+zqobnwthqbFjW3G1W5ljSltofrwW8+WM65FSK7YN1VP6vLRZKvvrSAaqYk4rKjZiIELwcD/9h4MMzzNj39VDz2btkrOkqAhDcREGAGy4d/vYeYVjOEOxAWNxkfbr2VNUhGGBgZntwUBRsYHYW/30H05/Bl8Oaxecs6rbA3Rus6HEhug/3M+xN8G8wUPPAddVd25oyq28qoSJH7bT5ItoFxPvh/kGjMUQeUVTX3+qJhdSF6YsEzZQ8XkPA/nqS6kH+4oihvY3MEgv3c930/18N73a5aa4unhxpQzFBgzFasSaDYZiA4ZLoUReDxG7xYqrvQtvFVPjx09jlKxwsWefF6t2Q1o1XgI/8GD/eIyhw/30/ygMn7Lj+V4PrsTAYbp473qxB8/6Esb/+QAHXupn6LIF51PJY9Mx3b5/FmQwUbeCvyTjGPrpPxECgnS/HsGwdBXN2m3f6DL6kd4XOun+bifd+7UL3WgUPBusFL3WS8NRABfV95mI/qiJRYsqaTqvXf4qrLFgGu+m/rN+IiaF2OE9bL/q/EuUycw6dx0ziWM61pnhZCurm49BmYFQRxut2mW0zvtp/1EEZc1WCrrN49yJb7cbm/b7GXLu8OFtutqtzC3lf1kGJ/w0tGRcj9S48e7dqfPAYpbK/jqSgaqY+y6PE9zSSOOWBur+uJ1gzIilxqWmldpp7uwjcDzAwAFv1t35zLTAwQ7ciTur7s4Agc50yLTv7iNw0Ku522THe9CJpRiUqszlq3Hv7WHgeIDAkR68mXf7lznxHhggcHyArh1T7x5aGrz0HAkQON5HxzZ71kVyOm1A52mPBedudd8D3S1M2UNq/wH6Opt1n3LEwo00bkl/tvuCcH8LXccH6GhM7L20ma7jA3Q9mZhkUuPGl9h+Vl43dRA46MXZ4KMvcWz20vSxZj/hUrBv66AvV/7lKa8spS00rzczcbKV1SvradzSSEPtchr3RzCucNKcuGBVHmmh62Bgal40dRA43oGnqYO+4314N+iXm/XjCkXzDKjdgoJzR5d67FPKUOe8dNPS+RQ4MoOnQx8oE4yfyK6vbS8UWBdyLfPgcjYeimBc4cKT48mHdVs1FoY5/Yz6b8vSCiqWqmXm7gzQt9uBsy3dDtW6lS9e5Ct7O96DAfraW/AcGCDQ6ca5d4DAiy0ZAz43HccDdO0on6buZbv6OANcHE7kdT2rHzxA2GDGWpdeOhU/HKtZ+1IYwxIrDp14Awot22oxTwRp/bNK6rc00rhpLcs39RJZYMW1y5FeNG+8d1H9KSOxV/ys3tRE0xON1K/0038ejPdl7kurgH2f8LM9UbeC4xMZx9BI41e6AQi+GiFWbKa8Qbv9HArsl2aUlrcuTRObtfFOrx9ZaqGi3JKO1zp9irK+mY6Daj3zPeLAezBARxM56zbTxeSC+w+d/jdTVTPVS2F4qC2rbRrvciX6+hkeo167Ouyn/zWFrV/diMUYY/ztWHolvTLTyM7PKakFbyffcWbGMb3ldNO+1s2xiWq8j69CIcb4v0Qz1sp/jMEXQkSKLazalrF4Lk0dBKoUKLbgTNVX/XqYK6a5OwOsugWMdzmzru3ynpdWvv0V0p4S9Xnafc6o3qvbaa5SKFKstCS3s8FL3+ctGFFYdTzR/jZ41WPb4aHniPpd4WWfvwyvJxmoihuYg45eH+4VRiKhYeJKLZ4fDNBSCmDFu29PIi3EuGkVzf4+3IBSZsZclm6aJaVmzEsUSjI3TZTwm2GicYhdCBH6WVTd5vFOmj+rEA+HiBgsOHZ1JaZJuej5ngfHUiPj4SimOg+2m9NbU1oH6NtVSxkRQheMWB/zMfBiYrC9uYeeXbWUTQwTCkPZwx56/FOfT7he7MHzsAXjO8NEP1qLp8aUTixtYeAHHmqVOMOhCMYVbny9HWRc/k3vlX2ELpVh+4IHB+Da7aT6lhjB7w1BlZfAN5uxJbZftNSB59uJqSRKGealNrZ+wUzsAih/4mLPP/XQXB4nGjdi2eChI3E+js4+fI9ZMV4IMTyhUNvax0CrolteWTZUUGaIMvSCPzF4VA16m2jY0kp3RM3PgaddlBsjhMIxlGo3e/4xMUFJKcO8xIbzixUYYfpyy6grrhcH8Dxarh57TGFV0x46dqjLOTr78DVZMb0zzPBEGbW7kuelTVOo3dVHYLeaH64Xe/BsKCMeDjFMGc6ne/BN93RIqAqpC/mW2bScRYvuoT7Hk49qswK/jDCY+HdmHVDKzFjWNbPVCtF3DCifdrGn3Z0nXujV9xKUJWbKH3JhV9THJoMXwVxlw5Es/1YbtiUGJk4M6da9TLMRZ6Y4H2PiMlCU97KuAA4qSg1EX+nGn/k062gjva/FMS21FTAtrZ/w22Asd9L1pCNxEddOw8pKGrzaZTPNxr6BH0aJYaTkLm2Cll6/lEwzMR4eJv4JnTSlFs8PAqmnxXljzHSxOSveTdOPKGWYl5SpF67JPsUMkWSf0t+DC/UnEV3tblaVThAJT1D+Ny3YlppRm8nUuj1tTC6o/9DrfzU+bUYhQuRHTG2bb4aJzvAYp7SrJh99z6m9q17b1Iv9WabkpwvL/HRy/jiSTWkdoK+1FmViONX++zrV48yKY3rL5T1X/fzXPdcTQ0RiBsz35X/uB8CFMKELMYhHCYdChKPTXNvkiWnRn4WIXIL4u+FEeeufcxa9/RXQnvZstqauJ6fkZWY8Lrje6xx7NEzofJQ4MSKhEOELwEIF85JyHI/aURITbaaUfc7ynaYMryMZqIq5b34J1r0+fHs76PmxG6sxRuioH1qd2G4O0/1oJfVbGlhb4WfosoVVjyuABeUWA9GTe9i+pZE6Rz0N7j0M6t71zxTE3xxk/HLi6cFXuoEIvX+/k6ZNy1m7qZH6lf2EMVG2Ami1Y10YpX/Lcuo21bP6wX4iqY7Gjme9BV7rZO1n6ml0VNJwKIKxyqH+VuauEoyXhjmwo4HGTaup39hI63e1U01bsK8wEj3cyPLaBuo/s5b+t9PzguyttVgmgrRVrKVhSz2Vj/YTucWKPc8UafNDY4yNJT9nE1PrIrT9dSchYzXuzi6cK4oY6mhSL+4ivbQ91cTG5PZ/GIZbytJPf4pjnH5iNfWOStpfiWEgRPvKevU4z0OJYgVacNaYCPc0UOlQn2z5XwNLtRul0PK61YiBGOPaAcb5IP37+wmeB+VlP01PNNKwsp7GTWvxD8UwfNyiXmABEKXfdQ+VK9fStFSv3DIpBDuaaNqSPHY/p2MGlGWu1Hkly6bhwbX4j0bgVnuOtOXseQXM69y4APPHjMTfOsD2TY00fKae+uQAS2QwYm3NrK8BvBRWF6YsU+XCs9eHL/FpfkizLgolxUAsQlCblGC4eJpGax31tctpPxnDYLbizBkv9Oq7Kv6an9UVlVRubCfy5UGGLimUP6S2qubyMjg/xL4TenUv02zEmYR5Ruwb7Ng3uPEecWCZHyU8mM4RozmRh90D9K03E38rSLfudEoTxmKIvTt18llsYgIMhvSNwnzxngjbN22n97yR6se8DIyNcfbVgQLeWTCDfes5P0EcIGd8yKDXL7U6sd2SjDcNrLX7GTwPyrrEeplpFXsYumzG9tg0MWa62JwZ7/br9yOZ7K21WC6H6HxwNfVb6ql8tJfIQiuOdgV7wyrMybRNdSx/Iki8OHv9zLo9bUwuqP/Q6X81lIVGuBwjcoKpfXmzP9W2CzvGqe2q9YUhYsUWbDPqF7Jjf6ap+Xk6Iz+njyOJreBZb2HilTaWP9igtv8fRjCtsGv2p7ec3rnq5f9059pP9F0wlkzTVl9oozEcS8xo2I7/xDTXNnliWvdXGhm+CBPjwUR5651zNt39wbTt6cAvku1pal5mxWMKrfc6x37Cz/YT40wQYzg50wiAOKFvrGb5lJt4U48pXb7TleH1IwNVMfcVm7GusWH7rA1rKQx566j7OthLS2C+mdrO5IsvXJQXg+k2G+Bn8GQE4xofp0ZHOPv9ZmymKCHdi6npRIiZKnDsUl/KMjbqwJxIsZeWQGyYoaOJL87vU+8GAmBFMUHkzdbUU53gTyPEMKHUAC8dY+iyBdeRMUbOnsH3eQuGC5oLyA1llMyPMfxK8jlPhH3D46lky60mKK6gOfkCkM5VKDp3/yOHMqdSNtGeOu5W2n4QQVlTjfJ6N43PJI7jfAzTpxx43hhhZGSMsYeSZ54UJ3ZC8xUAESZ+CwajKXEOYF7flXpRiWuZAW5WsBVaXrEJwIBR56lj5KKR8jVb8Z1Vj7VlRfLeZ1KMWOJ89cstU4RYcTm2x33qy1hGW7AmN9tgQdGUTdvnKlm9qT1HGrSfj4CxBDPQOzjExCddDIyOcPZVHxuXGohoz/kDL8aQL7O+7mQfhdWFKcuYzFgsFiwWK7YNdmwPaJbHhmkhxGI5K4EqHssexM4j9+/Edeu7auLX0YwnvW0cez2O8ikHVpqxLjEQ+Wk3Qb26l2UW4kxSqS0xmG+m9uMxgr6t1KcugsC01IZtjQ3bn1gwXehlq7Mp78BepT6VNRQXcHc+T7wHtX02rryTRYtWU/+VfQzFlALeWTCDfeupMmIAJjJnduag1y85lyiaeNNG/crVNHyNqWm0M/xLMJaYc8SRjBgzbWxOx7vp+pFMVsUEvwzRmoxHJ0JEYup5WG7VpB0dYliTL5l1e/qYXED/odP/atluNcKlGDqtGAo+xqntqtu9lsra7fTrtc0pZZYd+zPp5mcBcURlwbQQjOXNqeW6apQc+9NbbppzzZf/056rWo7T3uTJQffapuCYpnfOmiX19gfTtqfWN5P7n5qXWfEYCqz3hR972gSx8Vz5MPWYUuU7bRlePzJQFXNfLEjbHbdz+0o/obgRS5UNBRiKTcClIbqbt7I18Wnc0kiTtx8A/8bl3P7HdTQ8083QJTP2fNOEClXqxbfLjhLpZae7nuWLu0m+gqj33RgUG0lPoirHmLojGmY8BsaFGRPM5gHEib8LnGhl7Z2LWP257fiPqr+dS02LSto/TgwjxlvTX5Ub05fH0VgMfnmM7Zq82LkvvXym+KVeevcnP4mnTwBUU1uuQDwO5nKciTt/SrsPz3qFyEs7aXQsZ9ELV/DypaEYE8QZ+m76GLdubaTxiXb6Cy2vH4WJoGB5WPML3aYezpwL4FsDrt0eXPdD8NmtbPzsIlpP5r+y1C+3TC68bS6s84P4mzeydnErweRmf6ROCcwsm5Qcaco8A1yeIAYEW9Zy5+LV1Lf4GYwYsW7OPaXzg25iPLO+DhKisLowZZn9TaxdWUnl94aZIMZ4KHtV8BP5FRg/Ogtd8zT1PZf2EyHipeU4dlmxGEIMPhPUr3tZZiHOJP2sm0WLFrFo0SJuv3M5dU+lL14Awi/dzu133M72H0WhtBzbtNk1SPhtUD7lpBoob+rhzNkA3hoX1UuN8HYIf3LRPPEeHDSnnoKHGPzadupXJn7D+mm9KYUz2Lee+0soIUr0dW1CNr1+aTCqjTdpU9MUiuYlRsY54khqqZnE5mn6kUzhd2KwoGTKtOj4pXG1v1lQkv5pSamSJ26qZhKT89Lpf7X8b0dnfIGd/xhztKsUnbaZo8wyY3+mZH6m96DOAoCZxJEosUsQGdyeXu6JjBt7BS2nc656+T/tuVoxFnKXJwfda5uCY5reOWuW1NufVrI9Keln2w5T8k5FjrzMjMcFK/zYp5fjmJKmLcPrRwaq4sZxvpW2oxEM9znwPASRniEixRasfwJD+3sZuryKrX+3E+d9EbjPS+DcWQb+a4z+r21n+48ixDFgXACRd+JwWwW+h6xYH/bhKNfe3c1mvMWJpVSB8hKMxBl/zc++Q0HMuyzpqTcnh4nOt2DrVH/Mb2naSHnqisNP8K04pvs34l6mvjDD56jAGA3Rvx/cL55h5HQX5eF9tG3Zw+l3wWDQHlOQ4V+CZU2HOnhc5mbj/elLGv/JMPHbrNhvC9O7v5fwbQ52/t1WbB/L2kiKodiemNqnfpKvcbfu3omtNEL/pu0Mxixs/IdmFKB8oRHi44S+tY/+k2Y8S6f+PmZa57sZOm/AUrUKhnrpHYJVX/Sw8+FyIjrlleVEG/tOxlD+yx76djmpXmah+jEfgc1WTNEQBw6DyWiEi8Mc+FovgxedWD+hzcsMuuWWKTF9cPgA7fsHiT1ipSy52fPdDJ3PLpu+s2OcPeBKp9X41BcyLHPjrVaIvxVkH256zoxw6rlywh1tND57mhgGirTnLCgqya6v1csKqwupZdb50ss0eOh73IoxOkRvh3ZPEI3FYeHUC/RCpeKFXn3XrpTk7ed0TMH2cDmGt4YSv6nUqXtZZiPOzEx3SzdDlxRWbWtJxMJ8f6InSNvzQWK32fD1e7C83k73zxQcnS1YjVEGv5Xj3aGaeA8mrGvsuB7vwLVC/XmHY6+DCmOcyP/aN7v7zsHxKQVDbJhgchp5nj8LodcvRXqGiGTFmz7OJn56kUrbq77cxNLkpbo0TujkPt0YM7PYrN+PZPKfDBM3lbOxyQIo2Pc6qDBGCR3uTaRZcXe6sW9w4vkHW9ZvKrVmFJPz0et/tS7EiGOkRHujU0f+Y0y2KxctNYl29eMxxoJeFL22qRv7s/lfixA3lePaUZ3I64z8LDiOqMepPGBHGe6ld38Y5aGdeL6YvNFTyHI656qX/9Oeq5WShRC9kLwzmK+tJhSXoCxTUEr1r22mi2nGjypYSpXUeeU+52x6+5uql9B5sKz34WmwY3+sA/eKZHvSj8eFK+TYjSiPWFC0P5WaQqd8py3D66isrGyypKREPvJ5Xz+F1rudwfcmJ98LTO5MfbdzMvDe5OTkzw9MOkpKJh3fOjP53n9Mprz3085JR0nJZElJxeTOIyOTE5OTk5OJ9PGXfWraX3VNDv86scLE8GTgpxn7+N7w5OTk8GRXcv+D44mVj026SmonfUPvqatNTE5ORMYn35ucnBz+nrrs1t7E/iYnJyfHA5OBn09OvhfcqR73Azsnj0VSqZOT752Z7PyrxDn9VefkGXWz6rH+eniyb1vFlLwoefzA5EhyE/8xPhkIjmTkTcb5Tk5OTk5OTI4c2TlZod1GSdfkcGqZtPeCOydLHvBNnpmYnHzvuHrMFa2Byfcm35sMtFZMlvy5b/L0e5OTk/8xMTnxHxOTIxfeS+eTNs80ZdYVnpycDHdNPdfJzHzQKa8pH8ekL5h5rpOT7715YLL5gUT6jj41n/5jYnLyP96bHBmfyFu+JdOUW+ax7+xPLDcxOTn53sjk+K8zyldzXhORY5M7k8ejk5aqv4lzngj3pc/jd/xTUAzYEZjMrC5JyTY3bV3Is8xE5NikpybH/kpKJkv+8YxaRxLbyKwDWXU5R13PjhdTyz5d39U4lqo/GZ+tiW2c+cf0d3p1L+uYZiHOaM8x+6PGj3T+l0zWfm94cjIZJxLpmcee+XE8G5gcScbepEQsL8mRn9p4X7HtwORwZn7+R2acu7p9Jz9Tj6FksqRk6+Sx8cnJ8SNb0989Pzw5+R9nJn259pW3X9KmZcdpvTRtXUrFkRnE5pKSafqRrOU1fcp/vDd55luOxHYqJpu/Pzz53q8nJicm3pscOXJgMvBesl7kqNsziMna/E/XR/3+N/vjmzzzH5OTw99L1m/1mNLLzvAYddqVXtvMW2ZTjrd2ck8wETsmJycn3gxMnsk83rxxRPPRHufEyOSxVjUPdONExnJT0lL7mib/9c718WOT45PvTQZ2JI9Vp63+edfkmUQ7VdN1rm10Ylrt82cmJ/5jMt1GteeVec5ZH5395WpPf+WbDETem5yYmJiceOfMZGf/cEH1Rrut/PU+x3ayjn3n5LFkt3PElegzM/N6mm3l6yO0ZXgdPx8qKyubjMWu94Nd8UFjNBqZvXqnYF1ngdczp7AmWajeYCKanC44G5ZVYy+J0ns01xYtVNfAYM40dV3bfwrTf3LqMxVlhQ0LoZxpmSw11XA03/lcg/PNYKmxYxrvZfA1bcrM5D/XmRy/gnWdmdihXMvq1Ylcpim3pFIrtqUQOhTM+VRMWWHD/Ov+nPmTP22mx/q7YfZjQL66kFRoPrvpO9eM6Wgdy136v7wsVP76PgPT1L0ssxBnrkhVB6deLCP4x/p/qzLVFkq8BPbamHipidXN+SZET6WssFG+MMZQZl5cw32X7+ija/0E7fa61JuDrd88Rc9dQZZbm/KUh15906uvemn548hMY7N+P5LJQvU6I+GseqdgfdiK4bvdibdjtzAw6qKoZxGVU17VnqSXHzOg2/+muQ+O0Gzqp+6PG6f5/XQm/WO0+U/hq4rS7V7L9tRviadvm/nKbIpSK9W3RhjM0zYLbrs58sgbHMNBN4usTbrLJeU9V511yHOuju4zeJeGaLqnnm4Kb6vZ8l8bFJwvTH/8afn3l2WZA8cngnS/pO7b/twZfPcP03pnXfonBTrxeEYKPvYC6BxTrjK8nmSgKq6L2b1IFULcaOZyDLDuHqCjKkJrRYN6YSUK0zrASE2Y+hkNDmbJ+7zvlmMj2ML1s3Yz44ayuYezrVY4HyQ4FEepsmIxRuj+XCVNOV8Ocx1UeRn4hpXI3y6n4bvaxCujrHDg+QcvyuAiKp/Qps5d7u4zbP20ifGXCr/5Nmvnel8Lfc/XMvEPa6nzJQZF73NbvXaseI934SiNEToZJGKwYL3fDCdbufMvCvrluyiADFTFdTGXL1KFENeexIDfQTp36a+593nflhobxnDuJ28fBMr6Zpofrsby0SJiF4IceHo7++bIE5hrxd0ZYBUH2LOxPfV3lm8Ejid9lF8+RvszvTmf+OZyTc/1fW6r15YF565malcoGOPjhAa7aZtBPovpyUBVXBdykSrEB5vEACGEEELokbf+CiGEEEIIIYSYU2SgKoQQQgghhBBiTpGBqhBCCCGEEEKIOUUGqkIIIYQQQggh5hQZqAohhBBCCCGEmFNkoCqEEEIIIYQQYk75UFlZ2aT2SyGEEEIIIYQQ4v2W/PN18ndUxXUhf0NRiA82iQFCCCGE0CNTf4UQQgghhBBCzCkyUBVCCCGEEEIIMafIQFUIIYQQQgghxJwiA1UhhBBCCCGEEHOKDFSFEEIIIYQQQswpMlAVQgghhBBCCDGnyEBVCCGEEEIIIcScIgNVIYQQ4gPOUmPHtkLRfi2EEEJcNzJQFXOa87lTjJwbSXzOcibYR0dTdSK1hYGRMUaOtGjWuvF4joxw6jmn9uv3R0MXp86doqtBm6DvfTvmUiu2DdVYtN8XyN55hrGxM3Rs0KZkstPx6hhjr3Zg1yaJ68ZzJNn2tZ+Z19dr4xrHoIYuTmWc99lXA/R1uklGQDX9DD2N2QNM53OnGDndhTPfNvY6Ne3JTvNuH80bCtvm9S6X7P2f5dSRHjyPpI/Xc2SEs8e96XxSv2Xg3AgDben/T23jjVMMdLdgL81aYapC8rLUiedAgLOJYztzvIuW9dnHln3s2elCCCHSZKAq5rSiYiMGIgQP99N/eJDQZTO2bXvoeghgH90dvXR279OudsMxFBswFhdpv35/zDdgLDZimK9N0Pe+HXONG+/enepF9xXofaGT7u920r1fm5Kpl+7nu+l+vptebZK4bkIn+uk/3E//4RCxYgOxt5L/HiT4M+3S18M1jkHzDRiLIfKKet6Db4J5TTN7nnNkpJuwPu7FlTHIKio2YlhgoCjHNoI/N2De4KHnRVd6hSobZlOE4ZciBW3zepeLodiA4VIosc8gUVMFzqc6aEkcr6HYgHGJA8/ezKGqgaJiA0VF6f9PHfdPY5SscLFnnxdrxhpTTJeXpS56+j04yw2Ef9RP/+EhxhdacbV34a1RF8k+9iFityTSq7L2JIQQQgaq4oZweZzglkYatzRSv3IfQ5dMKA8AlGO5z0KFpTyxoIJ9Wwd9xwMEjvTgbUjf53Z3Bujb7cS5t4/A8QG6Wu0oy5x4DwwQON6HL2NZatz4DgwQOB5g4IAX57LE9xu89B3vw7vDQ8+RAB1N6O4z73YAUvseoGtH9n1/AEuDl54jAQLH++jYZid1v72pg8DxDjxNHeqxbABK7TR39uXcj7K+mY6DAQLHNU9iCqbg3NGlnp/2WBLUPA3Q19mc/UQidY6atDz5mHM/G7z0fd6CEYVVx5PLznDbSy1UlFtSTz2UR1roSuVJel3L0goqliaXsuDc3cNAolwzn9aI90/3V9R237hlmBgQCyf/vR2/KUdZ67RHd2eAQGczzja1XKc8Qcvbjux4DwboaKrGnUhPP0XLjEF6y5G/jk9rgvETifN2VLLvJ3FMn0jGvIRiK+7dLp3tpbfRULuc9pMxjJ+qJjlUVdaXocQiDJ3IWEVnm7rlkrmNFDVv+na7cufNDOMaABeHE/tsYK37GBGDgiUxGATgMijrPfgyv9NIHbdjNWtfCmNYYsUx3VNVnbx0tLqwLojQu2k5azc10rilntUPthGcMFP7RXd6E6ljr2f1gwcIG8xY63LltBBCfLDJQFXcUCxNVszFMcbfBChBWWLGXFoCgKOzD1+TFdM7wwxPKNTu6iOwW70/rpSZsazbiqssRgSF6s17GPheMxXxKBMLLdh3deCrAqq8BL7ZjE2JMxyKULTUgefbiemgCxXMS8pxPGpHMajHk73PMmp39THQquhvBxc93/PgWGpkPBzFVOfBdnPyDEFpHaBvVy1lRAhdMGJ9zMdA8o69UoZ5iQ3nFyswqkdAR68P9wojkdAwcaUWzw8G1CcLVV662t1YjRFCoXFM1c10Hsy4WCqA68UBPI+WY7wQYjimsKppDx070ulFd7nYWj7B8IUJlGp3+olEaQsDP/BQa4ZIKIJxhRtff496YZwjH/PuJxomdD5KnBiRUIjwhZlvW82zMvWCe3MPA0+7KDdGCIVj6jH/ozptUykzYy5TLxZdL/bg2VBGPBximDKcT/eo9UPMHTnKeroYYK520VxdROTCBCUrXPi6fYmbN8l2ZGI8nGxHgcRTLjXOWP+rh40fixGJG7Fs8NDht2pikN5yOnV8Jpa5sf6Rgdi/hDO+jBF8KQgrmvFtK2ywM34pDvOLEjEEnEvNxH82hD+1xMy3qU/Nm/INzbg+EWP4HTCv99BzsFltl3njWq7y0FKw11lQ4lEib2V8/Yt+un9Rgn1XR0E36CKxCQAMMzzddF5aqb7LBG/103g0Y4Hzflq3NLL12cGML4UQQhRCBqpi7jNaaRkbY2xsjIFtFmJH/bR+XbtQC84aE9HDjSyvbaDhweXseQXM69yppwaGi6dp+kw99SvbCcYM8GY7lY56Vj/YT4QSlPuBSC9tTzWxsWItDVvqqfxhGG4py5gOFif0jdUsX1lJg1e7z7X4j0bgVrv+dlrtWBdG6d+ynLpNif2npt3a8ay3wGudrP1MPY2OShoORTBWOfCm7vRH6XfdQ+XKtTQtdWK7OUz3o5XUb2lgbYWfocsWVj2uwBIFkyFK8KvbadxSR52jgcZnB3M+IclNIdjRRNOWBiodjTQ86Od0zICyLD1l0BA/zdY/rqPBsZq1HSFYsgrXBrC31mK5HKLzwdXUb6mn8tFeIgutONqTe8/MR539nPCz/cQ4E8QY3tJI2wsz3XbqUAFQXvbT9EQjDSvrady0Fv9QDMPHLak6kmT+mJH4WwfYvqmRhs/UU7+lle6IZiExB+i1x6kxgFiQ1oq1NDhWc89Xh4iXVuPaDLQ6sd2SbJMNrK3Yw9BlM7bH0jWj6Hwv93ymnvrPrKX/PCh35f41c+7ldOr4tIxYW9X4N3akGcvFQfxfSQ8pAXi9ifaTE5R/MT39VauoxI59gx3nk100V5mInz9NNwDNVJTC8FBb9goFbDOnZdXYN6j7sm/QvKAp3M3qlfU01Cbi2v023Pni2jTlwR851DwZO4VvvZHQfj/tWU9zYzQ9dYCwyZaeKq1hKE4c52NeBjZYIBpmMOcT4Wy589KCcQHEYlHt4oSO9tJ7NJT+YkEZvr0+fHu7GDhYizkeJtgjAUYIIbRkoCrmvliQ1kWLWLRoNfVfOQZVzXRpLzwaLCjzYwy/kr5r3X4+AsYSzMkv4jGCqdQM5yeIY8B4K3A+hulTDjxvjDAyMsbYQ6m1EyaIjScuKKbsM0Lb5ypZvalddzv20hKIDTOUvOt+fh/h1LWNFcUEkTdbSV62BH8aIYYJJTWFLUYssa69tATmm6ntTL6cw0V5MZhus8HXBwm+bcTmP8XYyFl6ttkwjYdS251ehFhxObbHfeqLQUZbsCYfwSTEfj5E6uyfChHBhHI/WBUT/DJE6/lE4okQkVjiuCA7HwvYT6aZbTtb5KKR8jVb8Z1Vy6VlRe4d9Q4OMfFJFwOjI5x91cfGpQYiyf2JOUSvPeaIARfHE4MzwDtMBCMld4FziZLdJmln+JdgLEm324mJWOL/Ikz8Fsjzm+7cy82sjmeLEWxZxKJFi1j9uTaOXbbS/HwX2REwgr+2neAlCxv3eVNPStOMlDf68O314Wm0Yjzfy85NiRjTUI65OEzo29p1pttmHn/ZzJ62PalPy+b088xYLFJQXCukPPhZN4sWLWLRH9fR9J0wysMeOlo1t+GONrF9fxhjTQs9m7OTAJR1ap74ttWiXArif6I+XT/yypeX48TjUFRUQE4ttGBbY8P22WosC8fpddfTVMAAWQghPmhkoCpuICEGv9ZA/1txTGYrWb/S+lGUGEZ1sJmgzDPA5QmSl42FUNp9eNYrRF7aSaNjOYteyJxip5Fjn0l62+l9NwbFRkypb8oxFif/P8x4DIwLM57WzAOIE383/VXSUGwCLg3R3byVrYlP45ZGmrz9gJ+GittZXttA23eHiC+xZ0w/LoQLb5sL6/wg/uaNrF3cSlCTmUZj+izYUIKRGOM/h/A7MVhQMmVf8Uvjmm8oaD+ZZrbtbK7dHlz3Q/DZrWz87CJaT+beUbBlLXcuXk19i5/BiBHr5iuYpineXzna45QYMK8oPaOgtAgDMBGDwai2TSoUzUskzoqZ1fF8QkfbafjhMHGTGet92lQ/dU8NEltSi/Mu7UvO0oPdRYtv586VjexL3HixPqBgfHuY3pw3YvS2mUfzam6/4/bUZ/nn8rxoSieuzag8zgfp/vIegr80UPYpbVSA4BP1dL5ehPVxW8b2VOEXMvKkoo7WzCm7eeXLy15On49jWGKlOesJtBXf8RHOHmxOf/WLA2r+fGmQ6HyF8jXaG6JCCCGQgaq4MRRhSk4le6wD2xID8YvjDGUucr6bofNgqfGpL0hZ5sZbrRB/K0iey6ScyhcaIT5O6Fv76D9pxrNUZ6Jscp9rOnAm9tl3doyzB1z62zk5THS+BVunEwWwNG2kPHUF5Sf4VhzT/RtxL1NfKOJzVGCMhujP8dbaSM8QkWIL1j+Bof29DF1exda/24nzvgjl7QFGzg7g+nU/7V/ezrFfxMFgzPtkJDmdTf1UY8GEsRhiwwdo3z9I7BErZdqVl9bS9YgCVNPyX8sxxSOEfgj+k2HipnI2NlnU35DtdVBhjBI6nOudugXsByPKIxaU0pluO5vJaISLwxz4Wi+DF51YPzFlR4CbnjMjnHqunHBHG43PniaGgaIF2uXEnFJIDCitxttkASy4d1ejXA4x9O1EO5pvwbZXfcGRpclLdWmc0MmZRA8909TxZdXY11nzTstPt003Hf+lDEM8xvhPtEsBL9Sz9dA4xoXJH2hPR8F+l0L0zf7cs024km3mZyx34FuvFBbXpiuPecZUvHLu2or1Foi9k2smRYTWTX6GdGLfFNOURz7tzx4gPL8cV3cH7nVWLCsceA74sC2ZIHQkx7PaF7bT/ZM4Sk3zzKZXCyHEB4QMVMXcZyzHtTcxRetJG8boIHu2tWoWCtLYso/QQju+H6u/5aq4NEhbcnpbgXo7DjB02YIrMMLIaCfVH1VfsJFbYp8LbHgS+7RcHKT9Cb/+dvY30PZShJI1Hk6NjTHw+QlCGU8z2t1tDF600HxkjLEf+7DfPMy+fFPSTjSyvWMY03ofp8bGOOW3Y/pFP/6vwdBXuwleLMN5ZIyx0VO4Phlj6AV/noF7ejqb+tmJk1Z6j0YwrulibGSMU0+a4VL2WrHXhlGeOsXYWBeuT8YZ6mhTp+R6G2k7GsOybSDxGzITwx1bqX8he33VNPv5+iBDURPWpwfoa7XPcNvZWvf3E1loo2t0hLFAM+Z5ce0iQDv+Q8MYP+3h1OgYY8/ZMP6sn85ntcuJuaWAGHA+TNHmAcbGBmi+H0LfaWP7+WQ7CmFMtKOBbRXEjrbR0DKT6KFHv447n/Th2+XKniWSktk2m7EtHGfwq01oI2DS4KbteZ6O5uLE8vEYwy/r3+SZ2Tbzi4VjlLefUuPabeMM/uN2nbg2TXmU2lLxyvOIBV7bx86/zXMe59to/PtgwbNr9MtDx9Em6nf0Elloo/mbPerbissnOO1rpM6Xqy5FaHvmAOF5Fhx53rAshBAfZB8qKyubjMUKDd9CzA6j0ci1qnfKChvmX/cz+Jo2pXCWGjum8d6Ct5Fvn/rbsVBdA4OZL9nItKwa238K038y1wWOloJ1nQVe7yeovaBcVo29JJr9Mo+ZKLViWwqhQ8E8g34F6zozsUODTN2Dhep1RsJ5180w7X60ZrDtLDp5laXQ5cSVeL9jgDc4hoNuFlnbdeqrXl2eBXnqeHP/CM6JNu6s1bwk6Vrb1sfIYwY6F6/OO/CdHS56zrZgeb2VO2uDM2i317g88piV8phR/BZCCJGLDFTFdXEtL1KFEHPf+x0D0gPV5B/jnSvsdJ3Zg/Hbt7NW85bqa618s4eNJcO0PbWvgEHj1cgcqF7F4O99cf3KQwghRLZ5H/3oR3fG47mmvwlx7RQVFSH1TogPrvc7Bnx00Se4FH6Z/sD7+WyuEJeIjgbp/855pv5hk2vrwk8G6T/x04KnxF65Ij66eD4XfjrI4OlrOyS+etevPIQQQmSTJ6riuni/n6YIIeYWiQFCCCGE0CMvUxJCCCGEEEIIMafIQFUIIYQQQgghxJwiA1UhhBBCCCGEEHOKDFSFEEIIIYQQQswpMlAVQgghhBBCCDGnyEBVCCGEEEIIIcSc8qGysrJJ7ZdCCCGEEEIIIcT7Lfnn6+TvqIrrQv6GohAfbBIDhBBCCKFHpv4KIYQQQgghhJhTZKAqhBBCCCGEEGJOkYGqEEIIIYQQQog5RQaqQgghhBBCCCHmFBmoCiGEEEIIIYSYU2SgKoQQQgghhBBiTpGBqhBCCCGEEEKIOUUGqkIIIcT7xFJjp3qZ9lshZofULzFXWGrs2Gss2q8/gBScO3x4t9m1CaIAMlAVc5rzuVOMnO7CqU24QXmOjDByLvk5y6kjXbSsV7SL3djaBma9zCwNPgZePavm2xun6Nvr5Jp3f6VWbBuq0/vZMcDI2AgDO9R/Wmrs2FYUWHbLqrGvs5Jc2t55hrGxM3Rs0Cw3x8zoHK+B7PaS+TlFV4N26bnORdeZMQae89H1rBdFU59+J2jq+Yw0dHHq3AAe7fcFuCbt6YrjmBXv8RFG+puvLB9I7HvavLDT8eoYY692oF7+vt/1y4EvOMLYyCn6vtlF4NwZumYz/+eia5yn1XtPMXa2B1epNuXGozT20PNND55v9tDTeMUtIaGFgZExRo60aBNuDA952PqolZJIb/q79+OaoMpLYGSEvm1Xkf8NXZy6zv2tDFTFnFZUbMSwwECRNuEGZSg2YLgUov9wP/2Hh4jdYsXV3oW3SrvkDayoaFbLrLo9QN8uO0psiP7D/RwLg2WDh54Driu/ECxEjRvv3p3pC9Xnu+nc30n38+o/nTt8eJtsGSvocO7Et9tNcuneFzrp/m4n3fs1y80xMzrHayB0oj/RVkLEig3E3kr+e5Dgz7RLz3Gbqyk3RRl0L2KRtYmIpj79TtDU8xmZb8BYXIRB+30Brkl7utI49pCLVUvGOfZMGxFtWqGKijBMmxe9dD/fTffz3fRyHerXGgum8W7qP+snYlKIHd7D9tnM/7noGufp4JZuhuZbcW6zapNuMA7cthKGvr6a1V8fosTmxqFdZEb20d3RS2f3Pm3CDcHxgJFITxv1L2R8+T5cEzg2r8IcPUbbM1cciRJx2Yhhvjbh/SMDVXHjaOogcNCLs8FH3/EAA90t2EstOHf3MHA8oHnKVo17r/p94EgP3oaM52/LnHgPDBA4PkDXjmrcnQH6dqenZFgavPQcCRA43kfHNntqMKQu58DZpm5X3X9qtYz1Buhpc+YfRF0cpnFLI41b6ln94AHCBjPWOgU2eOk73od3h4eeIwE6mgAU7Ns66Mt1HjrHqp+WzrPAkR48j6RTlPXNdBwMEDgeoK/TTXUqRSc/M7Y30N2SsY5KeaSFrtQ2mzPyLP9xpJS20LzezMTJVlavrKdxSyMNDy5n4/4IxhUuPA8B2PEezC5Dd2eAQKc78S8F544uNQ+z8kJdr6OpGndnn3p8yTq0wUvf5y0YUVh1PFEW5RYqLBVYytXtr7oFjHc5CRz0Jp5o5Mmjpg4CVQoUW3Ae78O7AVhqoaLcgoVyWroDDPhdiWNN7Pv4AL4GnW1u8NJ3vIPm9S10HQkQOOjDuSxdV7R1M13nNWWQaFOOR9Q6F8h4wp/7HPXr42zr/kpjoq0MEwNi4eS/t+M/oXNeM8yf/G0ls0304XvEkagzpOtdewueAwOp+pazvqfqkxHLFxJ1NaM+gXpjxJc4l4EDXpz5pm+W2mlO1Ncpy81Cfqhtpzl3nEvGqNRdfzcdyfaRq57nbXtqWqouHfThnJdKUOU9zxz5nmpPieM4ruZ/6jNtLOAq4lg2919aMUXD9J9IfqPTZgot8zzlallaQcVSS2H1K29+TnNuefbNYT/9ryls/epGLMYY42/HMlbSOWetfNvXa5dNHQSOd+Bp6sioj/n2qRPnUdfLXSdy1DNtnuYrP524qrse7QTfiqOUO5l2qDqjPMgu/8DBDtw16aS81y5568x0eRok9EoEY00XXTVGhk8ECRa0Xr4yL8dyn4WKVMbn6RezJPb1pJ2W7gE1fjdY0vG84DKZvg/Ifz5qeTg+ZcR4l73Aa4KEvO0iX33VcuO430T0zX417xt8DBzvoSXjoYi7M0Cgu4Vy9PaXQS/+z6CPAf39JetAkgxUxY1DKcO81MbWL5iJXQDlT1zs+acemsvjRONGLBs8dPitialXnTR/ViEeDhExWHDs6kpMqXDR8z0PjqVGxsNRTHV7cK0wYy4tUXfROkBfay3KxDChC0asj/no61TvBSplZizrmtlqheg7BpRPu9jTnrgA2txDz65ayiaGCYWh7GEPPf5puxo4H2PiMlCkwEIF85JyHI/aURK30h2dffiarJjeGWZ4QqF2Vx+B3ep2ldYB+nbVUkZEPdYmH33PJY5V5zxcL/bg2VBGPBximDKcT/fgq1KniXS1u7EaI4RC45iqm+k86J4mPxPbe9iC8Z1hoh+txVNjSpycmi8DT7soN0YIhWMo1W72/KM6fSfvcWTaUEGZIcrQC/6spxODW3oZumTCssYOlKAsSZchibIyl6nh2/XiAJ5HyzFeCDEcU1jVtIeOHaTWs/5XDxs/FiOSWYeiYULno8SJEQmFCF8gUT5mlIUQ/VmIyCWIvxsm9GaYqF4eXQgTuhCDeJRwKEQ4mqjLS8pQGCKMEUuNjeSltH3dKspvixPp0NnmQgXzEivObTYM78QwfMqO5/sD7NxQQkxbN0tbGPiBh1olznAognGFG19vh3qHO9Gmmv/GCu+MY/h4Na7dPtzkOsdEfXzMqublhEJtax8Drbm7yWsueV5miCTPq78HFzPLnynt6DEfAy8mbhwk2sSq0gki4QnK/6YF21IzatVS60/5Qy7sSuK5W776rqlPoZ9Hs+oTVV4C32zGliijoqUOPN9OTunM5KCj14d7hYnx8DDxT9Ti+cEALaWzmB9lZszVLpqri4hcmKBkhQtft08duGUes7o0ZUsS+ZGjnudve2Dd3cWeplUo8QjDl8vZ+gVLxtNLzXkqtXh+EEjMPMmR76n2pDHfiLLEjPIxI+jGgiuPY9nsVJQaiL8dUp9yTonhZdTuSrSZQss8V7ke7MKRGeemq1/a/MysN3rnprNvvbzU67ey6Gxft10qZZiX2HB+sQK1ZPX2qRPndc8jRz0rtM3qxFXd9YDun4/DbWVT64FWvjzIGZ+tePftwb3CSCQUYty0imZ/n3o8ea9dpm+DV5qn+dabUuapa5rMPl6nX8yS2NfDzdgMUWLFFuy7ehhotVNyaQZlUkAfkO988pZHjliZFcN02kX+vNXYUIFSHCfyeiIS/SgGf2TF9lCyHbZgqzFjuDTIUK79JfuOTHrxfwZ9jO41SUZ9TJKBqrixFMc4/cRq6h2VtL8Sw0CI9pX11H9mLf3noUSxAhF6/34nTZuWs3ZTI/Ur+wljomwF0GrHujBK/5bl1G1Sn2hGUlMa7HjWW5h4pY3lDzbQ6Kik4YcRTCvsqQZruHiaRmsd9bXLaT8Zw2C2qlND7yrBeGmYAzsaaNy0mvqNjbR+N890i3lG7Bvs2De48R5xYJkfJTyo3m+EOKFvrGb5ykoavC04a0xEDzeyvLaBhgeXs+cVMK9z40ocK691svYz9TQ6Kml9YYhYsQXbNOdh/piR+FsH2L6pkYbP1FO/pZXuCLBEwWSIEvzqdhq31FHnaKDx2UEUvfykBfsKY+oY6z+zlv6305ebyst+mp5opGFlPY2b1uIfimH4uEX/ODLdasRAjPEp02HUAb6hOD04zU0h2NFE05YGKh2NNDzo53TMgLIsHYKLzvdyz2fSdUi5yw4n/Gw/Mc4EMYa3NNKWOWUn8aRv+CJMjAdpbPYT1MujF9poDMfg8jjB5JPAzG19/TSRYgurmgCs2O4yEX/9GG162wSgiPBLy6lzrKXuBxEwxgj++dp03bzVghWwt9ZimQjSVrGWhi31VD7aT+QWK/bNic0Uxzi9pZI6Rx3LvxokVmzG2pDrHNX6GO5J5uVy/K+Bpdo9dYDwPrC31mK5HKLzwdXUb6mn8tFeIgutONqTR1NI/kxtRw2HIhirHHhLwd6wCnNyH5vqWP5EkHhx9nHEX/OzuqKSyo3t+eu7pj5t9yXbe0Kkl7anmtiYLKMfhuGWsqlPVVqd2G5Jxq8G1tr9DJ4HZd1s5UdCLEhrxVoaHKu556tDxEurcSXrSz5T6rle27PjqjGn8r2hdjlbh+Lpqa7a86zYw9BlM7bH0u02M9+zeBuoXFlJ5cp6jk0YMbwbpO0LrdPEgiuPY9lKMBgg9k7yIksbw9fiPxqBW+0Fl/mUcm3pZuhdA5Y1GQtNV7+0+ZlRb/TOLf++9fMyf7+VLf/29dulKkq/6x4qV66laf/0+8wZ53XrhCpvPZuu/PLE1enWi7wZIYYJpaDfBE7Ng9zx2YJyi4HoyT1s39JInaOeBvceBkt1rl20dSZHG7zSPM293tQyT1/TZJquX8xWdL6X5bX1rP3zfiIYiZ2oY22qTExYqvTLpJA+IPf56JTHlFiZvb387WL6vE252YCBGLHziX+f387ga3GUTznUuratgrL5EYa+G5y6vyl9R6EK62N0r0ky6mOSDFTFDSZOTNOoVREmfgsGowmIEDNV4NilvnxnbNSBObGUvbQEYsMMHU18cb6V0C+T27BgWgjG8ubUS1u6ahQwlqTWJx5LTGFJmIf6FOClYwxdtuA6MsbI2TP4Pm/BcEE76kooteHb68O3t5naj8cI+rZm/HZhgth4Yr0GC8r8GMOvDKZWbT8fSRyPFcUEkTdbU08au91rqazdTv8059E7OMTEJ10MjI5w9lUfG5caiJwHvj5I8G0jNv8pxkbO0rPNhmk8REQnP9lQRknWMUbYNzyeTCVy0Uj5mq34zo4wMjJGy4rkvV+d48gUmwAMGLVPWgsWIVZcju1xH2fPjTAy2oI1fQgATEwkp6ypdYgr+i2GTh5N58Q+hs4bsFS5ocqJ5bY4oRPtBWxzguShR34bB+JMZObfAiMWwHKrCYoraE6+iKhzFQpGSu5KLpjRpn6b+G+uPNhQRsl8MK/vStUr1zID3Kxc2W8Sr5JVMcEvQ7Qmz/lEiEgMTLclj6aQ/JnajoI/TVwo1iTyLnMfR4cYzpzhCEz8OppaV6++6zofw/QpB5431PXGHspde5xLFE38aqN+5WoavjZb+ZFwcZzu5P97h4lk1ZdC6bU9NUZl5vvgkDq9m1znSTvDvwRjSTpfMvM9l+r2LjYuHaffXYf/PPrHcxVxLJuZEiPE3k08xZgSwyO0fa6S1ZvaCy7zKeX6QhNrV9ax/bBmQR1T8jOj3uidW/596+TllHPO7Ley5d++frtUxYglz6eAfeaO8zrnkVwvXz2btvzyxNXp1tOLwVNk5IFufPYzeDKCcY2PU6MjnP1+MzZTlND5/NcuU+pMrjZ4pXmac72pZZ6+psk0Xb+YLbWv8xPEgfhvE1v/LYAR4xL9MimoD8h1PrrloS9/u5g+b1PKSjBqbvK3DYaIl5bjqILmKguG80N0n8ixvyl9R6EK62N0r0ky6mOSDFTF755SL75ddpRILzvd9Sxf3E04kdT7bgyKjSipu7IOShYk/z9K7BJEBreztXmr+nmikcYtO5n2J/wnWll75yJWf247/qPq7ydzTw0DftbNokWLWLRoEbffuZy6p9Kda5YfRYlhxHhr+itlngEuTxAjzHgMjAtzTRDSP49gy1ruXLya+hY/gxEj1s3JqSN+GipuZ3ltA23fHSK+xK5Of9HJT/aPTznGcmP6SYRrtwfX/RB8disbP7uI1pPpCJ//ODL8KEwEBcvD1UA57gNnOHvcS/XmaixGiLzu16wAoFCU+r2bC2+bC+v8IP7mjaxd3EpQ08nMCr08mlaQ7p9GMCxdRcvDFpRokG7v1W4zLRqLwS+PsT1ZF5q30rilkZ3TVmqNoRgTxBn6bno7W7c20vhEu+ZC4v0RficGC0qmTJGLX0oPMKaXox3NA4gTfzeRdwtK0i8CKVUwau6mZ9Kr73qUdh+e9QqRl3bS6FjOohdyl/RgVI1fGZNSU2YnPxLmFWX8Tk19qU/qWixTIi03vbanxqisfC8xpqYwTj3PRJvOeRBTKY09+B5SiLywnYbUhbbO8VxFHMum1ifTLYlXsOWI4UmFlnm+cp2JqfmZpndu+fetk5c5zjndb2XLv339djnFDPaZTec8plFo+WlNu56xiKJ856lnmvjs37ic2/+4joZnuhm6ZMaenC6b59plap0ptA1eaZ7mKPNcZqlfzKRXJjPtA1KmKQ89+dvFDPL2zfGpT+a9xwhdUih/yIN1iYHQj9oI6uxv2r5DN/7np3tNklEfk2SgKn73lJdgJM74a372HQpi3mVJX3S9FCIy34L9Hzw4N9hxd7qxpiKxX32RwQN2lOFeeveHUR7aieeLtmmnNrpfPMPI6S7Kw/to27KH0++CwZDvVleBznczdB4sNT71h+bL3HirFeJvBdmXOFbT/S5aaoBSO74fjzEW9KLonoebnjMjnHqunHBHG43PniaGgaIFUN4eYOTsAK5f99P+5e0c+0UcDEaMevlJkOFfgmVNB87EMW68P921mYxGuDjMga/1MnjRifUTyTzJfxxZTrSx72QMZZ2Pvl0WQt5uwrc56PrvVozRQfa1AISIvgvGu6ppXmGl+kkv1akbESaMxRAbPkD7/kFij1gpm1GxGFEesWTc2Mhm/KiCpVRB0c2jhOISlGVKzm0FnwkSLrawsUYh+nq/+jSrkG0WwH8yTPw2K/bbwvTu7yV8m4Odf7cV28e0S+aWOsfz3Yknv6tgqJfeIVj1RQ87Hy7P/cThGvOfDBM3lbOxyQIo2Pc6qDBGCR3O+BMA00q2o424lyXakaMCYzRE//7kPqy4O93YNzjx/IMNi86Tjvz1XV/5QiPExwl9ax/9J814luYu6UjPEJH5Fmyd6gtPLE19nB07S8/m2cqPhNJqvE0WwIJ7dzXK5RBD3wbeUgcElppmrCuqad5dPbVOpuq5XtvzE/qFJn5l/L3F1HnuVV8UYmnyUl0aJ3SygLsrNV66vmSl6LVu/CcTP7NYZ0XRjQVXGse0QsQuqm0GMmJ4xnb7zo5x9oCr4DJPlqtrR3WiXE8xNhbImAI7Pb16o3du+fetk5e6/Va2/NvXb5dTzGCf2XTOYxqFlp/WdOtZzSYMl8cZTp5noX/ySS8+3+clcO4sA/81Rv/XtrP9RxHiGDAuyH/tcuVt8ErzVO+aJsMs9YuZ9Mpkpn1Ail55JJfJc02Qv13MIG/fiqk3b7Iyp53+n8ZQ1jgoN4QY+pZ6JAX3HYXE/wLoXZNk1sckGaiK3z37/Rz4yQSWxlOMjIzRWVPCRDLthPr7ndgfOdi5ew+ujw1yLOPPXLS72xi8VEHzkTHGxgZoLp9g6PvT3wFr7+hneEE1nh+PMTbahW1BmP59mt+0zFiQxpZ9hBYmAvaRZiouDdK2SZ0a0+5uY/BiGa7nxhj7sQ/7whD7nmpKp+U8j3b8h4YxftrDqdExxp6zYfxZP53PwtBXuwleLMN5ZIyx0VO4Phlj6AU/+/Tyk14anu4lYrKp596/kYnX08OW1v39RBba6BodYSzQjHlePJGS/ziyRfDXNuI/GcPyiIeuA27Ki9WpNZETnYnpiUHang8SXWDFfaCHrodQpzQB0Erv0QjGNV2MjYxx6kkzXMrcvo6vDzIUNWF9eoC+Vu29Ruh9OUT8j5wMBDpw6uYR8NJpQnEzziOn6Ph8ZkLC+XaCrxswGKKEXkpMupxum4XyNtJ2NEbFtgHGxsYY2FbBxCvdtBcwdTDrHBP1cfjmRH38sQ/7LRH6O662nl+hxHlZtg0wNnYK33oTwx2Z0+gLo7Yji9pWfuzDfvMw+56oV+uWt5Gd+yMYq7ayZ3cz1e8E89/B1q3v+no7DqjTnQIjjIx2Uv3RPCV9opHtHSGMNR5OjY0xsM1C7Gg7TV+fvfwA4HyYos0Dauy4H0LfaWP7+cSNoxNRjCvc9BzownE5lH2TIque67e91q/4CcYtifi1B8uFUPrpV/I81/sS51lB7GgbDS3T3xJxbbZhNoBhmRPvXp/6M4vdbmy6seBK45hWkP43o3Bb8veriRi+ILHdI81YLg7S/oS/8DJPlGtZY1eiXI2EOnbSlDmlbjo69Ub33PLuWy8v9futLHm3P027nGIG+8yidx76Ci4/Df31FGylCvwilBpgO5/04dvlUt/MqksnPv+kne6TMcoaBhgbHeNUo4XYK934O3SuXa64DV55nupd06TMVr+YQbdMZtgHpOmUB9pYqVk1b7uYQd6e6CccBWVp9u9X/fuHiBoM8FZQjenMoO+YLv4XSueaJLM+Jn2orKxsMhYrKNeFmDVGo5FrXu+WVWMvidJ7NJT1teUhB+ZXuuk9D2Cn64yP8nArd9ZmTCPNs+50lBU2LIToP3lFzTcvZYUN86/7GXxNm6Ieq+0/hXPvM+95KFjXWeD1foLaC5586+T7PsFSUw1HB5maqrMv3TQtBes6M7FDg5jaA/hqJuh9YnVhv9UqtWJbCqFDwSsLrIWaJo+uyKxt00L1BhPR/bnKaGZmo57PXgywUL3OSPhqyzZnO1KwPmzF8N1u1An6LQyMuijqWURl8jXNU8ykTmez1NgxjffmbudZ0m1halleXX54g2M46GaRtV1nHzMwTdtTVlSjXBjMk1d653mFpjmeK4tjGap8nHrRRvSZ21nrTX+dL4YXXuZXV66qfPk5zbmt8XHKX030u42s/XLGT1Wmyct85zyVzrnlbJf5Fb7PDNOch57Cyy9bzvVKPQwEHNBRyerEgLC5fwTnRFv29ck08sfn/H1A/nXy1ZlpXEWeFlTms9YvpuUskyvqA7Llz9vp5GkXBeat1X+KnpoobXespbDbyXn2d83o18fISfURkQxUxXUxexepM1TlJfCcAyUWIngiguFeK9Y/gmDLndR9XbuwEOJauW4xYCY293C21QrngwSH4ihVVizGCN2fq6Qp50vdbnzpgWqTNkkUyNV9Brexn3rbdoa0iTeiUiuOVh9e5RiLVkq9uFYc3zxFizlI48qmxKDITteZPRi/nX3TQ7yPbug+wEXXq26Mh+tZ++UbNxLJQFVcF9f1InWZE8+XarHeamTinRCD322j7aX35/6REEJ1XWPADCjrm2l+uBrLR4uIXQhy4Ont7Jvh05MbieNJH1aCNH4l9yRL8QHU1EGgCg4820B76uVU4tq7wqeZYlZ90PqAuUYGquK6uFEuUoUQ14bEACGEEELokZcpCSGEEEIIIYSYU2SgKoQQQgghhBBiTpGBqhBCCCGEEEKIOUUGqkIIIYQQQggh5hQZqAohhBBCCCGEmFNkoCqEEEIIIYQQYk75UFlZ2aT2SyGEEEIIIYQQ4v2W/PN18ndUxXUhf0NRiA82iQFCCCGE0CNTf4UQQgghhBBCzCkyUBVCCCGEEEIIMafIQFUIIYQQQgghxJwiA1UhhBBCCCGEEHOKDFSFEEIIIYQQQswpMlAVQgghhBBCCDGnyEBVCCGEEEIIIcScIgNVIT7Iatx493pw3Zf9taXGTvWy7O9uaHnOUwihx0HzXi8tj5RrE669Uiu2dVYU7fc3imXV2Gss2m+FEELMgAxUxZzmfO4UI+dGEp+znDreh6/xyi9ePEdGOPWcU/v1FfMcSR7bCCNnzxA40oXnoRvl4sSKd0cztlsj9P8k+Z2LrjNjDDzno+tZL8qOAUbGRhjYkb3m9afgbOsh8Iaa92dfDdDVak/Xi7YBRs4N4IE85zmVvfMMY2Nn6NigTRHXTUMXp86doqtBm6C64vbc0MWpVP24gWXVc41C226pFduGanJFLavfjbtaIfrPQ9qklGvRbqy7A4z8uIeOb3bg3axNvRJ2Ol4dY+zVDuzJuH3EM+X72eLqPsPYkS58z/nwlmpTMylY182xm4Kz1DauRb3QVeUlMDJC3za1F7DU2LGtKOxK4YrjiJ5C29+1Nhsx4kroxJXZ48AXHGFs5BR93+wicO4MXbNc39J1o/BYcTX1aSb1Np/qvacYO9uDSzf23DhkoCrmtKJiIwYiBA/30384SGS+GfuOHvpedF3RYNVQbMBYXKT9+ooZig0YLoXoP9xP/9EQE7dYcbb3EWiv1i4699xfTcmlftqf8BNJfre5mnJTlEH3IhZZm4g8303n/k66n89e9fpScB0YwPP5CgzhY/Qf7mcoasS6eQ9dyXwvKsJQXISBPOeZQ+8LnXR/t5Pu/doUcd3MN2AsNmKYr01QXXF7nq+uZ9B+f6PJrOdahbbdGjfevTuZelllw2aK0f8PTfjPa9PSrkW7sT9gxvD6PpYvupO6r2tTr0Qv3c930/18N73JuF1smPL97HBRfZ+J6I+aWLSokiadvAMb7t0+dk7N/OtnltrGtagXehybV2GOHqPtGTXKO3f48DbZtIvldMVxRE+h7e9am40YcSXyxpVZtMaCabyb+s/6iZgUYof3sH2W61u6bhQeK66mPs2k3uYzuKWboflWnNus2qQbkgxUxdx3eZzglkYatzRQZ72T+v0RTFUuWpJ3zmrc+A4MEDgeYOCAF2fm3ellTrwHBggcH6Brx9TBo6XBS8+RAIHjfXRsy3gil5U2QE+bM//A+OIwjVsaadxSz+p7Kmk9OYF5fTMtyfRSO82dfVOPb4OXvuMdNK9voetIgMBBH85lCvZtHfQdDzDQ3YI9446Y3rEq65vpOKim+R5x4D0YoKMJwI73YIC+9hY8BwYIdLrV5R9poevJVSiGMmz/vVndzwYvfZ+3YMSI5QsB+nbbodxChaUCS3LmX75zITOvA/R1JraZkD6+AH2dbqaWRILONlIe8uBaYSSyfyPLH2ygcUsj9Z9ZS9vJCczrtqKeYYYVCooBDOeBpg4CB704HvGoeXmki5b1iZxcaqGi3JK+A6x3LDppBdcbMXO67VnBuaOLvuO52ki6XQUO+nDOy1pRv17nZcG5u4eB4wECR3rwPJJR0nm259w7QOCAJ1X/He19BPq9OCD7GI/04G0o/FlEUa76rGm7Odtgqs0rrDqejBnJ43dh/WgRSrU7Iz9yxJMZtBu9GJbk7gyw6hbg1mq6jnck2nM17r3pvE7lzQxiqGVpBRVLp+Zp9vf565C7M0Cg04O7s4/AQW+epyp2vAedWIrBeJcrvVzOPiq9rFIVSMVmvXqQ8xgKym+9WDQbbWP6epH/WPKfb2H7BnDjuN9E9M1+ghl1yHiXM6Os8pdtknOvui9tPiqPtNCVajuZaZq8e0itj24KbH+JY+3b7Uzse0CdGZQq0z58V5QfU00bIzZ46Tveh7fRnb6WyIpB+ctpSr3MF1fy1VW9flkn7zjsp/81ha1f3YjFGGP87VhqHb3j1aXTxxQaK5Ly1ad8+ZCv3uY9j4z6EDjYgbsmmdBO8K04SrmT34WhqgxUxQ1ncEs/ocsmLDVWdbrPN5uxKXGGQxGKljrwfDs5NcNFz/c8OJYaGQ9HMdV5sN2c3o7SOkDfrlrKiBC6YMT6mI+BF11q4uYeenbVUjYxTCgMZQ976PEX0uQj+F8YImooo2IbgIOOXh/uFUYioWHiSi2eHwzQUgosVDAvseLcZsPwTgzDp+x4vj/Azg0lxN4xoHzaxZ72xMBS71irvHS1u1lVOkEkPEH537RgW2qmTAEoQVlipvwhF3YlcYdvcw8DT7soN0YIhWMo1W72/GMLRMOEzkeJEyMSChH6eTRxjGaUhZnnYmI8PEz8ExnnUtrCwA881JohEopgXOHG19+DK+P4rMYIodA4pupmOg9OGU6mt5EoS+MKN77ejsRFfJq12ozpcoj+LYMZ30bwP9VIY/MeMr8FQCnDvKRM7USUMsxLbTT/jRXeGcfw8Wpcu33qhUXmcrnO52CXeiy50pLnesX1RkxPvz27XhzA82g5xgshhmMKq5r20JGY0mbd3cWeplUo8QjDl8vZ+gUL6fvdOm1Uh+vFHjwbyoiHQwxThvPpHnxV6G5v36EIhhUOmlsVqPLiqivH8PN+ugFHZx++Jiumd4YZnlCo3dVHYHchdUfB5lbrMx+vxtXekRFfEm03XxvUtPnwBaa2c6UWzw8CeKvIHU8KbDe6MSxD9GchIpcg/m6YUChMFCve4500f1YhHg4RMVhw7OpSp5TOJIaWmTGrQTFL5vd6dUgpM2Ne42RruTF7A1mihN8ME41D7EKI0Jthonn7KM2yP4vCNPVgyjHoxcwCY9HstI1p6oXOsWSfbxm1u/oYaFWmqYcaGypQiuNEXlefdWXVoTfDRKcpW4Ciu1xsLZ9g+MKE2ifu86oX+fn6y1x5t8OGJXnOhbS/RJla1m3FVRYjgkL15j0MfK+ZiniUiYUW7Ls6NHGlgPyYooAYsVDBvKSc2r9xUXZpmPH5Zuy7elJTqR2dffges6r5N6FQ25ospxz1Mldc0aurev2yTt7plaleO8pPv48pNFagV5908iFXvc2f71a8+/Yk2maIcdMqmv19qRv13T8fh9vK8txQu7HIQFXcgKLELoFxoQUivbQ91cTGirU0bKmn8odhuKVMDQitdqwLo/RvWU7dpnpWP9hPJDWF0I5nvQVe62TtZ+ppdFTScCiCscqh/qborhKMl4Y5sKOBxk2rqd/YSOt39SaOZtg/TgwDxluBVie2m8N0P1pJ/ZYG1lb4GbpsYdXjyQumIsIvLafOsZa6H0TAGCP452upr11O+8kYhlstWKc5VnvDKsyXQ3Q+uJr6TXUsfyJIvDj7kOKv+VldUUnlxnaUl/00PdFIw8p6GjetxT8Uw/BxC64TfrafGGeCGMNbGtnuC2ZvpNWJ7ZZkfjaw1u5n8Dwo68DeWosleQxb6ql8tJfIQiuOdgWWKJgMUYJf3U7jljrqHA00Pjs45e6jvbUWy0SQtmRZPtpP5BYrds1v1CwLjXAphnpZl+G1QXr3DxLSfq9VHOP0lkrqHHUs/2qQWLEZq+Y3kFPOp6WboXcNWNbkSMs816upN0KfbntWCHY00bSlgUpHIw0P+jkdM6AscwF2XDXmVPtpqF3O1qF4eirctG00N/PHjMTfOsD2TY00fKae+i2tdEem2d7RBtqPxrA85KPjyVrMv+xn+5ZBoAVnjYno4UaW1zbQ8OBy9rwC5nVu9QaIrnGOudX6XOkNEjMoWFJ31hPytUFNm297IUc7r9jD0GUztsfSR5IZTzJNaRupdqMfwzJ1f6WR4YswMR6kcUsb3UTo/fudNG1aztpNjdSv7CeMibIVyTUKiaGF0KtDCb/sZ+M9lVQ+2JRn+l8Qf3OQ8csQCzfS2OwnmLeP0iz7le7C6kHGMaAXMwuKRbPbNvLVi/zHoj3ftfiPRuBWe0H1MOVmAwZixBLTrLPqULOfYAFla4ifZusf19HgWM3ajhAsWYVrA/n7y1x593JG3mXK1/4SyYaLp2n6TD31K9sJxgzwZjuVjkSMowTl/sLaZX4FxIiE4RdWU+looM7aQO95I+WfdaMkyinck8y/5fhfA0u1O92PZ7aNHHFl2v49X7+cN+/0ylRbr3K0o1x0+5hMevtW5atPevkwtd7q5bsF5RYD0ZN72L6lkTpHPQ3uPQwm4mnkzQgxTCh53u9wI5GBqrgBGSmaD/FL43A+hulTDjxvjDAyMsbYQ+bUUvbSEogNM3Q08cX5fYRToxsrigkib7amfrcY/GmiYdcALx1j6LIF15ExRs6ewfd5C4YL2k4+jyojBmAiljiG+WZqO5MvXXJRXgym25K/QZhgIjFbJfLbOBBnIvM3TQuMWKY5VsutJvhliNbkekeHGM6cAQNM/DqaWjdy0Uj5mq34zqp51rJC7wlBmnOJosnPNupXrqbha2BVNMdwIkQkljjPrw8SfNuIzX+KsZGz9GyzYRoPTfm9qOVWExRX0Jx8OVXnKhSMlNyVvdz4pTjML6Kwo84lTuxE4n9/m/ivpjOacj4vNLF2ZR3bD+dIyzzXq6k3Qpd+e44QKy7H9riPs+dGGBltwZqqIBZMC7Pbz+DQMMkmMn0bza13cIiJT7oYGB3h7Ks+Ni41EDk//fa6WzoZohzbshiDf9+gzgBosKDMjzH8Sno+QPv5CBhLSEe0fDLq89cjU2/gQMFtkFztnHaGfwnGkvSRZMaTTFPaRqrd6McwfRFipgocu84ycm6EsVGHJk8KiaGF0KtDCZdiU2dsTEenj5qikHqQcQy6MbOgWDS7bSNfvch7LFPON0Lb5ypZvam9oHqYUlaCkRjjeX+fOH3Zxn4+lMrXyFMhIphQ7tfrL3Pk3SvpvMsyXfuLx9DcFladnyCeuOk9o/yYooAYAUCMWCTVQgldiMHNCrYNZZTMB/P6rtTLI13LDGpactVp2oZuXYX8/XLevNMp0yn1Kkc7ykG/j8mks++EfPVp+nzIoJvvfgZPRjCu8XFqdISz32/GZooSSsa+PNc2NyIZqIobjrLNiqU4TuSnvSjtPjzrFSIv7aTRsZxFL4RTy/W+G4NiI6bUN+UYU08aw4zHwPj/Z+//Y9u470Tf+71PDFCAFhk8DkIlbTNZdUvFOfXUPQjldGFqHZS2eh/TbmDKfk4ulduUVlOX7HFLawMfucWNrGJdKoWXVusNubldSj1JxU1qWYEbMb02oz72JY00Mos2YbCJxWRVTn1cig8SHAb1c0XAi33+IClSFDmSbDmRk88LEBJzfn1/fma+M18O11dNjLgNoEDhfeD8ADvvu4vtXztM6KyOssUzP91nKfZHNVR00r+GZH4OriaJ9B3kYOnPe8BLbyBau5kB47Tm8nm4vaUyRbZVrcrnYp5jfjwPQuLpg+z76l0MXKh7al1kMldbnhXp94ppqJ1mUrg6C4Toab+XzV09DP48SWGDs2p6dkUun4c/vcLhmrI6MrJwvfHf6xSaNWylKUllthNxMv86Qd+CT69Po/wYLStcnb2hdiOMGfdnD4FBD7Z1CUJ9+9j5mQES8826PAOjqsZalPkbHdfbRxP9O7nvM9vp7g8xqRdf5hV+cun9qf8vGxalQKFgRttR6rW/zpFHKc7CKFFvM8G1ufoXviu2vD5I3X6u0nRb6c7bEhr1jaVimKHWAMGjTlR9nCO+bjZ/JkIlyq8mozZ0/YzOUYussB0YxsxlxaKb0zcWaZSWOvktW1E7fGt2iadHS9etolSd2faWBr7/ZnS+LJWdufLlFFWtlN1Cy+9/jayoPG5E7XeUCwVmk3nmKJD8eaUdHDzoxfvEEMttCYZt1VCjsjOo0zrtyqgflRmfY6oZHLukUXtaUTksUe6hfZu592/20POjCMmrFpzlr0QAKE00LSe+3gJkoCpuAU2Y9zpx7nXiOzbBxLet8PYpBgNgXa9AYZbUP48QvWDBv7Fq8HJhmtw6Dcdw8cUNWu8+rPOxI0Ti7QLmB/fh21T8UnrQ1Y6SSxE9Cb4X3iBzcRRreoTBA8e5+D6YTPVPQdym4NzrxLnXTd9wnOAulfz5EbznQR9Lojdr2P4WkifHSV7bxsG/P4L7gbr3nRswTmvoQpqC2YZv2Idzrxv/PzrQDO6imRUFPpjm1E/GmfzAje2zDfJVQx9Loi8ozwkuZS8xtr+cBiv7ejVAxXnCRbuSI/XyONahOJlLMTx/jjL0/cO88ocCmBaf0EMX0hTuseG8J834yXHS97g48vcHcXy6ZsXAcU69A9ZvjxH+jgPbJhuuo2MEv2ph7q3i9/1uVDk/niftpfxMkc3GCbQa53VF7UasjGF/NqM0Q376FEMnJ8k/ZqNtvthDpP5QwPygh/7OUv+p+n3Lpfpo/Z8L8DH2RoapZ62kw4N4n75IHhNNty+1Pw+B/2qj6bchdv4shdLpI9wJzERIzoDWGSy+WGOTj4BdpfB2ghG44Z96WLoPKqiPaaitVf38RPHlIFpvAHtrgdSFeldSCzXuN8YxzJC1BYUCs6+HGHkpgeWotuhrA6vDqA3VscmOcxm/82p4jipR7najtapLt4MaRjFzebHoxvrGcjVMSzm/O8K4S/mduJTl0inPytrh2/niwKSmaJU7VLRWFXU5dbuxi9HHVMBO/zesmAs6qV8ZnS9LbXqLj/B3nDh7/AR31e+hS/e/pS1ZHstsj8YU2l3FtqfuDuKyKuTejDI+EyE5Y0Lbug2S44wnYdu3/Rx51Fr/Cfq8SlwxaqtGGpedQZ0u1Y8axVPDc0w1g2OXNWhPyymH+XZrVO4PBIi/e4nYN/JEf3KYw7/Wi0/fby/uw2YxY7o2y/RS8fUWIANVsfYpVjwnggRPBOnbayF/IcRBdy8JYDx8qjilKJ4hc3kY+x1zle1O9jD4ok7LDj9T2Syxr89VpkUAQ75BJj/Q6DuTJftqEOed04w80U0EGApHmb7djv/VLNnLozhuTxMdqfneTVmrg+CJIMET/uIX208eZs9/CRWXnfdyODyNeXeQqWyWqZAT8x+ihH5SuxNjRmkl4OXISR1l60GOH+vD/l5i0d29agMno+jrHYxezpCN92G5rVC7Sn3nvRwOp1A6S+V5SCN/dojeZ4ppGDybRzsUI5udIrjbzHT4IN3PQ/LHERIftOE+kyV7eQrP5/Mknw8tvvAq7aP9UIxsNkvsUDtzr0UYerl2xUl6/7cjjM8oOL4XZuzMGIGeduaSIbxdxj9Bs2yltLR5R0v5UUiFjxR/asIgrytqN2JlDPvzAONndZQdo2QzWaa+Z4GrlU0HfhgiUdDwPJsl++pxtCupyp11wz7qpn8oiH9/+bXXZUOEXppG+bKfqctZss86UN6JMvy08f5cz3qwNac59aNBUv2DRGdUHANB7CTw9o+QWu8k+GqW7Jk+2q9OMvh4aVrht/2Ej/et6AlMNcM++MwkyZwZ21MxJgaclX5eSn/sUDv5s4P09C+jZxn0G8MYZuRkiFO/nUPzTpHJZBnubKEqyq8i4zZUy/29IMGjHmpbRi3DcxQhJn+bw7zVT+y0H+dS7aCWQcxcbiy6/r6xfI3TUsrv7Y7isjN9aB9MMvREaGXt8HyUdA7UjZXvCI7/JkXhc25i8TDuZdRt/vVp1B9Mkc2O4vl8gWR4kIEZ4/PlkK94Htr2d8c5fshO/nyi7hM7w/63XEuUx3Lbo7E80+9ZOf5qsa7V3CSh70fm62n6zlK7fDWI826daHhxe5pXG1cM2qqRxmVnVKdL9KNG8dTwHFPN6NhFjdrTUuWwsN0alPtvh4hcyNPWEyN7OcuUVyP/WoRQGEDF0arCH1Ira2Nr1F+0tbX9Rz5fr2sJcfMoisJqtjut04l5dpzJ12uXAGjYO2HybIPX7Gyy4/jLNNELi0+A6hYHGqm6y1ZGxbZLgzejJOoGvmWqm1YV26M2TD+PlL4T0U/ssoemsbvoqPNy3aIbSY+KbZeF/Ev1XlykYd+lkH4psfjCapMdZ0uO8Ub1ME/DvtdMbjkvRjI63qow2n/jZavXbj6+rj8GGPTnVhuOjZCqUycA6hY76pXJBm2+Xp/oY+JdN3M/avR7nvW2Wc6yxtQtDix/ji6IZbafTjF2f4LNtt66+Vq2ZfdBlujnS2ncN+rHsGVYUdpvwBJtqKwvmsE9N8h9XaWbkkswPkctVq8dNNY4Zi43Fq28b6ycUVoa53d57dAWmmKsM8fgX++k4fBpybptdKwG+W+14XrQROT50rcRB2Jk9zcRuauD8i+yLLAqbbh+GlfaHhfZP8alAY1U/33s+U3jPmpUh8vTuK0aalR2S9RpvXa1dDw1OMdUW+LYjeqqaGXl0Ljc6+yn1U8s7oJwB9vr3di5xchAVXwkrv8iVSyyf4xLAzaYSZBIFlC32tAUncjXOugtv5xAiDXmlogBe0d5Y1Bh2Oji90PQ/0oGR7qbzZ66r1wRHzono28cR/nZvewM1C4THw0Po7/zobzczc7vJ2sX3hSeFy7RvxX0CwmSBRXbFg1lJkL3Q8UZXx+eVWiP1QPVujflPj4+7vHU9dMp+i0JvA/1Gr7g6lZx2x133HGkUFjm1D8hVklTUxPS7lbJb3/BL99dx6db7+c//dUdXH03yon/2s1Tr9WuKMTacUvEgP87h/5qlOferfvqxw/N+9k051+aRP+ftUvER+MqucsJov99xuANquLDlWT8mX8k8usrtQtumuTYL/m3/8enUTf8Jz77/7xKOnoC79ee4sMZJldbhfb4l3fwaa7w+/9rkmSmduHHy8c9nqZe+in/+LMz3MDkhzVFnqiKj8Qt8TRFCHHTSAwQQgghhBF5mZIQQgghhBBCiDVFBqpCCCGEEEIIIdYUGagKIYQQQgghhFhTZKAqhBBCCCGEEGJNkYGqEEIIIYQQQog1RQaqQgghhBBCCCHWlL9oa2v7j9oPhRBCCCGEEEKID1v55+vkd1TFR0J+Q1GITzaJAUIIIYQwIlN/hRBCCCGEEEKsKTJQFUIIIYQQQgixpshAVQghhBBCCCHEmiIDVSGEEEIIIYQQa4oMVIUQQgghhBBCrCkyUBVCCCGEEEIIsabIQFUIIYQQQgghxJoiA1UhhDDS6qb/RIC+3bULhBCiMa3TiX1T7afiliBxX4g1QQaqYk1zPztF5t1M6e8SbyQmCPZotautkJPw77JkfxfGWbuohtbpxLFFrf345uoZZerdGP7az5fgP1MupwyZS28QPzOK/5GqsnoyRiabIfZk9VYfhprybrXh2GtnPmUfYrr8ZzJkLk3Q31q7BHyn3iDz7hSjPQs/dw0cxLO1Bf3FhZ8vMBgjc3EUN+AcfoNs9g3Ce2tXEivWM8rUfP/PcOlinIkTHmx16m9Zqurp5nAzejFDbLD2c3HLuM74u5CH0TeyxJ4NMvp0AHVBjPMTqxNnGqretmeUqZVsW8V/JsPUszev5Ru5KTFxMEbmhutJxbar/s0Ez7E+PNYmLhrF/SX1E8tkyZzpr10ghFgmGaiKNa2pWcGETuLlKNGXE0zfZsF5dIyx/bVrrsQ4keciRJ6LMF67qIb7ySCBXkftxzfXOhNKcxOm2s+XYGo2YbqaIvpylOjZFHN323APTRAfshdXeC7C8MlhIs/Vbnmz1ZR3p4/AiSOVwcKHmC5TswmTYsVxyLZwQasfx4NmTM0KpnXVC1xY79CJ/LCbSPXHtZqaMN1uogkYf36YyM+HiZysXUms2DoTSjPor0WJvhwloYNldz9jp8fwXM9gtaqebo7S/m/eAcTNdp3xd4H9dqzmHJO+u7jL1ou+IMaZiue1BXHGQPW260woK9m2iqm5mK+Pwk2JiU1NmG60nnDgOxbkyKLxuxvtL1OM9HuZrF20IiNEwuMMR0ZqFwghlkkGqmLtuzZL4oAX74Ee9vzNEIm8gtbpKS5rddI3PEH8XJzYqQDuBXdGNdzHxoidixOL9GPvDRM/HcAJaBvbad9YfqZXWS9+Zgz/Y8UnqL7hONvuBuV+9/x2vuE48WE/vuGJ+c/Y5CZwKkb8XJyJ4T6cVRfQ6u4+wqfjpWU+SkPGGirOQ2EmzsWJnw7ivs1g+ZkxAkZPlD+YxnvAi/dAN9u/0MHAhTksu/voB7BqtGvtaNbiqo3SVsxjH+7BStlV5+l68jtf3nsDTHxdQ0Fl27k44d6F6XKfiBF/oZ/KMNJH+Fyc0SeLidZ6AoydiRM/N0H4kJPqZ92VZTHGBt0Lli1wDdQtHlxVH9kO2dFqL/5anfQNu2hvVtD2LtG2qhdt1Gi3apUnxgbltSr5+dibY/a8F+8BLz1dHdy3bxx9vQ3P/16eD6HifnK02D8WlaNBPWFcN43acq3KehMEH1u0dFl91zccZ+KYG/eJCeLnYowOOFHn01Yzi6TTR7CU5gUxrzdM/FwYf2+YiXMTBPZifPxG+2lgqbigPtbP6Hx5NWrnC9uyURnfeN8wyPsCS8Rfo3NM1bL46TC+TqpinIL2rTgTx5yLYi8At7kJltpNdf4WnWPqbVtmVIfz7SfG6JOLW2/D8q3XjgzKwKgO51XHxNJ52N0TZGK+HVX66cQJdyl2OgmcjjNxzFMsiwXLFmvU/op9y1Wn3ToJnHajNYO6NU582FfcoNNH8JQLzdSCdX85r1b6I3FiodJ1B6V6Phcj2INBW7OiPaDRXq68eu1FCGFIBqriFuYiPB7Et0VBT01TULvw/zI2P63T88IY/kc1lPemyd3RxfH9NiwbVFoAtc2Cpa14ava8MIZ/bxuFdIpp2nA/NUZwK+TeSaFfhcL7aVJvpcmVt9vh5qBVKR6ktZ/YL/10WUBP6ShbfASjY3gAtgYYHfJhU3RSqVnM9j6GT5dOhlVsx0Y53rsNtaAzfc3KwW9pC574uIYnCH7HhnIlxfScStfABLGB+pdmC+mEnk+SM7XRfghYr2LZYEFdb5w2tc2Cxe6hz96EfmWOli0egpFg8QLkOvM7X965NKmZHAXy6KkU6SsL0zX5AVi2OnBtLWVhwIFjg4m580nUgRgTR7toQyd1RcH2nSCxF0oXDvvHGDvaRdvcNKk0tD3qZyxU89S0JP96Et1sw9Vb/sSFZ4tK7s0U+fm1Vta2/J3m+S1R27BsaCte+NUrr9OjuGDV8vOJc9ZL9G0waw5sgOeFGP5vWov9I6+yrfc44dI0csN6qlc3y2jLC5TW29Y6h56ew/p3ngU3PJbbd9U2C9qug3ja8uio2PcfJ/YvfbQXcsyt13AeDRPcWjxe/Kd9ONQC0ymdpo0u/D8rTalX27BscOD+djul6FQ8fq8N83vTTM+10XW0dHyj/TRgGBf2jxF7yoNV0Uml86h2H8f/qTTdsVFbNijj1egbyy174/hrFAdsBEaOl5almDVvoy80ga8mxqX+Lbcw9gLQhPatg1ivTaMXim129FgxD4vOMYu2LTGsQw9j/+LHtVFhNp3DvMeP487Kpoblu6gdGZSBQR0uUB0T1TYsGx0c/JaF/BVQ/9bD8f9zjD5rgVxBQdvrJxyyAS2oGyxY9/bh+Wye6ffAstvP2Om+xTcmDNpfsW/1cdAGufdMqF/2cHzIB+RIv5UmV4D8lRSpd3IGZZokjYLW6aCcO+eubVjvKaCHjdpaMQ+W1pbG7WVBRoQQtWSgKta+dS3YTgQJnggz9qoPm5IndTYEA24cd6aJfLOD7gM97GwPkbymse27KtCPc4tC7mUvm7t66P7KTk79of60J8unFQpvn+Lw4156vtJN94EBIjpEfuhl+gOYm03g7QuRKG/wpyj7vtBBx8O9MNCFdi3F8MPb6T7QTcc3i097XEMqbFAxm3IkfnwY74E97HH14H16suYk68TTaYHXh9n5lW56ujZzMFmoms7Uj7vTTHqshw6Xl56HNxN6HTS7b/HJup6Ts+QxoXyq5vOl0pZPMNC+kx7Xdr7w4ySFVjue/eC80fyeD3H4/Cxz5Jk+4GXw+eqFoH9/kuRVFesjxYu2PmsbzCQZOe/Ev1ubLyevq4Oel3SUrS4CrcD9LShXpzn1ZA/ex7fTvc/LwM/1hTsvm4sy+aYJ6w5/MW29LmxmncTZyjB1pW0r+sf6bWtRefVHSL5vQtuxivn5BMrl83C7goZKItxL74Fy/whxMW9C3eRZsp4W1c1K2zLg7NmGpbyPx/ew+YmLFJrLS1fWd00fXKT3K910PzREIm+Ct4bocHWz/eEoOi2oDwL6OIM/6GVf+056DnTT8as03N1WNQMhR9TzBToe2knvyeLxy/nveXgnobM6fMppvJ9Ndpx7nfN/C76j3yAuqL8J0fuEl56HuvE+vpNQMo/pr7TioL9RW25YxqvRN5Zb9kvEX8M4oKHebSJ34TiHD3jZ4+qmx3ecSX1hjDscnD9zVDFRSB6cb5fDr4Ol01O5UVB1jmn49RSjOhxwYlufI3pgM3seL7Wh+RsoS5QvLGxHGw3KoGEdLqE5z8UnttPt6mDotTwmUgw91F3sozPQolbdeEhH2P5QNz1dpXQ+6MBXPcOHJdpfqW95bXvo7trM0IU8JosNNwlCfQlmr0E+7cX7w4hhmUaeuYjerLGtF8CG434zhTdfYXDZba1Be6nJixBiIRmoirWv2YJthwPHVx3YWiEZ2MOeZ8DZ2gLrLHQNl1+24sHaDOZ7HLC3jZZ1eaZfK3/DRGfgrdqLmaLxySRzn/cQu5zh0u+C7NtoQp+pXavK1fz891Zsqhn+lGKgvP75FHq+lIZnJkn8UcERmiKbucTYIQfm2RQLU6FhXg/6WwPzn08mpytP9va20bIOLLtH518o49lkgjtVlvXN2a0KJmCuagwGLJ22D2Yr38kMTKOj0HL/auR3KYO88mYB9YsubPRh22BC/32EBDZU88JySvxeJ48ZtRN48RWS1zQ8Z7JkLr1B8OsapiuNj3z45SSFjXb6tqr4d1gxvZNgsKqMVtq2RqZnKxtXWVRez/ey86E9HH55dfPzSaM0NUGhwCw6+WYrju8GufRuhszlfmzlx4lL1NOiurmOtqx9qmYfZ5NMl9vRSvtuIV+5GVZtZo5C+WbTTB7zF134/zVDJpMl+4ilZuU8+bOl/+3RUGvyP/i1DrY/PmS8n/+1j+ODx+f/+vdXTeZsEBf0DxSsOw4SvFTcX/+WciUYtOWGZbwKfWPZZW8cfw3jACEmL+goO4JMXc5w6Rd9OMw5Ukbnjnl5ppM15yazWrnhUHWOacigDp2tLZCfJlluCzMjpHPlpUuULyxoR4Zl0LAOl1Igf772MwCduX8Hk1KZ+ZDP6wbpLDJsf9TpW7dR/3vqBmXK+RGSMya0rT7Y6ka7p0Dq/NAK2tqNtBchPrlkoCrWvnyCwb++l3sfCpEqKGhbHahAMj8HV5NE+g5ysPTnPeClNxAtPUlUUNTKPU2XuebkVZLo38l9n9lOd3+ISV3Btr8ydXAp6ffycHvLoilzhauzQIie9nvZ3NXD4M+TFDY460yvy5G/Csr6qk9blPmpeyTzzFEg+fNKHg8e9OJ9YohoZYuG7I9qqOikf127ZIm03dZUuRvcWnxhxVx+NfK7tKHzKQqtVlxHbWimFJM/SgBpZvM15XQbQIHC+8D5AXbedxfbv3aY0FkdZYunMvWwnkCERE7F5vVj2wip80MLLq6W1baqnlJblbqXPQ3La9Xz80nSWryBUZi5yDgeAoMebOsShPr2sfMzAyTKo4wl6qlR3aykLRef7Fbvw4xSfqJ6g323HnUoiH+3iv7iEbyuzdz1fLp2lYpf5xblv8xwP33bufev753/2/y1qhfBNIgLnmN+PA9C4umD7PvqXQxcqLrr07AtNyrjVegbyy574/hrGAeA0L7N3Ps3e+j5UYTkVQvOo6PLfLOtgtJS+ZdzvQL5WQxqcxGjOhx/Pw/NCpXhnrXSLpcq3xrGZdCoDm+SBuk0bH8rYFSmkCDyex3Txm30P6qh5hJEAitpazfSXoT45JKBqrh1zAwweFbH9IAL/yOgjyXRmzVsfwvJk+Mkr23j4N8fwf2ADoyTmgFtdxB/jxPnd8L4tlR9P22ej7E3Mkw9ayUdHsT79EXymGi6vbKGcoeK1qrWnc4UupCmYLayr1cDVJwnXLQrOVIvj2MdipO5FMPz5yhD3z/MK38ogKlqEFrcA6k/FDA/6KG/s/iyhWBn1esiZiKlu7jbIDnOeBK2fdvPkUet9e9a36aUpuy56RuOE9ylkj8/grfm7vWSaWu1E+jVAA3fMTvqtRTJn61GfssU1Mc01HrTngJRLuZVHI9aMb2dJDQDECLxdgHzg/vwbSqVk6sdJZciehJ8L7xB5uIo1vQIgweOc/F9MJnqH7koQuiCjnmrHcvVJNHvLyxN47aVYPpPoO0I424FNvnY92C9tlUpL8+T9lJ5TZHNxgm0rnZ+Pt6aWkpTUb8TYGLcg3VdmlOBofmBYX76FEMnJ8k/ZqNtvpiM62k12nLodb2mfh2V76iutO8ug3W9AoVZUv88QvSCBf/GelGpZCZCcmZh/icuZbl0yrOy/VRrEBfMigIfTHPqJ+NMfuDG9tlKSTVqy43LeBX6xrLL3jj+GsaBBwLE371E7Bt5oj85zOFf68Un31XnDiPaV0eL9dLZj+dBM4U/phYNbIwY1uGFaXLrNBzDxRdNab37sM43fePyrWVUBo3rcPUoVhfB3aphOo3a33Iod7vRWlXjMgUSP0qQbtbY16mSezNanF2w3LZ2g+1FiE8qGaiKW8rk4yMk8mbs3w1iP+/lcHga8+4gU9ksUyEn5j9ECf0EIIG3P0TiqgXXk8c5/i2Vycl696uHCL00jfJlP1OXs2SfdaC8E2X46eLS8d+kKHzOTSwerv/biwEvg2fzaIdiZLNTBHebmQ4fpPt5SP44QuKDNtxnsmQvT+H5fJ7k8yFqX1Q/8MMQiYKG59ks2VePo12pfqlPAm//CNN3Ogm+miX7ahDn3TrR8NCCfcxrdRA8ESR4wl98acPJw+z5L6HatZZO20yapv0xstkYfQ9C6r8PcnhmdfLLM5Mkc2ZsT8WYGKh37z3E+G9zmEyQunB4/mQ/5Btk8gONvjOlcrhzmpEnij8bMxSOMn27Hf+rWbKXR3HcniY60qCMShLPJ9GB3GsRFq1p2LbG6XlqHN3sKB4vuo+5NxsMPUrl1eYdLZWXQip8hN6Z1c/Px5eC1RsstutDXViuJgj5uuk9DzDA+FkdZcco2UyWqe9Z4Gp5uyXqaTXa8g8GCF0ooJXq97imk5rvvCvsu8swHj5VnPYaz5C5PIz9jrnaVaoUj5+6vZT/M31oH0wy9ERohfup0iAuDJyMoq93MHo5Qzbeh+W2wvwmjdqyURnfeN9Yftkbxl+jOPDbISIX8rT1xMhezjLl1ci/FiEUXrj/+vKk/k3lyKtZss960ApJhn9UmYq7HIZ1eLKHwRd1Wnb4mcpmiX19bsEUU6PyXcSgDIzqcLXk03msQ1PFdN4zy+Q/HV6UTqP2ZyzE5G9zmLf6iZ32g1GZAswMkXjThMmUI/ViORXLbGs31F6E+OT6i7a2tv/I569vmoQQ10tRFFav3anYdmnwZpRE9fc9NrlwfTZB5MXi6d/57BsEH5xm4L49LB66NdjHsmnYdymkX0osvtjYZMfZkmP8bKp2yQLqFjvqlcmGx1e3ONBIEb2w6AjXr07aAoksLiLcZRvCtstC/qVJFqf8xvN73TbZcfxlum45rH4ZGbcLrdMOZ+uVTy3j8vrw8rN2rGoMaLXh2AipeuW7ZD0Z182y2nKrDfundCYb1NNq16PW6cQ8O87k67VL6lO3OLD8Obpo/ZXsZ+m4YNxXGpaBURmvQt9Y/npG8dcobxr2vWZyJ2vLYxlabTgseaL18r5MxnWoYe+EyUb7NyjfxQzKwKgOr5uHsUv9aG8OcF9XonEfnWeQvhUyLtPGltfWbqC9CPEJJANV8ZFY1YvUumwEzo3ias2TupBAN2nYHrTAhQHuq/OEUVRULkjnf79FiFV382OAWE0SF8SHq3qgKudsIT6pbrvjjjuOFArLnSYhxOpoamri5rY7nTM/m+S9O9to+3wbn75tlt88P8j+g89VTasV9dxx12e5mv4N0bjc7xU3z82PAWI1SVwQH64m7vjMOq78fpLJi0ZPKIUQH2fyRFV8JORpihCfbBIDhBBCCGFEXqYkhBBCCCGEEGJNkYGqEEIIIYQQQog1RQaqQgghhBBCCCHWFBmoCiGEEEIIIYRYU2SgKoQQQgghhBBiTZGBqhBCCCGEEEKINeUv2tra/qP2QyGEEEIIIYQQ4sNW/vk6+R1V8ZGQ31AU4pNNYoAQQgghjMjUXyGEEEIIIYQQa4oMVIUQQgghhBBCrCkyUBVCCCGEEEIIsabIQFUIIYQQQgghxJoiA1UhhBBCCCGEEGuKDFSFEEIIIYQQQqwpMlAVQgghhBBCCLGmyEBViJtOxf1kkMAhZ+0CYWSrB/+JAL4dtQvWGqlfIYQQQojVtryBas8oU+9myJT+Lv0uTuxUAPem2hWXaTBG5t0pRntqF1ynUvqmhl0LPnY/O0Xm3Rj+0r/VgQkyl7NkLk4QPjVFJhFAXbDFEmrKofw39ay7ds0aKrZdTpy7bCs7XrVNdpx7ndivt8xXxM3oxQyZM+WS++i4n50i87sxPK0LPmX04nLKHWi14dhrR6v9/Ea1uvGfinPp3QyZdy/xxrlR+neXa7cmffsD9H3TStPvx6v3UMNJ+HdZsr8Ls3aGO35i1W39X6eIRfpxLqiLBgZjC/peQwb14+vtw/WfIfVy7ZIK5/AbZLNvEN5bu+T6FGPGFOFHapeA7USczLsZYoM1Cx7xc/CbNlp0g/odjJG5OIr7JqT5k8FF+GKGzBtj+GoXXbdiXF6NmGobmODS5SyXzo0SPnOJTLSvdpUPnf9M4xi5/DZYW0b9xDJZMmf6F672YesZZWo58WW1PBkjk80Qe7J2wWIfblsonmsWxaTrtPx2AVqnE8eW676iEUKIZVneQHWdCaXZhKkwi/5HnRxmtC0u/L+ME+isXXkZmpowNSuY1tUuuE6l9Kk7+hnbX/m4qVnB1NyEqfRv56dMJILbOfhyHvUOncg/DKFXVl9aTTmU/3K5fO2aNRz4jgUJHvPhqF20XO4jBE8EOVL/umOVNWG63YSpuVxyH52mZgXT3TZ8xzxVg/xi+pTmpgXr1tXpI3DiCKtabK0exqJ+3FYT6V9Hib6cZHa9Dc/QaKk/LEyfe6NC6r8fxnu2dkfVxok8FyHyXASD4c6HzERTs4n821GiL0eJ/j5PyxYPx0cC2GpXrdXUtKDvNdSwfnxozReJ/KCXydpFVcafHyby82EiJ2uXXJ9izFDZ9r/WDodceLZaMDWbaKppdq4vKehjg3Q/v/DzBZqKbaLpJqT5E2G/E9s9JkzmdrYdql14vYpxeTViqvUeE4kfbmfwNyZUkgz/eJVGDjfA1Nw4Ri6/DdaW0QiR8DjDkZGFq33Y1hXztmR8WS3PRRg+OUzkudoFi324baEUV+pX84otv11QnEXSe91XNEIIsSzLG6iW5N8aoeOhDjr+831s/kGCvMmC65B/fgCh7u4jfDpO/FycieG+qicvKs6BUWLn4sUnMrdV9jm//FCYiXNx4ucmCB9yVg1KNNzHxoidixM/M0agp96zlzIF23drn75VDP1jhNkHAhzcqsJ7OtP/VjVM3eQmcCpG/NzST4vny6H0t/OJ0tCi1Unf8ATxc3Hip8P0lZ6w+YbdaM1As4b7XBgf4BuOEz8dwDcwSuxcGB9OAqfjxIcrF8jldZx7A0xsLe5L3Rpn4pgTjNavu/8l8rjJTfB0sfyDPYtP/1pPgLEzceLnYowdcy94Ama0bFVcA2WLj4C38d3bShqq2s/eABNf11BQ2XYuTri3tHKnj2CDcljYhn3YK4vmuQY82G7XGX98Mzsf9+I90M32hwdJzFno+nbtAMeJpjbRZFLm6yzca8dXaicTJyrlpW1sp31jpfTq5gkAO74T9fvEctIPC9vCwr66WD7txXvAi9e1nZ0vpjFtsOEqrd84jQupj/UzWhsbGtXPJjeBUw7a1rWgPVKVtr0BJs5NEHjSz9iZ0vobNdqtWqXNGeRr2WVzDUwPOPBXl0mvC5u56t8wH7dcX1RQ7nfWxKZK3IpF+hceawVpNlq27Px8DPh2tKPkEiRmTFg7q5/mGfcpGrZRJ4HTxbisbq2KowaxoTq+1y4b+nGEvD3Avi+1UPgfKVLp5W233DpcEGMH3ZX4dm6CwPzTLx/h6n5U4j5RKpfq9rOsNlivjKxoD2i0a1boCRI7N0b/1vlDFc87kX6sjfo8LDqn+x9rFDWqVV0jnA7irr2GuM4ybtw24kwM9eM/FSvm26rRrrWjWUsbGhzvZreFynoTBB9btLRSTkbXSzXXKr7yA4fqdtEbJn46gOuxYryNn6nMGvINx9l2Nyj3u+evOYyO7RuOM3HMXWqLMUYHnKjzbW6C4IJ0rsL5TQjxsbGigWo1PdhL9B1gg7X4NGT/GLGQj22tACYsO3zzT17sQ6Mc329Hu9tEk8WFf8fCE5PnhRjBXgeWZmC9hqM3yMSwC1Dpf2UC/6PttKwrLnMdnWCi5kRclp9Jk19f+/StZGuA+C/9uDYqALRYXfj/ZQxP9TJrC2BCfdCF/5cx+g0u3hdzMXo6iK/TUrzL27oNX2iMYNVJvJraZsHygIuDPTba7lFpoQV1gwVLWyXlapsFywaVlgVblhmvv2j/Rvlv9TD2L36cD6oo6xRs3/PQXvW023YszsRRF+13A80qtkf9TJzpRwXUgVhlGQrao34mTtcO1m7Q1QTjF8D2d0H66tRJMQ1dtKGTuqJg+06Q2AseyKVJzeQokEdPpUhfKdX1T/twqAWmUzpNG134f1aabrs1wOiQD5uik0rNYrb3MbwoLzbs95vh7ejCJ6QzIQYOeDn4dO3zv1I9tbbM/7/tG372fTqPXlDQ9voJh4rPJ9W2Sn0uylNvkIlnXYCNwLlh+r6qUkin0E0arqOjxalay0o/0NpP7Jd+ukploGzxERwPs3Di/NLUgRgTA12oc9Pz5V7stzX2jxF7yoNV0Uml86h2H8f/qb9+/ZTTZgG9nLZoqZ2uV7FssOL6phO1fC9FbcOyoa3Y3422XW7ZAPwhSbKgYT9Ufm6s4t9hxfRmasEMDNfwBMHv2FCupJieU+kamCA2UKw/zwtj+B/VUN6bJndHF/7OqlHuUmk+PVqsi3rLric/tzwf2zaayP0+wtDvddhgq7qJsESfqu1H5dhAjvRbaXIFyF9JkXonZxwbcBEeD+LbYmY2PU3hs12Vc4RRPc1vp6CnpimoVdsttw73jzF2tIu2uWlSaWh71M9YyFbqDxbU9eUVVdo2WKg6JdB0v4eD1jmmr8wV+115NkS9NrgoHtQpo+p49us8fM6G45FyP+nH0WnBdHWSZKM+X+4be9sopFNM04b7qcbnyTLbsVGO925DLehMX7Ny8FsalYeI11fGi9rGfIwt5tH6iAenWjrKgrL+CNtCab1trXPo6Tmsf+dBqzpXG8WkChuBkeOldKSYNW+jLzRRvJld3S7UNiwbHfT9nQ3em8X0V3Y8x4L4gNw7KfSrUHg/TeqtNLnysXttmN+bLh776ATxY5Vzm7brIJ62PDoq9v3Hif1LH+2FHHPrNZxHw6U2sArnNyHEx8p1D1RBJz2bh3VNKID65giDPxniyMMddDy0mfE3wbShHSduPJ0WTFeTDP0vm+lo387I29X76ce5RYE3R9je3kHHF/YR/SOYO930Y0f7lAlyFzn+v3XQ0T7A4E+OEHqtNvCWXIkwdCFf/+nb/4xy/B+GGDywmY6HOhi8kIP1GvYecPZsw2LKMfnfvkDHQ5vZ/pMkBZNG10D9bwsqW/rJZrOlv0ul6cZWVDPwzjg9D3XQcWCQoR8Ocup/wtC+EVJXgaspRh7qYWh+TzrRffdy719v53D1AWqd7GXn+eIlsn6+6gnukqr2b5B/vu3Cth70l/bxBVsHX/AkmG0u78NZrL/cJIe/0EFH+3aGflvAtKkL/16wb1AxkePiP3TT8dBmBn40xJF/Ti6+UXCDUk8MkShY8fy0OECucOLfrcHrw+z8SjdeVwc9L+koW10E9BCHz88yR57pA14Gnwf0cQZ/0Mu+9p30HOim41dpuLutePG2QcVsypH48WG8B/awx9WD9+nJmuNpKLdDPp9b8ClA6uw442dTtR8v0jQzzhe+0k33V3YSnQH1/tp2tjhPA88nyTdrONAZ/4cj9Jae5nY/FCWNmbYty00/OAe60OYSDJbL4JtR9LttOKumzVdTLEGCJ4IEIzEmdlsovJ0gMlNM49xrg2x+uKdY7r/SMW9xli7KKtTfhOh9wkvPQ914H99JKJnH9FcanvOL68c50IV2LcXww9vpPtBNxzfH0dfbcA2Vc1Eg9X9sZ/NDHfQEFh7HcNtllk3RNJHXcqhbPMUB49Y+7BsLJF9OUZhfpx93p5n0WA8dLi89D28m9Dpodh9qKablXvayuaunWM9/rD83b1Ga+yMk3zeh7aiz7Lrzc4sbcGBtzpF6aZzE80n0dRrWbyzMaf0+tbgfzceG1gShvgSz10ozBn4YMY4NA24cd+eIHtjMnsd72OkMMTkD6q4l6mnAjePONJFvdtB9oIed7SGS1zS2fXcFdXh/C8rVaU492YP38e107/My8PPlfWnFVLjIwb/ZQ49rOzvDKdiwDU/N9w8bx4M6ZVRt5jCTrxdQv+gqltGhdtrW6SR/nmjc5wHLpxUKb5/i8ONeer7STfeBASKG2Smeg8r12NO1mYPJQmXa73WV8eK2UYmxRYXXQ8Vrkn2VM/b88T6ituDs2YalvP/H97D5iYsU5s/VRjGpmoZ6t4ncheMcPuBlj6ubHt9xJuvcBKY5z8UDHexx7WHzjxPkmy3YeiDyQy/TH8DcbAJvX4hE6djlmNfz8GaOvwaWXb7584Hpg4v0fqWb7oeGSORN8NYQHa5utj8cRacF9UFgFc5vQoiPlxsYqIJZKT6dA9CvmGl/0EnfKxkyl7O4N5aXaLSsB/40zeAMgM5guuqstF9DXQe5KxdLTysmSep5WKei9YwQOpumYLbhfzVL5lIfXRtVTFcan9VCXUMk3lew/V2Q8iwdAF4H7UsO9p3IkMlkCXy59IRjHdg+a4Zrs0yXvmOm/2gaHTCr9b+Jl/9tqDgV8oAX74EBIm8DDBE5n4MNbmLZLJmQG5tFIfd67dZVruqkDL+3eIOq92+Qf0+rGcijJ0tPA88m0ee/dmsrDsBz0xQvU8r1Z0Z9EEbCUdIFM7anpshmLtH3VQ11nb6y7/4ux0yIPT9OMLdxH6PHKu2unD79rYH5YyZ+r5PHjFrv+9MzecxfdOH/12I5ZB+xVJY9M0nijwqOUDEvY4ccmGcXPkWDWQoFaGqqTsPKzM2VC1dn7t+LdbDQ4jxFfDvp6DpMFJ28uR3X0Utk3s2QvexiPgfLSj9onzJDczt95ZckDW9DRaHl/poVS8wbHTh2OHD8rYb5yjgH3b0k0DCvB8XaN/+ypdFOFZSWSnpK9A8UrDsOErxULPP+LY3Lzqaa4U8pBmZKH5xPoefBfE/58nGO/GxtjooMt11m2ZRFnkmgm224esG134aav0i0emC8t42WdWDZPTqff88mE9yp4tjbRsu6PNOvlZ+u64xMz1ZtXLEozc/3svOhPRx+uc6yG8jPrUvFv0WDfJ65vw0S3AP590HbuvDiu36fWtyPrjc2uDeokJ8mWY6nM4N0P7Sdnp8Y15OztQXWWegaLr+UzIO1eYV1+OIrJK9peM5kyVx6g+DXNcNzYLX8vyXnv+Ot/yCFXorb1VYaD6oNTqYotFpxbYW+rRqmmSSR88Z9fnwyydznPcQuZ7j0uyD7NprQy2VXVzHWVNfjZHKaco1fXxkvbhuVGFs09+fc4rr4iNuC9qma/Z9NMl0uCKOYVLUPCDF5QUfZEWTqcoZLv+jDYc6RqlsHBfLnS//776X/LjpfAT0a6oKYB0Mz+sLzQSFPYn5plZk5CphQPgWswvlNCPHxcv0D1dZ+bBZgJsU40P9PR3A+qJB+/ggH921n4EI5euaZuwbc1jR/YWGrfknP+wUKgKm5doJrnvw7MOnr4N6vdHP4JxESfwD1yx78x2qf2VQLsecHk+SarTiqTo7O4eN4vqwyd+E4B//rHrafrIS3/BywTqGlfEextfiShsLVxU/NAJjLMX5yvPQXYfw8gE7ov3yBzV09DIajXMwrWPf6Cc4/CVoplaba7+EYMl7fKP+zV0vPiea3V2iaPxmV6q+5Zb7+1NtMxRNYDjjbS8e92+n+/hCRCzq02vEMBhY9VVsVz+xh4Gwey1531XSnNLN5UNZXPZW8DaBA4f3KR2XqUBD/bhX9xSN4XZu56/nqLxCF6Gm/t1iHP09S2OCsmvpXNs7FmQKmDbaaacg2gucyXDq9Gm94rJOnstYAwaNOVH2cI75uNn8mQiUHy0k/5PJ5+NMrHO47yMHSn/eAlyMN3o+SfvFe7v3rezn86xy0WnFYAHLkr4I+eXh+Hwef8OI9cITa3XiO+fE8CImnD7Lvq3dVxYbF0u/l4faWRWkuXK0/0KtmvO3yymbe+UEm3zRh3TGK8wEzud+OE6penswzR4HkzytlePCgF+8TQ0RPzpJHKV14FVmV+k9UG6XZaNl15edW1erBugEK/z9o0zQ0TaPpanHKad8S00Xr9qPrjA2TuTw0Kyz6mvIS9ZTMz8HVJJGavtYbiC6/Ds8PsPO+u9j+tcOEzuooWzzz02gXKJ23qilKVYr3tqCQZ/bfqtdYeTxYIPAKqasq1kf82DaYSP16kMQSfT7Rv5P7PrOd7v4Qk7qCbf9xwoZv0y3GmgX12KJQPrtfXxnXaRvL9FG2hVy+dv9mlPITVaOYNL9+UWjfZu79mz30/ChC8qoFZ3l67fX6dW5RzFNvM8G1ufkbCsuyCuc3IcTHy4oGqk0ttuIUwJ+OMfV/etBMeRLPFU9MiskEV3Uu/mKEZLMTZ+m7kDBC8m2g1U7wqBtnT4D+L1cN3k5GSeVAsboI9jhxfieM26rATJKR831M/GuGzNNdFKK9DI6kyANN62pPxzWe7+bgSwvvsynNJiBP6qVxxnULvi9V0jByIUUBFfuxPpx73fj/0Y5KgdRk/bf1zZdD6c/vtcGOIPF3M0wc0kj+8wBDv9aLA3CTOv8UjnUKaoOf4phf53MOYsf66BsexV49EMrPAaCsd5deCb/E+jWM8j/+coocCu3/WxjfXid9L7iwzk8nGiHxdgFa7QS+58TZ4ydoV+Fqild+BH2nL5F5N0jX1Si9T42Qeh9Yt/iCabVEvnaQaE6pnJwJkXi7gPnBffg2Aa1Ogq52lFyK6PybCxXUxzTUVrCuV6AwS+qfR4hesODfWCkH61CczKUYnj9HGfr+YV75QwFMlQuisqGnT5FeZ8UTCePbZSu+AftUEMeGOVJnaqbHXZdynjz0d5by9GqWbCKAam1BocDs6yFGXkpgOarN30BYbvpDF9IU7rHhvCfN+Mlx0ve4OPL3B3F8umbFGpH+CMmrKtsO9aOW0qh+yYk6Pc74yTTqI0fwf9uxaCqWWVHgg2lO/WScyQ/c2D5bm6JK/YQupCmYrezr1QAV5wkX7UqO1MtLT3c32na5ZVOhc/jlJIWNdmyKTuKZ2mmPEZIzJrSt2yA5zngStn3bz5FHregkmP4TaDvCuFuBTT72PVjvsraSZs+T9lKap8hm4wSWKIuV5+fWpH7XhrZO5xVf5eV1Hf/vcVLXVKzz341sZDmxAZS73WitqmFs0MeKU44dw8UXGWm9E1wqfe3DqJ70sSR6s4btbyF5cpzktW0c/PsjuB/Ql12HvhfeIHNxFGt6hMEDx7n4PphMCrxdHBxonX3YttjpO2Zf1PfY2MXoYypgp/8bVswFndSvFq6ynHhQLqPFhoj+Po+6w4XVlCL5z8XzbuM+72PsjQxTz1pJhwfxPn2RPCaabi8urf+TJyFSf6iJh52Vs+j1lbFBjF1w7MU+yrYQel2viReOyk1bw5hU5YEA8XcvEftGnuhPDnP413rxiWapDlZCuUNFa1VRZyIkZ0DrDBZfmrXJR8CuUng7sejGpaFVOL8JIT5eVjRQNX2u+Fuezl02Wv49zfj397AnWAyBQ79IkDMVpydNneii6f3KVKzDPxohlVew9vgJDmwj//vqsBmh+4kRUnMWnEeDBL/nQL2aYqTfS4JBjr84zdxfOQmcyRIbsqP8McHw0zXfGalj8vHDjFdNZSlPUXWEpsieOUJbofK0VO/vYfCsTtMWH8ETftybmtDPDuKt+Q5c2Xw5lP/sGrw8SOTCLMqDPsZenWKsR2Pu7XFCP0oA4wz/Ok2hWcN94jh9de9cjnP4nxLkriloj/rwWWcXTsX52TiJHJg7/YQH3EuvX8Mo/zxfvFNPq4O+E0E8LdOk5m+D6gw8PsjkH5uwfSdI8Kgbq0ln8h+8DAGDT48zfc2CcyhG9kwA+3qdxH8/XvU93NU2Sc/3x9GvVT4Z8g0y+YFG35ks2VeDOO+cZuSJ7uJU5WcmSebM2J6KMTHgZDx8qjiNLp4hc3kY+x3FGwAAyR9HSHzQhvtMluzlKTyfz5N8PrT4RHu2l+4nx9HXO+j76Vjx7Y3WOS4GvfP94UYV89SG59lSntanGPlBL/rJEKd+O4fmnSKTyTLc2UI5B8tOf8DL4Nk87YdiZLNZYofamXstwpDB75VCcYrb4EtpTBtdBLxqMY1X24vlno3RZ50j+YvFd+8HTkbR1zsYvZwhG+/Dclvlm5619VNOm3YoRjY7RXC3menwQeOffikz2HbZZVMt8Erxu+VvTjJYnv42L4G3f4TpO0sXuK8Gcd6tEw0PAeP0PDWObnbgfzVLNrqPuTcbtItSmtu8o6U0K6TCR+iduQn5ueXY6HvQUrppWfXxTIjk26B+yb3kWz8NYwMhJn+bw7zVT+y0HwxiA+e9HA6nUDr9TGWzxA5p5M8O0fuMcT0Vt5vGvDvIVDbLVMiJ+Q9RQj9Zfh0OhaNM324vtqXLozhuTxMdGYLzg4ycz6Fs8TF2ahTXtcXTIPOvT6P+YIpsdhTP5wskw4OVaaNlhvFgYRnVe3oVOpkkZzLB2wkOl/bduM8PEXppGuXLfqYuZ8k+60B5J8rw0wBu+oeC+Pcv+NIOAAM/DJEoaKV4eBztSvGmNVx/GTeMsQsPvdhH2Bb4wQChCwW0Urw4rulV52qjmFTlt0NELuRp64mRvZxlyquRfy1CKLxwtaWM/yZF4XNuYvEw7tKxU+tLxz7TR/vVSQYfr0ytXpbVOL8JIT5W/qKtre0/8vkVTc4woGLrVNHPJuoGJ3WLDeVCgkavm1G3ONBIEb2weGut04l5dpxJo+98LoPWaYezkw3SoGHfayZ3stHy5VCx7dLgzSiJ2guCNWCp/Nu25EnUKX8ANtlxtuTqvzDIaFkdiqKweu2uZJMdx1+m67afWobtaSV5WcExr0uj/Rul0WjZAqvR3pd7vJX2Cw37LoX0S/VjiTGDbZeV1pUxjltG/a2aQZqNlt2E/HxYbkoMaKRRP6rDMDbQx8S7bsy/HmLP46Ga+jCoJ6P2v8w6NGpnxlRsuyzkX6pqh0Nxso9A5K4OKi/RX6V4MM8gz3WXFct27kf3seeZhWuXqVvsqFcm6+yPBvssMSrjFbSNhT66tkCrDfundCYbpHl5bWW167tI3eLA8udog/6zTEblYLRMCPGxs8oDVSGW50O9SBVCrDm3ZgzQsA8GGP5qniP/ac+t+TSnd5Q3vmvHfGWcPX/jrf+Cm4/C3lHeGFQY/uudN3FGzmr6GLQFIYRY41Y09VcIIYT4xNrr5uB/zhN5qvfWHZhcSZE4OYTXtYYGqQDJEIc9h2+RQerHpC0IIcQaJ09UxUfi1nyaIoRYLRIDhBBCCGFEnqgKIYQQQgghhFhTZKAqhBBCCCGEEGJNkYGqEEIIIYQQQog1RQaqQgghhBBCCCHWFBmoCiGEEEIIIYRYU2SgKoQQQgghhBBiTfmLtra2/6j9UAghhBBCCCGE+LCVf75OfkdVfCTkNxSF+GSTGCCEEEIIIzL1VwghhBBCCCHEmiIDVSGEEEIIIYQQa4oMVIUQQgghhBBCrCkyUBVCCCGEEEIIsabIQFUIIYQQQgghxJoiA1UhhBBCCCGEEGuKDFSFEEIIIYQQQqwpMlAVYq1rddN/IkDf7toFQohbTqsNxy4bau3nQnwMaJ1O7JtqP/2kUbHtcuLYIr1ciBslA1WxprmfnSJzcRR37YJblP9MhsylCfpba5eA79QbZN6dYrRn4eeugYN4tragv7jw8wUGY/Pl5Bx+g2z2DcJ7a1cS4hbTM8rUuxkypb9Lv4szccKNVrvecvSMMvVuDD/AkzEy2QyxJ2tXurlsx+JkXh0j/NMwgf39xDJZMmf6a1f75JH4tYqchH+XJfu7MM7aRTeVh9E3ssSeDTL6dAD1I+pja4F9aJTRY34CkVECnbVLV0rihPhkk4GqWNOamhVMt5toql1wizI1mzApVhyHbAsXtPpxPGjG1KxgWle9wIX1Dp3ID7uJVH9cq6lpvpzGnx8m8vNhIidrVxLiFrPOhNIM+mtRoi9HSfybCcteP2MveGrXXNo6E0pzEyaA5yIMnxwm8lztSjeX80sWTG+OsPmu+9jzzAiR8DjDkZHa1T55JH6tonEiz0WIPBdhvHbRzbTfjtWcY9J3F3fZetE/oj72kXuwj30b85zqv4+BF/NoX+/DWrvOikicEJ9sMlAVt47eMPHTAdw9QSbOxYlF+nG2ariPjRE7V/ukxY7vRPHz+JkxAj1Vz2A2uQmcihE/F2P0STu+4TgTxyr3nrWeAGNn4sTPTRA+5Jyfoldcz4V7sLjf4vHnN6vaLsbYoLvx1L5roG7x4Kr6yHbIjrZggAq0OukbdtHerKDtDeBeMJ2qku9YpB979aKNGu1WrVIW8/mNMzHcV5VmFfeTo0ycW5zX4rEniJ+LEz8dxnfDd4WFuF5zzJ734j3gpadrM0MX8ihftFMcqhq0YVSch8LFZaeDuG+r2qVVo11rRytfQVa199ipJfpaKQ45SzEhPuzHNzwx/xmdPoKl/la9L99wnG13A5+yM3oujA8r2gMa7fOJMIhZ19MfDfNUVTYGx1rRdg3yTW+Y+Lkw/t4wE+cmCOxlcZlW9rKC+GUUy50ETseZGOrHfypGfNhXXN8ojatxbrmeemqUpr0BJs6F8XX6CJ8utu/gMs9j2sZ22jdW1m10TgNQd/dV9v+Yi8DpOOHe8vEnCDzpZ+xM6TNAfayf0dPxhfWxN8DE1zUUFLRvldJR28ca5XMl586yem3KoN1W8hhnYthX1d4qdRw/M4b/saojN9xfsW2Fe+3Ffl/bPl67yMW35tC+Fcdz/xypySjJ5WzXsG/VxAmDcmycTyFuXTJQFbcOtQ3LRgcHv2UhfwXUv/Vw/P8co89aIFdQ0Pb6CYdsgI3AuWH6vqpSSKfQTRquo6OlqWQexv7Fj2ujwmw6h3nPcTxbLFhaW4qHGIgxMdCFOjdN6oqC7TtBJoaLQ0q1zYK2q4+DNsi9Z0L9sofjQ6ULoP1jjB3tom1umlQa2h71MxaqeWpakn89iW624Sqd+MGFZ4tK7s0U+fm1XITHg/i2KOipaQpqF/5fxuanDHteGMP/qIby3jS5O7rwd5rnt0Rtw7KhrXiyb+0n9ks/XRbQUzrKFh/B06O4AM8LMfzftKJcSTGdV9nWe5zwkxTLb+R46dgpZs3b6AtNUMqpEGtG4zYMtmOjHO/dhlrQmb5m5eC3tMrMjPUqlg0W1PVU9TUzs+lyX4sT2Fo+xsK+dny/DcsGlZZSTLDscHPQqhRX3hog/tM+HGqB6ZRO00YX/p8Vp2Dm3kmhX4XC+2lSqTQ5WlA3lGOPUcy6nv5oHD9cwxMEe22Y35tmeq6NrqMTxAbUJcui4XYG+S7GIwfub7dTKqVFZbqi+BUdK92kMIrlxbK1PuLBqZZqfak03vC55TrqyShN61UsG2x4ju5Dvaozt17DeTRMcCtL5L3ULtuKgy51IMbE0S7a0OfPabHyjIStAUaHfGxrnUNPz2H9u34cGy20qeXjW3F904lqKqV3/xixpzxYFZ1UOo9q93H8n/ohlyY1k6NAHj2VIvVvuYV9zCifKzh3zlvUpgzaeymPNkUnlZrFbO9j+HSxVjwvjOHf20YhnWKaNtxPjZXK16gfFNuW7Rt+9n06j77s9mG0nUHfqo4TRuVokE8hbmUyUBW3luY8F5/YTrerg6HX8phIMfRQN91f2Ul0BlpUG6Az/g9H6H18Mzsf99L9UJQ0Ztq2AANObOtzRA9sZs/j3Wx/+BT6/JNMJ/7dGnOvDbL54R68rg56fqVj3uIsXRiB6YOLeG176C492TFZbMXvz97fgnJ1mlNP9uB9fDvd+7wM/FyfT/YCc1Em3zRh3eEvXoz1urCZdRJnK8NUBtw47kwT+WYH3Qd62NkeInlNY9t3VaAf5xaF3MteNnf1FPP+x/qTo50DXWjXUgw/vJ3uA9109EdIvm9C26GSCPfSe6CHDpeXnodDXMybUDd5AA31bhO5C8c5fMDLHlc3Pb7jTNb5Xq0QN18TLVuDBE8ECZ+awrdFIf/7SUIYtWEnnk4LvD7Mzq9009O1mYPJQnHab60BN467yzGhh53tx0les+D4jqduXzv1h5q+9qco+77QQcfDvYzr4wz+oJd97TvpOdBNx6/ScHcbNiDyQy/TH8DcbALvgcGaqfwGMet6+uMS8cPdaZ7PU8/DOwmd1eFTziXLouF2BvkuyhH1fIGOh3bSe3JxmS47fn1zHH29DdeQukQsLyq8HmJ7ewcd+4aWTuONnluup56WShNNpE9+ge2ubrY/HEVHRdu11HmsWvGcVu4HXlcHPS/pKFtdBFrB2bMNS7l8H9/D5icSFJqrty+Q+j+2s/mhDnoCoP4mRO8TXnoe6sb7+E5CyTymv9LwnA9x+Pwsc+SZPuDlcDBRvRPjfK7k3LlAVZvaaNDeN6iYTTkSPz6M98Ae9rh68D49iQpYPq1QePsUhx/30vOVbroPDBDRl4oJRU0z43zhK5X2od7vXKJ9GG1n0LeqGZWjQT6FuJXJQFXcYgrkz9d+BqAz9+9gUsyATt7cjuvoJTLvZshedmEpreVsbYH8NMmzpQ9mBkj9qbwPDfN6UKx98y9vGe1UQWmZ355CngWn4NsoPqV58RWS1zQ8Z7JkLr1B8OsapiuNT7aHX05S2Ginb6uKf4cV0zsJBqvGqc7WFlhnoWu4/CIZD9ZmMN/jgL1ttKzLM/3aZGltnZHp2crGVWyqGf6UYmCm9MHzvex8aA+HX9bJN1txfDfIpXczZC73Yys/7iDE5AUdZUeQqcsZLv2iD4c5R6q8DyE+VCYsWxw4djiKb9H87RB7/kuo2M8btuFiX9bfGqDcCyeT01UzFircG9SFMYEhpv8ESoulbl8beKumX1/NU17KTB7zF134/zVDJpMl+8h85FhC45h1Pf3RMH70aKg1eRr8WgfbHx8yLguD7ZbOd558eZ91ynTZ8et8Cj1fzIdxLC+a+3Nuvv6XTuONnVuup56WTtMcc+VGOzNHAWDdUuexajZU88J+kPi9Th4zaidon6op37NJphd0kjnys5X2rn+gYN1xkOClYnr7t8x3OGNG+VzhubOi0qYM2/szkyT+qOAITZHNXGLskAPzbAodGJ9MMvd5D7HLGS79Lsi+jSb0mSViQsncfMUU2wfriv/fuH0U1d3OqG9VMypHg3wKcSuTgar4+GkNEDzqRNXHOeLrZvNnIqRLi8bfz0Ozgjp/l9tFy+3l/8+Rvwr65GEO9h0s/j3hxXvgCEu+xuD8ADvvu4vtXztM6KyOssVTnBLVSCBCIqdi8/qxbYTU+aEFJ5Rkfg6uJomU09F3EO8BL72BKJycJY+C8qnK+lal/hOJ9Ht5uL2lztsfPQQGPdjWJQj17WPnZwZIVF2ghPZt5t6/2UPPjyIkr1pwzk9fEuLDlifxw3u59687CL1ZQNlgw9HKEm242JeV9VUtv0WZn3pabTJXjAmVyacqTbcBc/lKX1MrzyVc5np7KVKHgvh3q+gvHsHr2sxdz5cjzxIMYhbX0R8N48evc4viR5lhWRhst6J8r0L8KlydXSKWL7aiNDayyvV0vWlaft7TzOZr+sFtAAUK70MuXyzf+fcltKooC56oLuQ55sfzICSePsi+r97FwIV6t34WM8znSs+ddRi2d0L0tN/L5q4eBn+epLDBOT9dNtG/k/s+s53u/hCTuoJtf/GrA4b9wMgS7aMhg75VzbAcDfIpxK1MBqri48fagkKB2ddDjLyUwHJUq0x/eTGFvk7D+Y9+3Hud+IZ92ObPRiESbxdQv+REnR5n/GQa9ZEj+L/tWHL6jO+FN8hcHMWaHmHwwHEuvg8mU+MLWogQuqBj3mrHcjVJ9PsL73vqY0n0Zg3b30Ly5DjJa9s4+PdHcD+gAwmm/wTajjDuVmCTj30PVn3Hq0roQpqC2YrnSTug4jwxRTYbJ9BqRmmG/PQphk5Okn/MRls5uQ8EiL97idg38kR/cpjDv9YpYEKpeyEkxIdFZ+BHr6A3W3ENuACDNkyI1B8KmB/00N9ZfDFKsLP+j9roY0n0dRqOE8WXzGi9AeytBVIXRoBxUjOg7Q7i73Hi/E4Y35b6fQ3Aul6Bwiypfx4hesGCf+NSkaPEKGYZ9cdWG4699kU/12MYP2YiJGcWxo+JS1kunfIYl4XBdivL98rj175erRS/XLQrOVIvjy8RyxdbWRobWOV6uu40LTvvxXOa+cF9+DaV+oGrHSWXInqyXL42fMM+nHvd+P/RsfilflXMigIfTHPqJ+NMfuDG9lmjc1yFUT4Nz52b7DiX8ZvDRu3dOhQncymG589Rhr5/mFf+UACTgoKPsTcyTD1rJR0exPv0RfKYaLp9qZhgwKh9GDHoW9WMyrFxPoW4tclAVXz8nAxx6rdzaN4pMpksw50tzJWXnS9+fyb/ORdHjh3H8+lJXnmnsumQb5DJq+30ncmSzcbos86R/MUQ0coqdQ2Fo0zfbsf/apbs5VEct6eJjtRM26mReD6JDuRei7BozfNeDoenMe8OMpXNMhVyYv5DlNBPAMbpeWoc3ewoHi+6j7k3G0zwCXgZPJunzTtKNjtFcLdCKnyE3pkBxs/qKDtGyWayTH3PAldL2/x2iMiFPG09MbKXs0x5NfKvRQiFa/YtxIftbA8jF/KYv+wj2GnQhoGBH4ZIFDQ8z2bJvnoc7Ur1y8qqnPdyOJxCKfW12KF28mcH6ekv3hTy9odIXLXgevI4x7+lMjnZ+BnJePhUcRpjPEPm8jD2O+YjjzGjmGXUH7/tJ3y8b/FTE8P4kcDbP0Lq9lL8ONOH9sEkQ0+EllEW9bdbWb5XHr+0Q7FS/DIzHT5I9/NLx/JaK0tjA6tcT9edphXkfcg3yOQHWvGc9moQ553TjDxR+rmzgJcjJ3WUrQc5fqwP+3uJBTNrag2cjKKvdzB6OUM23ofltkLtKnUZ5dPo3On+XpDgUc/SP+9i0N6TP46Q+KAN95ks2ctTeD6fJ/l8iBGGCL00jfJlP1OXs2SfdaC8E2X46aViggGj9mGocd+qZlSOjfMpxK3tL9ra2v4jnzeITELcBIqicNPb3SY7zpYc42dTCz7WHnFheS3C+AyAk9E3gljTA9zXVXVSaLDtUtQtDjRSRC8scUJbNhXbLg3ejJKo810nrdMOZydZOpUa9l0K6ZcSC7+z0mrDsRFStZ9DcZu9ZnInl7N/IVZm1WKAYRsGdYsd9cpk3f6zkIptl4X8SzXtfZML12cTRF4s7t357BsEH5xm4L49LLyMrNA6nZhnx5l8vXbJEgzjzuL+aPvpFGP3J9hs662b96Xih7rFgeXP0TrpbFAW5aUNtltpvm80fi0rltdYaRrrWuV6up40rTjvm+w4/jJdc25SsT1qw/TzSOl71v3ELntoGruLjoYvjDVuU0aM8lnv3NkXzeCeG2ycp0UM0tawzgy2WaIfNNTwWEtr1LeqGZXjjRxbiLVIBqriI7FqF6krtTVA/FkXaj5F4ryO6T/bsH0OEv33seeZ2pWFEDfLRxYDVsRG4NwortY8qQsJdJOG7UELXBjgvv+y3Ivnm6f/lQyOdDebPTVvWf0kuIVi+arX02rlff8YlwZsMJMgkSygbrWhKTqRr3XQW/fFUh8mJ6NvHEf52b3sDNQuE0J8Utx2xx13HCkUljd9Q4jV0tTUxEfS7jJnGPn/vEdLWxva5z7Nuv/vb/gX/36+8/O1fsEsxMfLRxYDVkTnzM8mee/ONto+38anb5vlN88Psv/gc/WnEX/I3s+mOf/SJPr/rF3yCXALxfJVr6fVyvtvf8Ev313Hp1vv5z/91R1cfTfKif/azVOv1a74UbhK7nKC6H+fIVe7SAjxiSFPVMVH4tZ4miKEuFkkBgghhBDCiLxMSQghhBBCCCHEmiIDVSGEEEIIIYQQa4oMVIUQQgghhBBCrCkyUBVCCCGEEEIIsabIQFUIIYQQQgghxJoiA1UhhBBCCCGEEGvKX7S1tf1H7YdCCCGEEEIIIcSHrfzzdfI7quIjIb+hKMQnm8QAIYQQQhiRqb9CCCGEEEIIIdYUGagKIYQQQgghhFhTZKAqhBBCCCGEEGJNkYGqEEIIIYQQQog1RQaqQgghhBBCCCHWFBmoCvGJY8d3LIh/v7V2gRBCCCGEEGuCDFSF+IRRj/bRt1slfzZZu0gIIYQQQog1QQaqQnyiWHG3QvQfvAzO1C77kLTacOy1o9V+3oC9N0DwqAd5/is+tlrd9J8I0Le7doFYKyQOiQVabTh22VBrP18RFdsuB7bW2s+FEGUyUBVrX6sb/6k4l97NkHn3Em+cCePrrF3po2MbmODS5SyXzo0SPnOJTLSvdpVV5Gb0YobYYO3ny/SIB8eDbbTbnbVLVsR/JsPUs27ASfh3WbK/C7PsPX69n/Dfe3jy9CUyF8O4ahbbTsTJvBsj8ACwNcCRXgfm/xFl0fPfnlGm3o3hr/1cfKyou/sZTVwi826GzKU3iA37sNeudKupabueY314rE1cfLFmvQ/b1gDxTIaJQzd2+b3a/GcyZM6USmsFN7rsJ6bIXhrDc6MDgTUchyqxeJUMxsjM50fFtsuJfVPtSp9stmNxMq+OEf5pmMD+fmKZLJkz/bWrGdsaIJ6ZYuynYcLHPLVLF1pBm19Yf0Lc+mSgKta2Vg9jUT9uq4n0r6NEX06S/ysHfT+NE1gjg1XrPSYSP9zO4G9MqCQZ/vH1jiKXownT7Saammo/Xx7PXhtqswnzF7dxI8NpU7MJpbkJGCfyXITIcxHGa1dqoM/aRuGdJHt/r2O6px3HI9VLbbi/ZME0k2Tot2Dd2sLcr4boDerVKxWtK6bBVPu5+PjYGmB0yIPtthTRF09x6v/SabH3EXxhiQu7tW5B23Wj/WWKkX4vk7Xrfchc+7dhyb3C4I/q9LePkKnZhKm51NM7fQROHGE5Q7PJAxGS62y4D9lqF63IWo5DlVi8SpqaMM3nx4HvWJAjyynsTxDnlyyY3hxh8133seeZESLhcYYjI7WrGdvdjuW2FCN/cxf3dYVqly60gja/sP6EuPXJQFWsaa4BD7bbdcYf38zOx714D3TT8b8MkbxmwXWoeAfTNxwnPuzHNzxB/HSg+GSv00fwVIz4uTixUwHcm4AH+xk9FyO4v7J/57EJ4meCpROAHd+JMWLn4sTPjBHoqbp/2eqkb3hi4f5Khn4cIW8PsO9LLRT+R4pUurLMaDt1dx/h03Hi5+JMGDwlqqw3QfCxRUtxHgozUS/Ni/hwfFEhdyGB3mzFPlC1qDdM/FwYX/nfewNMnJsgsLf0701uAqdixM/FGH1yYUq1je20b6wcV+sJMHammN7wIWfN1CgP1s+Z0NMR6J8kedWM9tWqZ6p7PbTfA6nXQuiA7a9Umm4zUbw8rMrr6SDu2yqbgXFZGy4Ta9fudiwmnahrD94neul9fCdHTibJNVnmn+A3bG+9YeKnA7ge8xeXnxmlf3elNS63/zXcPyruJ0eL7XHBMieB03Emhvrxn4oRH/YZt929GqqpCZNS+ne92FVm1I7n+2icieE+nFVPEZeXVx+uB83k3oqSKH/UKC218QEf4XNxwr3Ffxkdr355lsrsWGVeRjGuz0ekor0BJr6uoaCyrep4DdPJEIm3C6hWN8ZDVSv9kTixUNUNkL0BJs7FCPZ8SHGoaln8tMGsIYNYTMPyrbFUvIdSnbjRmkHdWq6Lem0b1Mf6GZ2v7+q2p+E+Vjmn+h9bXv9rmIcl+rRh+daUm2+40t6WfQ1RWnfb3cCn7IyeC+PDivaARrtWnhRucB1R1hsmvlUFVOwjlXZcN98rbvNCfLzIQFWsYTbs95vh7Sjes1Ufzwyy86/v4q5txZGW2mbBssPNQWvpSm9rgPhP+3CoBaZTOk0bXfh/Fsb5WhrWazh2lE/PTro6rajXdEawETg3TN9XVQrpFLpJw3V0lPBeABfh8SC+LWZm09MUPtuF/5cx+luB1n5iv/TTZQE9paNs8RGMjlG83Clvp6CnpimoVdttDTA65MOm6KRSs5jtfQyfrrkoo7LettY59PQc1r/zoK2rLHYNTxD8jg3lSorpOZWugQliA3UvTaB3G1pzjtTzQyRnQNvir1wAqG1YNrRV/r1exbLBgroewMPYv/hxbVSYTecw7/HjuLO8Yqn824pbqgMxJo520YZO6oqC7TtBYtVPv/baaFN0pl/UgUFeebOA+QFnqbzAuUvDfC1F4vulS8KqfduOjXK8dxtqQWf6mpWD39KoPEcwKOva+lO78P8yTmDr/MZirfqNTg4V+z8F8GwptoPxJ3bS8XAv40u1N7UNy0YHfX9ng/dmMf2VHc+xYPHifJn9b9H+e4NMPFu8seJ5IYb/m9Zi38urbOs9TvhJgBbUDRasj3hwqsUWath2q/tao9gFi9vxcuPQMvPK3nbU5gL6m6W5EUZpWRAfAFTaNlhoU42P17g8i2VmaW0p73BB35+XS5OayVEgj55Kkb6yRDqByL/Nwj1tS3w1IUkaBa3TMT94c+7ahvWeAnr4w4hDNgIjx0vbpZg1b6MvNFEZSM5bIhYPxJgY6EKdm57vDxPDtV+uWCrel+VIv5UmV4D8lRSpd3J12zb7x4g95cGq6KTSeVS7j+P/VLyJ7HlhDP/eNgrpFNO04X5qjODWFbaR5fZpw/KtLbfjeLZU2tuyryGA3Dsp9KtQeD9NKpUmt6DtGl1HVLmSJnUlD4Uc6VI7blh319Hmhfg4kYGqWMM0lNshn8/Nf+L6XpDgidLfoKdyl/xPUfZ9oaN4AauPM/iDXva176TnQDcdv0rD3W3YiBB6Tce0cVvpYtWBxVwgNTkI6Iz/wxF6S09uux+KksZM2xZgwI3j7hzRA5vZ83gPO50hJmdA3QXOgS60aymGH95O94FuOr45jr7ehmtILW53Z5rINzvoPtDDzvYQyWsa276rwgYVsylH4seH8R7Ywx5XD96nJxfd/Xb2bMNS3v/je9j8xEUKzeWl/bg7zaTHeuhweel5eDOh10Gz+xbtB6B/hxVTLsWpkwkiv9dhg3V5390acGJbX85/N9sfjqJXDZYrnPh3a/D6MDu/0o3X1UHPSzrKVheB0nFsnRbMuTTR88V/D51PUVA07PuL23d90Uzh9UmqH/YWOfF0Wub33dO1mYPJQmV6k1FZ19Zf+3GS1yw4vnOLTx/9JHi+m4PBBPnPueg/NUU2c4l4pL/0xGbp9kZznosHOtjj2sPmHyfIN1uw9bDM/rd4/wPPJ8k3azhQSYR76T1Q7nshLuZNqJsqbarweojt7R107NON2261hrHrBuLQsvIK3GnCRJ58+SVrRmkx0vB4RuW5TOdDHD4/yxx5pg94GXx+6XTqb+nkMaP21OyrRuSZi+jNGtt6AWw47jdTePMVFn6R42bFIQ31bhO5C8c5fMDLHlc3Pb7jTNbGZ8NYXCzfudcG2fxwT7E//ErHvKVyI3BlEoT6Esxeg3zai/eHkfkllbY9hPqbEL1PeOl5qBvv4zsJJfOY/krDA1g+rVB4+xSHH/fS85Vuug8MENFX1kaW3aeNyndRuZ1afA5b1jUERH7oZfoDmJtN4D0wSKVUML6OqPb8IN50Hq7NkjjgZfB5g7q7jjYvxMeJDFTFGjZLoQBNTeU5cWD+nIamaVjtTpy7q14ucDVf+X7XTB7zF134/zVDJpMl+4hlfvvEz5PzFyO2RzXUqyleCQDo5M3tuI4WX9qSveyivJV7gwr5aZLlp7ozg3Q/tJ2en4BNNcOfUgyUL+7Op9DzYL7HgbO1BdZZ6BrOFF8E864Ha3NxGc9MkvijgiNUvPgeO+TAPJsqTS2r0D5Vs/+zSabzpf/f20bLOrDsHi3tP4NnkwnuVBdf+LX6sW2A/PtzbDsRxEWe/DoN23cXXa4u4mxtqcn/COnKvYMqNlQz6G8NzOcj8fvSRWJpGpvTopJPJyrfZw1ESOQUtE4P7O1Cm79xUEvDvH7hvieT05SLwqisF9UfQ0z/CZSWSrsQa9fkD/aw+a/vYnNXL0O/TKNs8XB8JIBtGe0NCuRLN0X499J/17HM/rd4/xHfTjq6DhNFJ99sxfHdYPElb5f7sVXCFABzf86VtjNuuwsYxK5F7XiZcWh5eQXaWlDIM3uy9G+DtBhqeDyj8rwBS6Wzut6NnB8hOWNC2+qDrW60ewqkzg/VrGRcl9cfh0JMXtBRdgSZupzh0i/6cJhzpGrezG4ci4tpU6x98+eD0U4VlJb5c9lqqbRt0D9QsO44SPBSsfz7t1Q6wvhkkrnPe4hdznDpd0H2bTShz6ysjSy3TxuV7+JyGyD1p/J6Jcu8hjDW+DrC2Arr7rrTJ8StRwaqYg0b5+JMAdMGG32lu6lD+zroeKibxPvAn3TqvYJAHQri362iv3gEr2szdz1f9aXR85HSxUg/7i+q5F6LMATQGiB41Imqj3PE183mz0QobzWZy0Ozgrmyl3np9/Jwe8uiKTeFq7Mk83NwNUmk7yAHS3/eA156A1EgRE/7vWzu6mHw50kKG5x1p+7k8rX7N6OUn6gm88xRIPnzyv4PHvTifWJo0YWf+g0r2roCBdrQNA3t/ibyebA82Ff/LmzV967G36/Nv7WShgXSzOZBWV+Vi9sAChTeB+ij7Z4C6deqay1C9M0cyhcdBHZrmOdvHNTKkb9as+8WhfIlkVFZL64/labbgLm6QwWxhti8/vmZE/qFCIMHdrLzlzqmDe04l2xvRpbT/+rsf56HwKAH27oEob597PzMAImGzcm47VYzil2L23GFURxaXl6Bt2YXPHk0SssirdUvb2l0PKPyrFXqo8uwZDqVJpqW1SaKM01MG7fR/6iGmksQWRSLjOvyRuJQaN9m7v2bPfT8KELyqgVnnSmjxrG4mDZ98nDlfPCEF++BIyz5mp9llnU9nmN+PA9C4umD7PvqXQxcqHSERP9O7vvMdrr7Q0zqCrb95enxK2gjy+zTRuVbLjd1/gm1i5bb51dcZMk21YjBdYSxldXddadPiFuQDFTFmjb09CnS66x4ImF8u2xoWxz4hsfo+ly9u91F1vUKFGZJ/fMI0QsW/BurnxomGHwtjemL+9h2T47UL0sTd6wtKBSYfT3EyEsJLEe1+alx+lgSfZ2GY9iNCmi9E1zKXmJsP4QupCmYrezr1QAV5wkX7UqO1Mvjxe2aNWx/C8mT4ySvbePg3x/B/YCOdShO5lIMz5+jDH3/MK/8oQCmxRevodd1CmYrniftpf07Kt9RnSkPurdBcpzxJGz7tp8jj1prnpao+LZq8MdX8D7UQUfpb89YClqtuLYCep4CKu0nXNi2uAi62itpuTBNbkH+92Gtd7VMiMTbBcwP7sO3qfhii6CrHSWXInoS2G/FYprm4o8WbhV5MUWuWaNri5n876PFGweLhEj9oYD5QQ/9naV9d1ZeUmFU1vP1d6L4cgqtN4C9tUDqQr1LALGmaHacX/fRd9SFBqhb+gjYVfjTNIml2puB5fW/8v6r2tyrWbKJAGrphlF++hRDJyfJP2ajrbbzzjNuu9WMYtf1xqHl5RV4O08eBaV0SKO08HaOPApaZx+2LXb6jtnn42Xj4xmVZ4rc+6Dcb6dviw379wLYa6e9LqCgPqahti6RTsBmMWO6Nst0uU1ssuNs8PuXiR8lSDdr7OtUyb0ZrZnWyZJ1ed1x6IEA8XcvEftGnuhPDnP41zoFTCi1gynDWFwsX/VLTtTpccZPplEfOYL/247FeTWK93Uod7vRWhftBQCzosAH05z6yTiTH7ixfba8Jx9jb2SYetZKOjyI9+mL5DHRdPty2sjK+7Rh+b6YQl+n4fxHP+69TnzDPmx1z2FFS7WphgyuI4wtp+6W3+aF+DiRgapY28720v3kOPp6B30/HSN2Kkxfp8L0zw7S079o8hoA4+FTJK9peOIZMpeHsd8xt2C5/uMEqdtMxe9rPl/68GSIU7+dQ/NOkclkGe5sYX6r814Oh1MonX6msllihzTyZ4fofQYIeBk8m0c7FCObnSK428x0+CDdz5e3m8a8O8hUNstUyIn5D1FCP4HkjyMkPmjDfSZL9vIUns/nST4fWnz39AcDhC4U0LyjZLNTHNd0UvM3rBN4+0eYvrN0wfdqEOfdOtFwzVBvax+2z4GeHKm8zRPQ/zlJ6pqK7TE7BI5z6m2w7A0wdsqPNls1NfFkD4Mv6rTsKOX/63OLpqSVDfkGmfxAo+9MKT13TjPyRDcRwLmlDeWP6cV5PBni4h9NmEw5kifrPSMvGvhhiERBw/Nsluyrx9GupCppNCjr+forLYsdaid/drBh+xFrR8JzmNCFPFpPgFg2y9QpHzZSjPy3HsaXaG9Gltv/ivtvK7W5IM71KUZ+0IvOAONndZQdo2QzWaa+Z4GrNRtXMWy7VQxj13XGoeXmlfNR0jlQNxa/0WiclkFGzudQtvgYOzWK61plKrHR8RqXZ4LB5xLkbrfhOzXG6CM0jDE8M0kyZ8b2VIyJAadxOlFxtKrwh9R8ft3fCxI86qH8jtYFZoZIvFmMRakX67ciw7q83jj02yEiF/K09cTIXs4y5dXIvxYhFF547KVi8ZBvkMmr7cX+kI3RZ50j+YvFM2wM4/0CISZ/m8O81U/stH/xU3hg4GQUfb2D0csZsvE+LLcVSkuGCL00jfJlP1OXs2SfdaC8E2X46eW0kZX3acPyPe/lcOm77keOHcfz6Uleead2BxXGbcqA0XXEEgzrbkVtXoiPl79oa2v7j3y+fogS4mZRFIUVt7tNdpwtOcbPpmqX1KV1OjHPjjP5eu0SA4bH6GPiXTfmXw+x5/Hiz6dUaNh3KaRfSiz+7hcqtl0avBklUXvxZXi8Kq027J/SmbyweO8A6hYHGimiDZavDg17J0wulVaK+XL8ZboqPTbCF8dof8vLF7623F9crU/dYke9Mrm4LMG4rFGx7bKQf2mSZeRA3GQriwEa9r0WmG7Qnxe1t2Vabv9rtP9WG46NkKrb7xczbrsVxrHLqB0bxKFl5NUWmmKsM8fgX++cn9lgnBYDRsdrVJ43oG46W/3E4i4Id7C9dGOqL5rBPTe49G9XLsG4Lq83DmnY95rJnay3rNoSsdio7G+KpfLbYJlROq+7jdQvX+0RF5bXIozPADgZfSOINT1g2A7qtqnlMMrXUlaw7XWnT4hbiAxUxUdiZRepa4WGfTDA8FfzHPlPexY/kRAGnPQN2Zh7uZeh6p8aEp9Yt2YM+LjzMPo7H8rL3ez8frJ24S3H9dMp+i0JvA/1ll6U42T0jeMoP7uXnYu+fyo+trYGiD/rQs2nSJzXMf1nG7bPQaL/PvY8U7uyEGItkYGq+EjckhepewNMfEMlFenl8H9f6V1eIUS1WzIGiFtc/adt4hNgkxv/f+vC9imFufdSTP58kMEX5TwuxFonA1XxkZCLVCE+2SQGCCGEEMKIvExJCCGEEEIIIcSaIgNVIYQQQgghhBBrigxUhRBCCCGEEEKsKTJQFUIIIYQQQgixpshAVQghhBBCCCHEmiIDVSGEEEIIIYQQa8pftLW1/Ufth0IIIYQQQgghxIet/PN18juq4iMhv6EoxCebxAAhhBBCGJGpv0IIIYQQQggh1hQZqAohhBBCCCGEWFNkoCqEEEIIIYQQYk2RgaoQQgghhBBCiDVFBqpCCCGEEEIIIdYUGagKIYQQQgghhFhTZKAqhBBCCCGEEGJNkYGqEEJ8HLW66T8RoG93+d82HLtsqDWriVtMp4/ACT+eB2oXCCGEEB8vMlAVa5if2LsZMvX+Lo7irl19WVRsu5zYN9V+vrr8ZzJMPbvCFPaMMlWVx0u/izNxwo1Wu96Hop9YJkvmTH/tgo/eI2Gm3s3wxilf7ZI6auv7I8hXqxv/qTiX3s2QefcSb5wbpX93ebi4SulpteHYa1/QVjzH+vBYm7j4ItiOxcm8Okb4p2EC+52Ef5cl+7swzqr116TaPnExzsQJD7bW8go3lhet04lji8HQ/ckYmWyG2JO1Cz5EgzEy78bwA2Aj8GQfjk/pRH9bu2KVtZDuFViyHgy5Gb2YITZY+/nqua54LoQQ4obJQFWsYSkmX44SfTlK9O08puY8qfK/JxOka1dfFge+Y0GO3ORrDlOzCaW5qfZjY+tMKM2gv1bMY+LfTFj2+hl7wVO75odghEh4nOHISO2Cj5xnrw212YT5i9voq124SG19f8j5avUwFvXjtppI/zpK9OUks+tteIZGCXSyeunp9BE4caTq5o0b7S9TjPR7mQScX7JgenOEzXfdx55nxok8FyHyXITxBTtZg2r7hA6W3f2MnR7D0wpwY3lxPxkk0Ouo/bjiuQjDJ4eJPFe74EPU1ISpuQkTwIN2Wq5GGXoihF67XrW1kO4VWLIeDDVhut1E0wrD7UpcVzwXQghxw2SgKtawCIMHvHgPePGm80Ce6fK/+0IkUHEeCjNxLk78zBiBntLzpAf7GT0XI+wt3aFv7WP0XIzR7/0dgdNutGZQt8aJD5efyDXYDwAa7mNjxErL/I81uOu/yU3gVIz4uRijT9prl6L1BBg7Eyd+boLwIafB9Ms5Zs8X89jTtZmhC3mUL9opDlWvL53q7j7Cp4vHDj7mInA6TrgXwEngdJyJY5VnUb7hcrlY0R7QaNesxQWtTvqGJ4ifixM/HcbXOb8J6mP9jJ6OEz8XZ2K4D+f8067GaVrIKF+1fDi+qJC7kEBvtmIfqFrUGyZ+Loy/N8zEuQkCe5116rsmX1VpjEX6sfeGiZ8OVJ7Ozddrbd6qyzXOxLCPxbUOrgEPttt1xh/fzM7HvXgPdLP94UEScxa6vl0vPY3LwjccZ+KYC/dgJb3OVmBvgImvayiobDtXqtu9GqqpCZNS3G7b3cCn7IyeC+MDtI3ttG+s7Ltx+2ycnuXX742q7hMd3LdvHH29Dc//Xqyl6rwU268f3/BEpR4b1GG5XJT73aV1S/1hqB//qVixvVg12rV2NGupnM8V63v+r6qtNC7DZZZTVR+LnQrgrjfrY4uKagLTTKm9nw7gesxfPO6Zqif11enGeN+N+291nmKMDboN4lbFSsthcT1Ux6Ei57Gq+lwU0+ZXKy+98Ta7WvG8QdsDFfeTo6X2VLMPg1jbeH9CCPHxJANVcctyDU8Q/I4N5UqK6TmVroEJYgMqvDZC6mobjm/5cQGeY27sd+dJ/MtrpN9KkytA/kqK1Du5yn56bZjfmy7u5+gE8WM2ADwvjOHf20YhnWKaNtxPjRHcWpMQPIz9ix/XRoXZdA7zHj+OOytL1YEYEwNdqHPTpK4o2L4TZGLYVb2DhmavFmBdE4pRfo3SuTXA6JCPba1z6Ok5rH/Xh2OjhTYVoAV1gwVLa8v88dQ2C5Y2tWaZjcDIcXxbFPRUilnzNvpCE/gA9o8Re8qDVdFJpfOodh/H/6k4jbVhmmoY5WuR3m1ozTlSzw+RnAFti79ygae2YdngwP3tdhQAcnXqe2GePS+M4X9UQ3lvmtwdXRzfb8OyQaUFoLWf2C/9dFlAT+koW3wEo2PFmwalcrUpOqnULGZ7H8Ona6ci27Dfb4a3o3jPVn08E2LggJeDT08uSo9RWahtFrRdfRy0Qe49E+qXPRwf8kEuTWomR4E8eipF+gqwXsWywYK6HnLvpNCvQuH9NKlUmtyCei61z6NdtKEX22dvkIlni+3zxvvGTXDWS/RtMGsObLV5abNg2eHmoLXYAubrUC0wXa7D8TAuasrlrTS5Ul1YH/HgVEtPz6rKcSET5s9ZsKjF4xj18eWVk4vweBDfFjOz6WkKn+3C/8sY/bUDEbUNy4a2YptX27BsdND3dzZ4bxbTX9nxHAsW++WCdBvs26D/sn+MsaNdtM1Nk0pD26N+xkLFum/kesphcT0srFOAllZLpV8uimketHWVNNx4m12leF4vfpweLZ6TXojh/6a12M/zKtt6jxN+EuNYW29/5XgkhBAfUzJQFbeoftydZtJjPXS4vPQ8vJnQ66DZfajoDP7XYVKKHd/wKO4tTSTDvYRmEoT6Esxeg3zai/eHkfn95F72srmrh56HN3P8NbDs8uEBLJ9WKLx9isOPe+n5SjfdBwaI1M65G3BiW58jemAzex7vZvvDUfT5Cycn/t0ac68NsvnhHryuDnp+pWPe4mx4gdHU4sS514n7e6P0bTVTmLlIxDC/jdPp7NmG5VqK4Ye30/34HjY/cZFCc+0Rl6Kh3m0id+E4hw942ePqpsd3nMlWUH8TovcJLz0PdeN9fCehZB7TX2nLL7sl8lWrf4cVUy7FqZMJIr/XYYO1NAW0LEfU8wU6HtpJ78l69V2tH+cWZb7uu7+yk1N/qEzvcw50oZXL7kA3Hd8sPslzDamwQcVsypH48WG8B/awx9WD9+nJmjRrKLdDPl+8IVItdXac8bOpmk+XLgvTBxfx2vbQXXrabrLYcJ8Pcfj8LHOlGQeDzy/ca+SHXqY/gLnZBN4DgywshWL75PVhdn6lG6+rg4Hnk+SbNRyr0Tduklw+D7cr9b+//aco+77QQcfDvTDQhTaXYLB9Jz0Huun4ZhT9bhvO/TXl0hciUdq88HqI7e0ddOwbWrjfk73sfKiDjoc6COlNKP+eJvLfehhfoo8vq5wG3DjuLseQHnY6Q0zOgLqrZr1azXkuHuhgj2sPm3+cIN9swdZTs47Bvo36L/e3oFyd5tSTPXgf3073Pi8DP69NeLXrK4dG9dCIcUxbhTa7SvF8Ufzoj5B834S2QyUR7qX3QLmfh7iYN6Fu8hjG2kX7q45HQgjxMSUDVXFr2ttGyzqw7B6df9GKZ5MJ7lRxAMwMMPhLHXWHHfXNCN4f1V6NlPRoqOvyTL82Of/R0IwOSgsWYHwyydznPcQuZ7j0uyD7NprQZxbsAWdrC+SnSZafms2MkJ4fm2iY14Ni7ZtP52inOr//xRSs3iDBE0H8XhvKzDhHHh9AXyK/jdKpfcoMf0oxUE7z2STT+ZpDLinE5AUdZUeQqcsZLv2iD4c5R2oG9A8UrDsOEryUIZPJ0r+l9CTLIE0LLJGvBVr92DZA/v05tp0I4iJPfp2G7bvVF2p58tVPL43sbaNlQd3rDLxVaSc2tabszqfQ82C+xwHPTJL4o4IjNEU2c4mxQw7Ms6ma7w3OUihAU1OlTAwtpywK+YUX8rfBjX1zzoZqBv2tgfm0R3w76eg6THQV+sbNojQ1QaHAbO0CgKt5yinWPmWG5nb6yi9kGt6GikLL/TXbVJn7c87w+5+qd4z+ToXk0930nmXJPr6ccnJvUGtiyCDdD22n5ycL11usQP586X//vfTfqqeLLLFvo/7Li6+QvKbhOZMlc+kNgl/XMF0xKpkbL4flMIxpq9BmVyueL4ofz/ey86E9HH5ZJ99sxfHdYPEFa5f7sc0Xe+NYu2h/1fFICCE+pmSgKm5NyTxzFEj+/CAH+0p/B714nxgiCoCdLqsKhQJYrLhrp9CV/TpHHgXlU5WP1NtMcG2OPJDo38l9n9lOd3+ISV3Btr88Rati/P08NCuY5z+xoszf4c+Rvwr65OFKOp/w4j1whPqvz8mT6L+Lu+66i7s+cy/3PeRlZGbp/DZKZ/HJU0vVG1HNVWmrpdJ0W+1nRaF9m7n3b/bQ86MIyasWnEdHCe8FzzE/ngch8fRB9n31LgYuVEbBjdK0wBL5qqZ+w4q2rkCBNjRNQ7u/iXweLA/2YTwhsYGTs8W6VysDXZe5cqGefq+27IoKV2eBED3t97K5q4fBnycpbHDi/1ntm2fHuThTwLTBRt+C9mcjeC7DpdM1r4JaQVmsnjSzeVDW1+ZydfrGTdHah22DicLMxSVfoJTL5+FPr3C4XJ59B/Ee8HKkfudbWmeA0f9mgwuDVTe/jPv4csppMlcbQ1aP0b6N+i/nB9h5311s/9phQmd1lC2eyrTgum68HJbDMKatQptdrXjeKH6Ah8CgB9u6BKG+fez8zACJqmJvFGsb7a8Yj4QQ4uNJBqri1jQTITljQtu6DZLjjCdh27f9HHnUig7Yjh3B0aoTffwwk3mNff/Yt2BapnK3G61VLe0HtM5g8cUUm3wE7CqFtxOM4GPsjQxTz1pJhwfxPn2RPCaabq/aEcCFaXLrNBzDxZeNaL37sM5f5YRIvF1A/ZITdXqc8ZNp1EeO4P+2o+7U1oYM89s4naHXdQpmK54n7YCK84Sj6vtcKXLvg3K/nb4tNuzfC2CvN6B/IED83UvEvpEn+pPDHP61TgETyu1gVhT4YJpTPxln8gM3ts+WB3qN07SAYb6qqfi2avDHV/CWpl92PNTBnrEUtFpxLfqe2ULz9b3AOKkZ0HYH8fc4cX4njG9L5fI0dCFNwWxlX69WKjsX7UqO1MvjWIfiZC7F8Pw5ytD3D/PKHwpgUkrfja0YevoU6XVWPJEwvl02tC0u/KeCODbMkTpTMxV52WXRiIL6mIZarw4bKrZP84Me+juLL3IJvpolmwigrkbfWCXl6fDO7wSYGPdgXZfmVKBmam4doQtpCvfYcN6TZvzkOOl7XBz5+4M4Pl1ZR7lDRWtVl+6PrR7GhlxYcpOEnp/FuteJc68dzbCPL6+c9LEk+oIYMsGl7CXG9i9c73oY7btx/wXfC2+QuTiKNT3C4IHjXHwfTKbi8vo/J3Nj5VBdD/p7BbinneAjNmyPBnGVv3PMEjFtNdrsKsXzcvyopHOKbDZOoLU4sM5Pn2Lo5CT5x2y0lbNnEGuN4pEQQnxcyUBV3KISePtHmL6zdGH9ahDn3TrR8BC09tO/18Lc+RF6zkY4/E8J5h5wE/CqxalVv81h3uondtqPs7Sf1PrSfs700X51ksHHB9AZIvTSNMqX/UxdzpJ91oHyTpThp2uScrKHwRd1Wnb4mcpmiX19jlTVdLIh3yCTV9vpO5Mlm43RZ50j+YuVPiUzyK9ROn8wQOhCAc07SjY7xXFNJzV/9z7B4HMJcrfb8J0aY/QRFqR73m+HiFzI09YTI3s5y5RXI/9ahFAYBk5G0dc7GL2cIRvvw3JbobSRQZoWMMpXla192D4HenJkwdRX/Z+TpK6p2B5b/GbOotr6rpbA2x8icdWC68njHP+WyuRk1Y8eBbwMns2jHYqRzU4R3G1mOnyQ7uch+eMIiQ/acJ/Jkr08hefzeZLPhxY9VeFsL91PjqOvd9D307HiG1etc1wMetkTrB1+LrMs6nlmkmTOjO2pGBMDtc9cjA35Bpn8oA3Ps6Vjrk8x8oNe9NXoG6uiMh0+eKgLy9UEIV83veUpr0ZKddh+KEY2myV2qJ251yIMvVxcPP6bFIXPuYnFw0v/LvN3XdjWA/fY6TtRSk/pJ4Ea9/FlltN5L4fDKZTOUgw5pJE/O0TvMzXrXQ+DfTfuvzAUjjJ9ux3/q1myl0dx3J4mOjIEuOkfCuLfX36lcMX1lkNtPQw9fYr0NQvOoTHGjmrMvl31yHGJmHbDbXa14nmp7bWV0hncrZAKH6F3ZoDxszrKjlGymSxT37PA1dI2BrHWKB4JIcTH1V+0tbX9Rz6/4i+tCXFDFEVhtdqdusWBRorohdoL/5VRtziw/DnK5OuLlmDbpcGbURL1BnLzNOydMLnoJTklm+w4W3J1XqKzMo3za5DOVhv2T+lMXnAwdqmfll/dRUftS2qXpGHfayZ3cpKFOTA4ruGyhRrn60h/l7cAAEW5SURBVCba5ML12QSRF4vHdD77BsEHpxm4bw+h+ZU07LsU0i8lFj/ZXEmdbrLj+Mv0svL30ZRF4/TdeN9YbDVjwNIatd1V1rA9LLecVGy7LORfuhnpbLRv47Qtbot9TLzrZu5H97Gn0UD6hsthGeZj2uL2yqq02dWK5w3iR6sNx0ZI1X4OS7TXBvsTQoiPIRmoio/Eh3uRKio8NzBQ/bixETg3iqs1T+pCAt2kYXvQAhcGuO+/VIap4uaQGHCL2jvKG4MKw3+9k2U86xdCCCGu22133HHHkUKhMt1HiA9DU1MT0u4+Ck3c8Zl16MkoiTdrl33S6Jz52STv3dlG2+fb+PRts/zm+UH2H3wOGT7dfBIDblH/dw791SjPvbv4Z5eEEEKI1SRPVMVHQp6mCPHJJjFACCGEEEbkZUpCCCGEEEIIIdYUGagKIYQQQgghhFhTZKAqhBBCCCGEEGJNkYGqEEIIIYQQQog1RQaqQgghhBBCCCHWFBmoCiGEEEIIIYRYU/6ira3tP2o/FEIIIYQQQgghPmzln6+T31EVHwn5DUUhPtkkBgghhBDCiEz9FUIIIYQQQgixpshAVQghhBBCCCHEmiIDVSGEEEIIIYQQa4oMVIUQQgghhBBCrCkyUBVCCCGEEEIIsabIQFUIIYQQQgghxJoiA1UhhBBCCCGEEGuKDFSFEEJ87Nh7AwSPerDWLhA3rtWGY5cNtfZzIYQQYhXJQFWsae5np8i8myn9XeKNxATBHq12tTrcjF7MMPWsu3bBIlqnE8eWm3zJNRgjc3GUpVNTzU9sPu8ZMv86RSzSj7O1dr2V6CeWyZI501+7YGVabTj22llOTQhx3XpGmarqA5cuxpk44cE23wechH+XJfu7MM7q7bYGONLrwPw/oiSrP6/2ZIxMNkPsydoFH2c33v9tx+JkXh0j/NMwgf21S29AdYzsGWXq3Rj+2nVuRM8oU+9OMdpTu+Bm8RO7zuP5z2TInFlG7m9GOS1JxbbLiX1T7ee3kprrg012nHLjRYg1SQaqYk1ralYwoZN4OUr05QTTt1lwHh1jbMkLpCZMt5tQmptqFyzifjJIoNdR+/HqaiqmZ+nUVDPR1Gwi/3aU6MtRor/P07LFw/GRALbaVZdthEh4nOHISO2Clen0EThxZIUDbyFWaJ0JpRn014p9IKGDZXc/Y6fH8LQCjBN5LkLkuQjjVZtZt7Yw96sheoN61ac1noswfHKYyHO1Cz7Obrz/O79kwfTmCJvvuo89z9QuvQHVMXJdMXabate5EetMKM0KpnW1C24WU/H8dR3HMzWbMDUvI/c3o5yW5MB3LMiRWzr411wfuI8QPObjJl8FCCGugwxUxdp3bZbEAS/eAz3s+ZshEnkFrdNTXNbqpG94gvi5OLFTAdyN7vJ2+gieii1azzccZ9vdoNzvJn46UHoqo+I8FGbiXJz4mTECC57gariPjRErLfM/1ugebGW9WKQfe+3iTW4CpfRMDPcZPiXNp714D3jxuraz88U0pg02XKX11cf6GT0dr7sfrSfA2Jk48XMThA85S3eLrWgPaLRr5QmRjfPqG44zccyFe7CSD2crsDfAxNc1FFS2nYsT7i1tsNy6EGJF5pg9X+wDPV0d3LdvHH29Dc//Xuyt2sZ22jeW262K+8lRjnxZpcnioH++3TsJnI4zMdSP/1SM+LAPrBrtWjvzXcGo/VYti58O4+usWlbWGyZ+LkzfY/5ivzszSv/u6vjQuK8Z7b/Sj2OMDborT32M0osd34lKnKoca2H/V3f3EZ6PH77FcapGOV7yKTuj58L4wDhfhsuWiJEAnf2Mnqm3baP8scQxK1RvmNi5CQKPVn9qpT8SJxYqnV8oxbtzMYKlJ6P142qxbOLDfnzDE1XnEuA2N8HTi9cvt9WJc/WWNVKVt9NB3LdVLdobYOLcBIG95Q98hOfjc532b3D+aBj7cRI47UZrBnVrfH4/yy1z4/UaL2ucHhqfkw3Lo0pvmPhWFZo13PPrG9VNg+MJIW4KGaiKW5iL8HgQ3xYFPTVNQe3C/8sY/bWDvq0B4j/tw6EWmE7pNG104f9Zcapg7p0U+lUovJ8m9VaaHOAaniDYa8P83jTTcypdRyeIHys+w/S8MIZ/bxuFdIpp2nA/NUZwa83xyus9qqG8N03uji78nebKwtZ+Yr/002UBPaWjbPERjI5RdWnUkJ6fA8CkAvvHiD3lwaropNJ5VLuP4/9UnNKnDsSYONpFGzqpKwq23iATz7qAFtQNFiytLVDO63dsKFdSxbwOTBAbKJ541TYL2q4+Dtog954J9csejg/5IJcmNZOjQB49lSJ9heXXhRA36qyX6Ntg1hzYSu3U0lZss54XYvi/aS2257zKtt7jhJ9kvt1bH/HgVEtPUdarWDZYUNdT1X7NzKbL7TdOYCuAjcDI8VLbTjFr3kZfaKI0SKuitmHZsA3Pf7PTpOvM3W3Dc2KMYGnQ2bivGex//xhjR7tom5smlYa2R/2MhWxLp/fcMH1fVSmkU+gmDdfRUcJ7Wdj/twYYHfJhU3RSqVnM9j6GTy/K1QIL4mWqKl7WzZfxMsMYCYAZx9EuzO9NM3u7hmt+Jo1R/mrjdxtdRyvHLFO9Y8Se3EZTapihn1cvSZJGQet0zNevc9c2rPcU0MOluDrQhTo3XYyr3wkyMewq7rPNgmWHm4NWpWp/TWjfOoj12jR6odgeR+fPJY3aamO2Y6Mc792GWtCZvmbl4Le0yiydBe0ZQKVtg4Vi16jT/o3OH41iPznSb6XJFSB/JUXqnRwsUc/VjOrG6LzbOD0G52TD8qhyJU3qSh4KOdKpFOmccd00PJ4Q4qaQgapY+9a1YDsRJHgizNirPmxKntTZEAy4cdyZJvLNDroP9LCzPUTymsa279acifRxBn/Qy772nfQc6KbjV2m4uw0bEPmhl+kPYG42gbcvRIJ+3J1mci972dzVQ8/Dmzn+Glh2+fAAlk8rFN4+xeHHvfR8pZvuAwNEFs0u7Me5RZnfR/dXdhL9Y2XSr3OgC+1aiuGHt9N9oJuObxafELmGas+gRaZmJ869TpzfCRDbq8H/v737j23jvvM//+zFAAV4Ed45KJW0zXTVLRXn6qkLhHK2ML3OVbb6Reg0MGUfclK/TWXWzZI9t7I28Ffu4iIrWFdqkZXV+kK22JW0SCo1qWUFacT0bEWF/RV9aWQWbcJcG4tNVTHehBKQ3k22BkTA3d4fJEWKEkeU66Z08noAQWvOzGc+v+Y98+YMRwtJJs+D8dMIHQ+HCNzTSujgHiJxC8dfmwTx07PXhJcH2fPZVkItO+h+Ko610Sx5tCnb1uRogB0tIQL3byPyMpiN7UvfHjveuUjIu4/W5m30X7BwuL20nY9w9Pw8i1jMHArR+xSVj4XIdbBgWXCzs+Q30gaxgQ46DuXnc4SLlgNja+EroMzLEXY37GDHgf5lW9Ldhu+2BaKHtrHvYIA9DSeIX3Xj+2oQMDFuc7Bw4QRHD4XY19JKoP0Ek6t+CWMRe3Qbew62svuTJ4hnDBofCq5xrNmUf2ctzisznH4kQOjgbloPhOj+fmqN+qYY++djdBzcxp6DIVrviZLERf32kqpuNnA5Foh9+yihQ/vY1xIg9Pik7V29ZfHyUC8jtu2yX2YXI7NqSD23h90tAfZ9OkT0LSfe/V1rtK80fu8hcjYFHyr6BfOWYcb/m5fM+V5aD41RGr5HvneR1EaTXR0AXnx3usi8+gK9ubi6+FIv2+4PEGrZQeDHKVzb/YUvGd+KcuCTO9hxf0fuUXQHmfjhpTYOvgzupiD+CubqSn6CTe6luB5o3sbheGZdj/0Wz//y54+sVWM/MSKdMeav5p70+cbIGnO7mN3YlC5bft4tX59Kz8k2nuollLRyT24dJXLefmz+5P2JyLooUZXqt9GN914fvs/58NZBvG8f+74H/rpa2OCmeTD/spUgno3gur3klyazFq5PtdDzyznm5tKkH3AvX14sYGJssJh5aXLpo/7ZFDhrcQNjk3EWPxFk4vIcl34e5sAWB6nZZSXA/npql5WRYmhmfmmx13DBWwm689udT5CyVql3jnFfmPDJMOEjzRhXYkQebmUESL3jxHPvYcKXsu3q2p7/Jt+L4YLUr7qXLsJG2vewo/ko0aJys/UE997hpZfVBLc64INGIaHNWMSKt7mJVX9nW/FYiFwHzpoayGQoHFUAKayNHnxfC3Pp9TnmLnfhLb65BSz+fmFFYgLQttkAa4b42fwn/cy8Bc5aNxBh8kIK571hpi/PcemHnfhcCyRKj3sALOafyv//ojJsjzWb8p95gfhVk+CZNHOXXiH8RRPHm6k16pvCcjXQcvwSc6/Pkb7cwqoR73uTxN5w4otMk567xOgRH675xKr9U5Zdu9ZcVj5GZs2TfDJfm0niv7HgQyZtdu1bEb9T9H5hB7sP5r+YcOLd34jraoLTnZHV23p+iPisA3NnO+xsw7w9Q+J8P2Di2gROT+dSe4abjKVzAwBXLApnDgCLmXihLt2/SoHLwFvBXF0pu//iuD4Zn8EqWctO8fwvf/7IqTD2286B4vXsxmbFsuXnXShfn4rOyetiPzbXf38iYkeJqlQ/K0bv33yUj94TIZFxYu70YQBxaxGuxBnpPMzh3H+hQyE6+palYxj9YXr2GqSeOUaoZRu3PpVctnyZnyxg4cT5ocJHxk0OuLqIBcS69nDHR3bT2hVhMuXE+9Aqj2udml9RhsdZOMUn37bg5trlbykFMldKL9Sykk/dyq233sqtH/kodzTsozt3cRp8rIfg3RB7/DAHPncr3RfylyxJ5i1wbirdQ4m4xSIZ4t8v9N/hwyFCD/cvT2grUOlYiPzJ6jrxbnaQmb247AVKEKSvN4h3Q4xI5wH2fKSbWIVX8ZMLFmx0Unj41KDmJmAxW0DkwDY++ul9BL41QvyKG3/Ro6bLOahZutNaVMYax1rZ8s93s+eOW9n9haNEzqZwbg9y4rtd9vWt6yN83I+RGuNYeyvbPjLC6hEvQqDho2xrDtD7/TiZzf6ln0RUzK5ddsvWiJFZNTiL/raQy+kEa4FJu/atEr9LpU5FiF01OfBk3+q/iyXGyC9SOLbsouvzJsZCjJE+gAWsK5CaPFpoz8MhQoeOUf7VVE6c2V9ZAODf5ARrnuQ1zdXs/pfF9VonZfPbOvuXLJU/f6yT3TgXr2c3NqssKz7v2qnonMza/VFgPzYV709ErgslqnLjmO2m92wKx10t9DwAqdE4qY0m3r+D+Kkx4ld3cfifjtF21/LvyT2bnJCZJ/GvQ0QvuOnZsvLhNuctBmadgTE7QnwWzKZw9mUNW9vpazTIvBZjiHZGX5lj+gkPyYFeQo9fxMJBzc2lpcWYeQvMewdoy5Vx4O7CJWXkQpKMy8OBDhMw8J9socG5QOL55Zfda3E5nfDODKe/M8bkO214P5a/ZIkQey2D6+4gXU3Zl66EX0yTjvUtfxRrdiR352AXxMcYi8Our/Rw7POe1e80rODEeNDEqKt8LESuRU1t4fH38bEgng1JTveVPL6LC+dGsGZO039qEutBL/Vlr+KXS43GSW0w8Z3MvjTF7OijsS5D4sIQ3NXH1OuXmPiSRfQ7Rzn6kxQZHDhXHPcABo2PtWMulQGJl4bsjzWb8tuffoW5i8N4kkP0HjrBxd+Bw+G0r6+nFicZ5l+OMPRcDPdxc9XHeT39U8xdmiD4+yj9/3iUF36bAUcu8an0z0/Ztctu2RoxMsuF96EeGgHjwQF8m2EhGSNl1758/C4qd/xSmkun8w+QWqRe7abj2zEWP95Cz7+USVW/FSO50eRAk8HCq1FGYCmuGn/rx5gZY+xUEuOBY/R8JfvFaTnm54azdWnqIni3i8wbCaLXNFcjJH5bEtebikbotWyyZzZ14t3eSOdjjbb1Kn/+qIzztjbMOsN+DhRvYDc2tuddOzbn5HX2BxtrMbYaGHV2Y2OzPxH5s1CiKjeUyYNDxCwXjV8L03g+xNGBGVx7w0yn00xH/Lh+GyXyneXbjA2czj4+NzXH3OVBGm/JvpBoaflPE2Q+3sbE1ABtxAh1DZHYlEvuznTScGWS3oPdpOgn8twMzs/0MH05TfoJH85fRxl8fFlxwBiBb46RcvnoeTFNOnqAxVeLTtl9IXrPWphHJkinpwnvdTEzcJjWpUcGK9N9Kkpqk4/hy3Okpzpx35RZWtbf3svkO/UEn0iTfjGMf1OCoUc7ShLQbFtnPphr64th/LeliA6UJgCr+N4k8QUX3m9OMN7thwrHQmT9nHhChcff3VdiRNpb6Thful43Y2dTOO8dJj2XZvrrbrhSuk4Z50McHUjgzM3fiSMNWGd7CXSl4Gf9jFywqA9MkL6cZjpkYr00QmSgtBCAFMkNQSbSaSaOeOHlIXr/MWV/rNmU3z8QZebmxmwcuTyM7+Yk0aF++/qeinD6Z4uYoWnm5tIMNtWyPOJlxb89QuydetrOpElfnib4CYv4U5FsYvCVHgZOdFZwd9WmXbbL1oiRAKS4+LaP4XSa6W/6qH0jyomukTXal4vfN+fKPdOJ+c4k/Q9Hlpcc3kfoVArjvjCjoVXSl9l+Yq86cDgWSDyTTVPJx9UrDXSeSZNOT9DpWST+Q7snUCwSvzE49mKa9BNBzEycwW91k7rGudr9jQixjJmL6ycw30wU7jie72Xo/ALO7e2Mnh6m5ar9Y9x25w97ESZ/toBrZw8Tz/bgtx3nYnZjY3fetWNzTl5PfzxzkUTGTduZaQa+aDc2NvsTkT+LD9TX1//RstZ6uELk+nI6nVy/eWfgvc+EV6PEbH4rYjb5cc2PMfly6ZLVGdt9uH8fXWX9yvYHYDY1wtlJEqULADBpvM9J8rlY+RPomtaoy9ZGfH+VJHrBfg/Gdh8miTXXW9sa9RHJub4xoEidF98WSFzTcWXgvc+N9dxqx6xJ434XC6dWWwb0T5F+AEZu3UF/2dhhd6yVL7/8Njb13dqIv3aBsbMrliy3ynref5lm9M4Y27ylX26VV76O9svsY6RNDFul3sXKx+/rYI19r1Dnxee2iJauf41z1djeiPHm5HWIsdc3XtuNczG7sbFbVt71bQesNTZ/hv2JyKqUqMpfxJ/tIlVEbgjvuRhQlKiW/qnGG03XC3P4kq1sCy57fY2IiMi76qZbbrnlWCZT6SMfItdHTU0Nmnci71/vuRjwP9bysf9I8tMfx8rfHbxB/C6d5Pxzk6T+v9IlIiIi7x7dUZW/iPfc3RQRWRfFABEREbGjlymJiIiIiIhIVVGiKiIiIiIiIlVFiaqIiIiIiIhUFSWqIiIiIiIiUlWUqIqIiIiIiEhVUaIqIiIiIiIiVeUD9fX1fyz9UEREREREROTdlv/zdfo7qvIXob+hKPL+phggIiIidvTor4iIiIiIiFQVJaoiIiIiIiJSVZSoioiIiIiISFVRoioiIiIiIiJVRYmqiIiIiIiIVBUlqiIiIiIiIlJVlKiKiIiIiIhIVVGiKiLyZ9TY0Uf4eBBP6QIRERERKUuJqlS1tiemmXt9LvffJabPjRMOeTFKV6xQz5k5pp9oK/34+umdYO7iMOvbQw8Tr89xKdq1SrvaGX1l7hrKLNXFxFyauTNd2X9ubcR/37X341+a2eTHt/1aa2/Q1jvK1C+z8+rSz6cY7vZfl75YUa+dfRzr8OH69yjx4hWlYsbeLoZjl7Ix4NIrTAy20wiAn4Gfp0n/fAB/6UYVux5lFHlkgrn0HBOPZP+5Yj6UVXJ8vlsCw0y/Ps1woHRBlbimeHqDx7drbTNtDF+cY6K39PNr1cPE9Zwb78aYBIaZfn2CntLPbyC21yi9E8zd4O0TWS8lqlLVajY6cZAi9nyU6PMxUhvc+B8ZZfzp4DWd8BwbHTg31pR+fP3U1OC42cH69uCgZqMD510+OncuX2Ic9+F1Oa6hzFJDjAyMMTgylP1n2zHCj7XjK13tBtH2SJi+jmupvUHw9AQ9X2zAkXyB6PNR4gtOvA+dYLg/m/78KUrr5dlZy+KP++kIp5atJxXa2cdwfxDvTQmiz5zm9H9PUdvYSfjpIDDGyJMjjDw5wljpdhW7HmUUeXKEwVODjDyZ/WfpfCiv5Ph8t2xw4NzoxLGhdEGVuKZ4eoPHt2ttM7nt1r9hGY7s+fd6zY13Y0w2ZM/vjtLPbyC21yg1NThu8PaJrJcSVal+V+eJHQoROhRgn/cOWk+lcO0M0rU/t7ypnfDpCabOTTFxuo+2rUXbbm2j7/QEU+cmGH5kZSJiBvoYPTPF1LlxBo4sv6tWWDbBaG9bmcTYpO2xUSbOTTEx0pW701Nkaf9TjA924q8rXaHIVQPvQy1FH3jp/IxZ9O+ccmXu72P83ADtTe0MPJttUziQ396DeZdJg+mBjgGmdhqw0aTt3Dh9uX4s2xcdA0ydG6CnY4DxpfUbaT+ZbffUmVH6lvbjp+/ZKQa+7qdrZGKpDsbezmydzgzTtbeoJ8u1pWOAqWf7aHmwJ1unou3aB6fYdRs472xj6tm+3J0wA/+RAcZX1KfEAz0EtztJnTrAtvsDhA6FaP3sHnovLOK+7zDtudVs+2Id9fL+tUHNTQ5SueXjj7XQ1luYL/n2tg9OMTWY3zv4HxsvaptNP73X7W3A7UgRbdlH6OEOOg7u4dipOAs1bvyAuaWBhi3ZsbbrXwDjwS6Gn51a0YfFZRQfz1NnRul5cJWjPhBm4twoXUVfKrUPTjE10oXHY9JgNmB6Vp8PYND2yHB2ni6bW0XHJ0Cdn87BcabOTTH17ADtTYV9FSvXJrjGOVO03+WxNHdcdzTSnls+frKNwlFWdPw9G6btgVwsyi+uuC7XIZ6uM75l500bbSfHs+eJbj/G0n6KY2i2D8YfC5bpg/L7sGffZrsxXoqr58YJP1i8FWvExArmed5NbYRz+yjtt6nBnmxfPNuHf6l/Cs8mLMW1MmNiN56Ftk0xvvQURamSeXdTyeKy87lIIMzEuWE6c/v2do8yVTR3/Y+NM3W6J5tg25VX7jpkXefPgux8XNkvy9j0X2XXLyLVT4mq3HAmD0VJXHVhNnlhZx9T/9KJz8gwk0hRs6WFnn/LP8YXZPQHPbRscTKfXMC1rwffBwvlGN0TjB9vpp4UiTedeL8aZuLpYHbhQ6OMHm+mfnGGRBLqP9/DaMRb2Dgn+PQoPZ83cb49w8ItzfQ0uQoL67qY+FEPzbm6Obe3Ex4boDgVLbCI/yyF6+6WwsXdA0G8dQskXrUKq+XLdEMqX2Z0lCDAJgP3Zi/B4wcwrqRY3GTiPz5AeCdALcZmN+66WngzSeJNCzILJBMJkgtr9IVRj3uzj7avNOAEwEvfuUE6P2eQSSZIOUxajg8zsL+wH+/nO/E5FrA2mviPjzLR7af2yjyOv24k+Fg420a7/jHqcW/x0fkPXnh7+XYLv06QugKZ3yVJ/CrJAtAyOE64w4vr7RlmFg2aj48z9djK8fI2unFdTRA9NFn0aYrIoyFCnSeYXGterLNeRr0bd332EsGod2Pe18lhLyy87cD4TJAT/dnRLl4PoLbOjXuzQS1rjPl73U9TLGDQ+N0+grlHaMce3sOO+zsYW0f/8tAoE98M4nGmSCQtjMZ2Tnw3+5htcRnBp0fp2V9PJplghnravjmaO36K/MSCj3vxPZCfX134mtw4rkwS32Tg3uzG2LT6fAg+PUHPlz0430wwYxns6jjBwCMsPz7x0jd0gvbtTlKJBPOuXXRGxgtxIc+mTdc2Z1oYGAvTvt3FfHKGjNFMz4+m6CuKH94v9XDgwxapjBNzfw8DuZjofWyYEx27MDIpZq56OPyID3NzffbieB11qSierlVOufjW3YyxOLN0TI8PZiNxdt4cJlhvkcKg8aETTPygk4bMwqox1LO/k+DHLGbeBvfeHkaf7cRYK27YsG2z3Rjv7GO4v51ddYukkot4/iGIWXT30y4mVjTPAajB/PvDeK7OkMpk5+twrgyj3o373jYOe7JnheVzOGvp2FplTGzHM9c2rzNFIjGPq7GTwWdXHAEr593fm0V3ovPz2UkqkZ/PE3SVJn0/WaRmcyONXySb+DZ6cW/exa4jAF58Oz0YNRZRu/LsrkPWdf7MqrkzyGHPIjNvLmbHfKiPFWczu/NnhdcvIjcCJapyA1rAugLOTSakxuh9tIMDDXsIHGplx4+TcFt9Nqh3+/FuWiB6aBv7Dray+/4oqaUTuZ+evSa8PMiez7YSatlB4LkUzp0t9NUBd9bivDLD6UcChA7upvVAiO7vlz6+2YV/u5OF50Nsaw7Q+tk9RN8onCb93c2YizF683X7cpTUbV78Dy0rZMnimUkSDg++47k7dP+bF9dsjMmiPNXf3Yx5NcHg/btpPdTKji+PkdrkpaU/n+TUkDz1SXa35NqLgXlfYXsAnuollLRyd6qPEjm/Rl8AsEA0+El23LOHjlMpxv75GB0Ht7HnYIjWe6IkcVG/vbCLmtkxtjW3sud/jZLCiXV+H3ta9rHt2zGsjS7MnRX0z0aLi4d2sG9pOzfeAIx8I8TMO7A4HyPUGSFGF21NrqVxCNy/jRMvgfu+9hUXseYmJ1yxWCj5nJcnGTs1SWKtecF66rWS452LhLz7aG3eRv8FC4fbu+Zv0dYe8/ewp1o5HI5hfbyFrtPTpOcuMVVyp7RYuf41fhqh4+EQgXtaCR3cQyRu4fhrc8X8cH/YSea10xw9GCLw2VZaD3UzUnrYzx5l8uUMxqdasnHmSAP1G1LEv798xFfOB4PYQAcdhwLsaAkRuD/CRcuBsbW0FibGbQ4WLpzg6KEQ+1paCbSfYLKkzXZtuqY5092G77Z8vAywp+EE8atufF8t1K9mdoxPfrY1G+tmwbjTD/gJNrmXjplA8zYO/zSz9Hhi5XWpIJ5WUk6Z+Lb4Um/2KYqWHQR+nMK13b80/o53LtLx2VZa7+knZjngV/3sWIqhtRh3F5WfHGH3Pa0EmnOx4W4f7XUVxI1V2bfZdowDu3Dn++PgPrY9fJHMxkK5djGxonkOgINM/PBS3QZfBndTsPCkx1tRDnxyx9IXR2WtGJM1xnOzgcuxQOzbRwkd2se+lgChxydL7gquMu/ihXlHdxu+DyYZ+fIOWg8F2NMQIX7VZNfXSubL7Bgzb0C9pxNoof42i4UFB+67g1Dnp/52mIn32pdndx0C6z5/OjIXOfzpfQRadrNnIAGbdxEsSmRZ6/qiousXkRuDElW5ATmp2QCZK/Mwa+H6VAs9v5xjbi5N+gH30lr+ulqwZoifzX0wO5T9JhcAL4YLUr/qJh++Y79IYeHCaAKeeYH4VZPgmTRzl14h/EUTx5slgX5/PbUbLGZeyt+dSzE0M7+02PyQCzY20Jl/GdTgLgyc1N65tMpyfzhK9GcZzM904q3rwXeXg+RLvRTlqXgNF7yVoHs298H5BCkLXLfnf/mzyGJ+g9lFMgBr/sZojb4AwMLK9yMpLFcDLcezL7hJX26h0OtZi/lK5OqQ+UOu5D8AOHFurqR/Mljnc//3D7n/Xa0tARNj2ThA/2wKnLUr6jV/JQMbanLfbK+mkr6osF6ryVjLE9ibWPO3aGuP+Xvb5KP72PY3t7KtuYP+HyVxbg+ufoeB8v2beseJ597DhC9l40TX9tVnwNhknMVPBJm4PMeln4c5sMVBKt/vRXonE2TqPLTshM6dJo7ZOCP5OVFWCmujB9/Xwlx6fY65y114V61GhMkLKZz3hpm+PMelH3bicy2QKKmHXZuuZc60bTaWx0v6mXkLnLWFo2jpuCbF4h/y897EtWn5MTP50sxS3Kq4LmvE04rLWSFbP6enc+nFfMNNxvL4UDpv8mYXyeDA+aHCR5aVWiU2VBI3VrFGm+3G2PxQSX+cjTOT7/Q1YmKl8xwsZuKFunX/KgUuo3DsXbEofjZlPWzH83uTxN5w4otkv5waPeLDNZ9Y6tusVeZdvDDv/HW1sMFN82D+ZYxBPBtXmy8xor9awPFxD8GHPLhJcvonSZxuL/799RgkSfzbGuXZXIdkre/8af0mvtSvqUcTpHAt/7JkreuLSq5fRG4QSlTlhmMc8WJuzJD6xRhGf5ievQapZ44RatnGrU8ll9Yb+50FG50UHqTy4Fz6xjnJvAXOTUXv+rwJIEPmd8D5bvbccSu7v3CUyNlU9uI4/8hV3ql5LJzLLmI8zkLasWBZ8NYLHO08zOHcf6FDIY7ZvC+l/wcxFuq8tB/3YpIg9u3lJ5fk2xbcXLviDaWZK4WLm/Vboy9K1fURPu7HSI1xrL2VbR8ZodDrlbuW/lnVTxZWjINxkwOuLi5L8gHGfpEis9HEe2T5t+rek1PM/XKczvX2xbvgzzPmNwZvqIdwbxAvkLowQu+hPez5UQrH5oYV/WEn+FgPwbsh9vhhDnzuVrovlM6MrFjXHu74yG5auyJMprIv2co+mlui7wUSVww8D/Tg3ewg8ZPe1ROdZYL09QbxbogR6TzAno90E1u9GkQObOOjn95H4FsjxK+48Zc8GsgabbqWOTO5UBovDWpugsI3X+XknnBxFX7UYBjOpS+DKq7LGvG04nJWyNYvNXl0Kc4cfjhE6NAx1htqVliKDdcYN9Zos90YL1il/eEqnN/WiIkVz3OcOAtP8uLf5ARrvsJ4n5s/ZdiPZ4RAw0fZ1hyg9/txMpv9RT/pycs/WVX0aW1h3sWtRbgSZ6Tk/NLRFy2snzP2XIIFp0FjUz3O2Yt0PzNDyuWm5W43jtkEY7P25dldh6xQwfnT6Sx6/Ht/LU4s5n9TvMYa589Krl9EbhBKVOUGUINrvx//fj/tj40z/hUPvHaa3j7wbHJCZp7Evw4RveCmZ0tRAnJhhoUNJr7B7IsEzI4DeJbif4TYaxlcdx+gfWv2JQnhlgacCwmip6D96VeYuziMJzlE76ETXPwdOByltz9izLwF5r0DtNUBW9s5cHfhBBO5kCRzuxf/7UnGTo2RvL2FY/90GN+HlxWy3FMRYrMuvJ9xk/lZlKMl33JHLiTJuDwc6DCzv6c52UKDc4HE87YPXq1uYy3GVgOjzr4vVvDU4iTD/MsRhp6L4T5uXtOLGq6pf4o4bzEw6wyM2RHis2A2hbOPhG5tp6/RIPNabOWFaN8JTv8aPF8ZZeCrPrxbvbQcHyX8OTeLv4oyssa8qMRSvUoX2Ei9nYHbGwg/4MX7+TAtS7/7us5jfqMxG/F/sZ3O4y2YgLG9k75GA96aqSAxLHA5nfDODKe/M8bkO214P1Z6LLP0p6Cmn/CQHOgl9PhFLBzU3Fy6HkA/0V9YGPe24HEkiP9r+bsVhfmQTSSsmdP0n5rEetBL/WrVuKuPqdcvMfEli+h3jnL0J6nsXb2Seti16VrmTGo0TmqDie9k9oU5ZkcfjXUZEhdWHEUlcsfM9nYGvurHH+ghfF/h5TCV16WCeFpROTkl8c34Wz/GzBhjp5IYDxyj5yu+dR2jeU5PC+G9RklsWCtuGHjv89O44mU+9m22HeOXU2RcHoKPNOb6w1f4japtTFzPPAfzc8PZujV1EbzbReaNBCtTPYAEC78D552NdG730vj1PhpLH3teGhP78fT0TzF3aYLg76P0/+NRXvhtBhyFJDQrQuK3GVx3B+lqyvV5U2HepUbjpDaaeP8O4qfGiF/dxeF/OkbbXascq6dizFgG3u0ukq8OwfkoyQUD73YnqVdHiK1Rnu11SKlKzp9bmhl+0AAa6fqSB1cmReLHy1exO39Wdv0icmNQoirVz+kheDJM+GSYzv1urAsRDrd1EAPGBk5nH3GZmmPu8iCNtywWtjsVoPeZFLX39jCdTjPxxcVlj8/1t/cy+Y5J55k06RfD+D84w9DDrYwA/QNRZm5upOfFNOnLw/huThId6i9sDMAYgW+OkXL5sutFD7D4atFJsC9E71mLhiMTpNNpJo40sPjSCP3PF5dRKsbIL1LAArEflO6vUKZ5ZIJ0eprwXhczA4dpfap0xTU8c5FExk3bmWkGvmjfFyucinD6Z4uYoWnm5tIMNtVS1OuVu6b+yRr7aYLMx9uYmBqgjRihriESm/yEX0yTPtNJw5VJeg8WHgkrmKTjvx5jbNaJ7+sDjJ4ZpS/QwGI8Qqg5QmqNebGW5fWqXP/jp0ledePvH2X0uMn8a0V3sa7XmN+AYsGjRC5YmIE+JtJppk+34yXB0H8L2P8mrkT3qSipTT6GL8+RnurEfVOmdBWgn8hzMzg/08P05TTpJ3w4fx1l8PHS9bIip+IsOBzwWmzFF0p5y+dDN2NnUzjvHSY9l2b66264UroF8LN+Ri5Y1AcmSF9OMx0ysV4aITKwfDXbNl3LnDkf4uhAAufecDZeHmnAOttLoGvlUVSqvz17TO36hxOcONKIdT5WeJqh4rpUFk/XLqdMfLvSkD2m0xN0ehaJ/7C/TMJlz0paePqns7Hh9nkmv3s0e86wjRvt9PxLmM7S24drtNl2jB/tJnIhgxkaJp2e5oSZIrHU6XYxcT3z3CLxG4NjL6ZJPxHEzMQZ/NZqcRUgRu+TMRZu9tJ+epThB1j+uHrJmNiNZ/zbI8TeqaftTJr05WmCn7CIPxVZ8cVj9zcixDImwSfSpF88gflmojDvzoc4OjCDKzefpyN+XL+NEvnO8jKysl80QIqZZ1LAGLGkBSyQPJv7SsymPNvrkFIVnD+tl2cwHp0mnR4m+IkM8YHewiPSeTbnz8quX0RuDB+or6//o2Wt9WiPyPXldDq5nvPObPLjmh9j8uXSJQAmjU0weTZRuiBrayO+v0oSvbDy9Gts92GSWHVZMbOpEc5OsvoeTBr3u1g4VW75tTBpvM9J8rlYmYuGa2TTFytsbcRfu8BYuX6t2PXrH2O7D/fvo2XmQak1+nA9ffGuWKO+N5j1xQCTxv1umCl3jFfCwHufCa9GiZVe9C1T6XrXqM6Lbwsk1hzHSo6Ltep6LXPGwHufG+s5u/2WqPPScreDkadyv6zrniD9UA0jt+6gY2mlyuuyZjytsJwV/qSYFWT0Uhfmq93c0RwrX4fV4sbOAaafrif26R10rDpOdm1eY4zrvDR+KMVkmThVPiauUW6xOi8+t0X0mvptLTbjWeF4GdsbMd6cLNOOdbSzIuXLs78OKbFm2yo9DsvHiUqvX0SqmRJV+YtY30WqiLzXKAa8dwSfvkTXTkhdiBHPGHi3mzhnR2i9J/vky3tDcaIaKV1or3uCuaYkrZ8OvYf6Q0Tkz++mW2655Vgms9pjUCJ/PjU1NWjeibx/KQa8d8RHf8Rv/ocPY2z+n/nY/3SFZPQkoS98k3jpije0Gm75yAbe/MUkkxfXeYfq/32T5LkfMfmGvpgREVkP3VGVvwjdTRF5f1MMEBERETt6mZKIiIiIiIhUFSWqIiIiIiIiUlWUqIqIiIiIiEhVUaIqIiIiIiIiVUWJqoiIiIiIiFQVJaoiIiIiIiJSVT5QX1//x9IPRURERERERN5t+T9fp7+jKn8R+huKIu9vigEiIiJiR4/+ioiIiIiISFVRoioiIiIiIiJVRYmqiIiIiIiIVBUlqiIiIiIiIlJVlKiKiIiIiIhIVVGiKiIiIiIiIlVFiaqIiIiIiIhUFSWqIiIi8h5i0rjfh7eu9HMREbmRKFGVqtb2xDRzr8/l/rvEK7FxwgGzdLXK9E4wd3GYttLPr5lJ28kJXrmUrd+l2Cg9DxqlK63PIxPMpeeYeKR0wXL+wVdIp19hYH/pkuvFoK13lKlf5tr28ymGu/38ia27buzb38bwxTkmeks/X1vPmTmmn7h+MwSArW2Ez7zCpdwcnn42TNvW0pVW13NmjrkzPYCfgZ+nSf98AH/pSu9lgWGml47/OS5dnGL8ZLAoAanOfvF2j3PpcppL54YZOHOJuWhn6Srvuj/L3K4GK2KmQfD0KIOPhRl+so/G5Wuv34ryr7PAMNOvT9BT+vm7rouJuTRzZ7pKF6xPnRff/kau8SwtIrKMElWpajUbnThIEXs+SvT5GDM3ufEfH2X0odI1K1BTg+NmBzWln1+j4NOj9OytZf6/n+b0M1HiV03aHh2mb2fpmuvw5AiDpwYZebJ0wXJjTw0y8v1BRk6VLrkeDIKnJ+j5YgOO5AtEn48SX3DifegEw/1/8mXfdWHf/tw4X8NAOzY6cG68hg3Laepj6kc9+P/aIv58lOhPkvApPz0/GCVYwd0ex0YHjo0OYIyRJ0cYeXKEsdKV3ss2OHBuhNRLUaLPR4mlwL23i9Fn8/1Xnf3iud1B7Bu76f2pA4M4g9++hm9NrrPrPrerRUnM9IQ68f1VjN57DjAybxI87ivdYn0qjMnXbEN2XByln7/rhhgZGGNwZKh0wfo0tdN38th1/EJYRN7PlKhK9bs6T+xQiNChAPs+3U/McmI2BbPL6vx0Do4zdW6KidN9JXeqTNoeG2Xi3BQTI10rv1nf2kbf6Qmmzk0xPtiJvyhxMAN9jJ6ZYurcBKO9bavcSQzS+Ckn1ksRdh/soOPhEK33RIjOgvOu3Cq2dTPwHxlg/NwUU2dG6cvfJfaYNJgNmJ7cak3thHN1XFbGFpMGj7n0rfXa9c0qrDfOwJEyd0gf6CG43Unq1AG23R8gdChE62f30HthEfd9h2nPrVa2rI4Bpp7toy0QZjzX9/66wliMn2zL1dtP37NTjD9WuBfWPjjF1GB2D+2DU4w/1kJbb2EMl8aopP3G3k4Gns3WJfzgUnE5jbSfzJaxrK8pngMTDD+yYoaUb2PR3Jo6U+5OukHXkWbcizG6/8sOWg+FCB3cw7aDY6Ru9hI83rLUBwMdjbTn5kqhf5YztzTQsCW7xLZvsJ/bN55F5s+HCB0KEWjewR0Hxkht8hL8P7LzprhfbMel3PHYMcDUuYGlec3+PsbPjdOXu1tf9tgqKm/q2QHam/ILoP/bI1iNfRz421oy/54gkSwsK1uPZfN4ivHB9pUxC66tjUXaTubmWfG8yPVBT8dAUdvLxKhVrHqc3N3F8LkJBkK5+tV1MnxuguGvewp9HGovHLfLyi+371zM6O+i5/RENlaUxMz4j18g9u+1tAwdw0OC6A+j2QX7+xg/N0B70zr3WWlMtpsryxTt59kwbTeVLK5gDAuxM1gmbhi0PTKc3ceK2FWmnXgw7zJpWGpoufVsYtb+Psa/aOLEYNe5KQY6cpvYxKPK+kxE3q+UqMoNrIWBsTDt252kEjNkjGZ6fjRBV+4kGHx6lJ7PmzjfnmHhlmZ6mlyFTeu6mPhRD81GhplECuf2dsJjA7QAPDTK6PFm6hdnSCSh/vM9jEa8hW0BiJJ8A5yeNoa/3pK7QOgncM8OAn0U1c3FfDJft6mlu60tg+OEO7y43p5hZrGe5uPjTHQbsMnAvdmNsQnY2cfUv3Tiy9WxZksLPf+We8TRqMe9uT57Uq+ovmB0TzDe3YyxOEPiTSfer4YZH2wpXQ1voxvX1QTRQ5NFn6aIPBoi1HmCyXxZx5upJ7VU1sTTuS8PjHrcW3wc/ns31ptg/F2QE//XKJ2eDAsZJ+b+HgYiXqAWY7Mbd13t0l6Mejfu+uylilHvxryvk8NeWHjbgfGZICf6c+lEcft39jHc386uukVSyUU8/xDE3JAv0UvfuUE6P2eQSSZIOUxajg/nHhkOMvqDHlq2OJlPLuDa14Pvg/nt7Psr+PQoPfvrySQTzFBP2zdHCa+4k95CQ52DhZdGiMwWfXw2xNjLGVxbfPhzfeD9Ug8HPmyRWtY/y1XcN3Zz+73gbIjoa+AyfXhL+qX8uJQcjx8rihXFcwmWH4Nljy0vfUMncrEnwbxrF52R8Wyym+9/N6Ty/R8dJXt02MSs3Dz2OlMkEvO4GjsZfHYpfV5ScRtLYg5AzZ1BDnsWmXlzEaOxnRNDfXjJ94GPtq804Myt2zI4TvirXpxvJphZNGjuzsWoEmWPk5eGSFypx/f3PbQAwcfaaLzNIvaDeK6PPTT/Q5D6KzPMb8g+KTN+JFt++X1njxfPA0H8Ru7ucPF42fXvJgP3Zi/B4wcwrqRY3GTiPz6wdNz+yTG57FxZzvvYMCc6dmFkUsxc9XD4782ip3xs6r9Mrh/2dxL8mMXM2+De28Pos50YQPDpCXq+7Mn2n2Wwq+MEA7lHl8u2syQerzUGq8ashSSJ2QUyWKQSCZJvrhGPKuwzEXn/UqIq1W9DLd6TYcInBxh9sR2v0yJxNgLdbfg+mGTkyztoPRRgT0OE+FWTXV8zgC78250sPB9iW3OA1s/uIfpG4XLA392MuRijt2EPgUOt7PhylNRtXvwPAXfW4rwyw+lHAoQO7qb1QIju76eWVQlSHD14lLFZJ41f7WMinebSzycK39B3t+G7bYHooW3sOxhgT8MJ4lfd+L4aBLpoa3It1S1w/x4iZ1PwoZJf2aXG6H20gwP5Ov44CbfVZy8si1VUXz89e00WX+rN3iVt2UHgxylc2/25C+gCc5MTrlgslHzOy5OMnZokkSuLlwfZ89nWbFnPpXDubKEvf0G10eLiw7tpbdlB/0sWDhL039OaHYdZqDVWtGJVjncuEvLuo7V5G/0XLBxu74pHyvyBXbivJhi8fzetB/ex7eGLZDbml6YY++djdBzcxp6DIVrviZLERf12oNuPd1N+jFrZfX+U1FKCa99f7g87ybx2mqMHQwQ+20rroW5GSrscF86NYP1u5UOp1uIiOBzkU/Sa2TE++dlC/xh3rv2Ly3J9Yzu33yMWLAtudq6481x2XEqPR3+EyVkw7ispoFTZY8vEuM3BwoUTHD0UYl9LK4H2E0zW5fo/Px8PtbLjy9k7wC39hn3M2mzgciwQ+/ZRQof2sa8lQOjxyRV3mCpu47KYk+XIXOTwp/cRaNnNnoEEbN5FcOl33gtEg59kxz176DiVjVHJ0QA7WkIE7t9G5GUwG9tL6mN3nKTo/d8HSTgbaR8cpm17DfGBjmVf2sw8tZsdLQH2eQOMzTrxfK4dIxcf7fadeTnC7oYd7DjQXyiMXB+U618Aakie+iS7W3LHOwbmfVyfmFx2rhTzE2xyL8XOQPM2Dsczhcd+16x/ieQIu+9pJdCci8F3+2ivM4gNdNBxKN9/ES5aDoyt6zj3VDAGq8as8xGOnp9nEYuZQyF6n1ojHlXUZyLyfqZEVarfRjfee334Ppd9i2O8bx/7vgf+ulrY4KZ5MP+ylSCejeC63Qf766ndYDHzUv6uYIqhmfmlIs0PuWBjA535F7UM7sLASe2dwDMvEL9qEjyTZu7SK4S/aOJ4c5WT5+wQoXvu4NZbd9P6jSHilrH0+9m2zQZYM8TP5lfuZ+YtcNa6IWBilNSt9ws72H2w5KJr1sL1qRZ6fjnH3Fya9APu5cvzKqqviWsTOD2dSy+mGW4ywFlLaanzVzKwoWbpzspKXgwXpH7VTX4vsV+ksHBhLD3+mME6X9iiIMXiH8DhLLq7bSdjESv+902s+I2x+SEXvJWgO38BfDbOjJVfmsJyNdBy/BJzr8+Rvtyy1F5/Xe3yMZodIrmUndv319hknMVPBJm4PMeln4c5sMVBqviuKQAWi1fBsXHtpHxxMV/hbP+wlDDbKNM3tnP7PcJZUwOZDIUjOqvcuKw4Hmd7ab1nN4HvlBRQquyxFWHyQgrnvWGmL89x6Yed+FwLJGbBa5TMx/MJUlY2LtnGrO9NEnvDiS8yTXruEqNHfLjmE0vHWF7FbSyOOTnWb+IsRZ1HE6RwYdy9tBQrv+3+emo3gHvv8NL8D251wAcNlv/i0/44Ybab3h+lMO5txHh1hNC3iltjYaWWIgiJN61s+RXse/H3Cyv6hfwxXa5/AVhk6VCbXSRD7li7HjG57Fwplu2v4tg5GZ8hX6W167+cZaVWicEprI0efF8LZ1/gdrkLbz6YV9rOSsagwphlG48q6jMReT9ToirVz4rR+zcf5aP3REhknJg7fRhA3FqEK3FGOg9zOPdf6FCIjr4onJrHwonzQ4ViPM5CirNgWfDWCxwt2fbYEHC+mz133MruLxwlcjaFc3uQE98tfRNiC50nw3Q+AJBg8jtHab0n9/vZz7QxuWDBRieFdMyg5iZg0YKfLKyo22qM/jA9ew1Szxwj1LKNW58q/qFbkYrqu4B1BVKTR5fae/jhEKFDxyh9dcbYL1JkNpp4c4/h5XlPTjH3y3E6STJvgXNT0bfwNwFkyPyuaIN1y/XROmXvrtUWvfU1eycTgLo+wsf9GKkxjrW3su0jI+R7cex3pWPkKWy3Rn/FuvZwx0d209oVYTKVfdFU/tG6gkmSb4DxqbaS3xoGadzihDcSRJZ9fn3Yzu33grpOvJsdZGYvrniBUrlxWXk82iiegzbHVuTANj766X0EvjVC/Iobf+6R8uTbpfMxK3Nl3j5mESHQ8FG2NQfo/X6czGZ/4bHSIpW3sSjm5DiLvyDaX4sTi/nfFD5aErdYJEP8+4V6Hj4cIvRwP7lffObYHyfQSLPHgEwG3B7aSh9hLT3eMxnmK973Svb9a+N6xGSbuVKQ7a9lsbPWufSl4DXXn+IYHKSvN4h3Q4xI5wH2fKSbWH4KVNjOysd/bbbxqKI+E5H3MyWqcuOY7ab3bArHXS30PACp0TipjSbev4P4qTHiV3dx+J+O0XZXCogx8xaY9w5kL462tnPg7sJFWuRCksztXvy3Jxk7NUby9haO/dNhfB+G9qdfYe7iMJ7kEL2HTnDxd+BwlN5fdOG910/wawMEtxuAScvJFhqcGVL/z1C2bhtMfCezL7EwO/porMuQuDAEsyPEZ5fXbfxSmkunlz+E69nkhMw8iX8dInrBTc+W1R//qqy+EWKvZTD+1o8xM8bYqSTGA8fo+Uo26V+m7wSnfw2er4wy8FUf3q1eWo6PEv6cm8VfRRnJleW6+wDtW7Mv/wi3NOBcSBBd9S285SRY+B0472ykc7uXxq/30Vh6IVuByMspMi4PwUcaAQP/SV/hN6qeWpxkmH85wtBzMdzHzUJ7L8ywsMHEN5h9gYfZcQDP0hSx6692Rl+ZY/oJD8mBXkKPX8TCQc3N+W3zYvQ+GcO63Uc42kNbk4nZ1E74XDte5wKT/9pdusF1YTe3b1Q1tX78+/34v9rH+FgQz4Ykp/tK7gLZjMvS8bg01uNcSl/Kvj08ZZHBoOFkC97tLdm5nC+x3LF1Vx9Tr19i4ksW0e8c5ehPUmRw4Lw51/8uDwc6zNx8bKHBuUDi+THbmOXpn2Lu0gTB30fp/8ejvPDbDDgKSUzFbVwt5uRtaWb4QQNopOtLHlyZFIkfF5efMztCfNaBuXMXxMcYi8Our/Rw7POekjuZdscJeB87hq8uRfTgUSYtkwP/Z/Y3lFlOGlrC+OvA2BumxeNk4dUoYxXveyW7/rV1HWJy2bmyTITEbzO47g7S1ZSLnU2FB9jXW3+np4XwXqMkBud+cjBzmv5Tk1gPeqnPV6PCdlY+/uU4MR40Mers41FlfSYi72dKVOWGMnlwiJjlovFrYRrPhzg6MINrb5jpdJrpiB/Xb6NEvgMwRuCbY6RcPnpeTJOOHmDx1aJTbF+I3rMWDUcmSKfTTBxpYPGlEfqfh/6BKDM3N2a3uzyM7+Yk0aHSi+J+Qo+Okdrko+v0NOn0BH17DebP9hJ4FDgf4uhAAmeubhNHGrDO9hLoyibRoa4hEjfn6namE/OdSfofXn5/bWzgdPaxqKk55i4P0njL4rLleZXVF/rbe5m80kDnmTTp9ASdnkXiP1ztG/JJOv7rMcZmnfi+PsDomVH6Ag0sxiOEmiOk8mW9Y2bLejGM/4MzDD3cykhpUbayidzCzV7aT48y/AAkVjw+W4FHu4lcyGCGhkmnpzlhpkjk7yCcinD6Z4uYoWnm5tIMNtWy1IunAvQ+k6L23p7sGH1xcdn+y/dXP5HnZnB+pofpy2nST/hw/jrK4OOFbfNS4X2EwjGszW30PDHBxBOd+G+3mPxWK61Pla59ndjM7RuTE08oTPhkmPCRZtxXYkTaW+lY8Wi5zbjkj8em3FgfMbHO9tPxvdwXM6+Be38fo6d7MOcLj2KWPbZ+1s/IBYv6wATpy2mmQybWSyNEBgr9bx6ZIJ2eJrzXxczA4ex428Ss+LdHiL1TT9uZNOnL0wQ/YRF/KlLyxEMFbVw15mRZL89gPDpNOj1M8BMZ4gO9hUeUl8nGqJkP+gm/mDvGb0sRHVhHXKnromu/m8XzQwTOjnD0uzEW72qjL/8WYCxm3vZw4sVsPxgLk0T+cWRd+17Bpn/t/ekxuexcKdH9jQixjEnwiTTpF09gvplYmm/rrb+VtPD0T2f76PZ5Jr97lBG6GTubwnnvMOm5NNNfd8OV/BaVtfNPGoPvTRJfcOH95gTj3X7beFRpn4nI+9cH6uvr/2hZhUeDRN4NTqeT6zfvDLz3mfBqlNgqF11mUyOcnSRRugAAk8b9LhZOrVxubPdhkiB6wf47ZGO7D88mi/hzsVW+bTbw3ufGem5l+eS2df8+yuTLpUsKzCY/rvkx23VYR33Z2oi/doGxs6vVqJRJ431Okqu2LVuW76+Sa+/z3VDnpfFDKSZXq4ttm00am2By1WV229rPu1KVjPX1VX5uV4PrGwOK2Y2L/fFYTvljy66P7Y4dmzqWnW/FbLZfs41rLV+ufNtLVFTvnIdGudRtkui6g30/LR9DKt73Cnb9Y6+S49QuJldaZ2N7I8abk2Xqt1b9g4xe6sJ8tZs7mmOrz7M6L74tkCj9PKeSdrKO9qyt/LFy/fYhIu81SlTlL+LPd5EqIjcCxYD3seJE9XulC2VtxYlq6d1QEZH3Dj36KyIiIu+e1yYZOzXG5GulC6QyCSafGWNssvTepIjIe4vuqMpfhO6miLy/KQaIiIiIHd1RFRERERERkaqiRFVERERERESqihJVERERERERqSpKVEVERERERKSqKFEVERERERGRqqJEVURERERERKrKB+rr6/9Y+qGIiIiIiIjIu+k///M/+Y//+A8APlBbW6tEVURERERERKqGHv0VERERERGRqqJEVURERERERKqKElURERERERGpKkpURUREREREpKooURUREREREZGqokRVREREREREqooSVREREREREakqSlRFRERERESkqihRFRERERERkaqiRFVERERERESqihJVERERERERqSpKVEVERERERKSqKFEVERERERGRqqJEVURERERERKqKElURERERERGpKkpURUREREREpKooURUREREREZGqokRVREREREREqooSVREREREREakqSlRFRERERESkqihRFRERERERkaqiRFVERERERESqihJVERERERERqSpKVEVERERERKSqKFEVERERERGRqqJEVURERERERKqKElURERERERGpKkpURUREREREpKooURUREREREZGqokRVREREREREqooSVREREREREakqSlRFRERERESkqihRFRERERERkaqiRFVERERERESqihJVERERERERqSpKVEVERERERKSqKFEVERERERGRqqJEVURERERERKqKElURERERERGpKkpURUREREREpKooURUREREREZGqokRVREREREREqooSVREREREREakqSlRFRERERESkqihRFRERERERkaqiRFVERERERESqihJVERERERERqSpKVEVERERERKSqKFEVERERERGRqqJEVURERERERKqKElURERERERGpKkpURUREREREpKooURUREREREZGq8oG7/5e9fyz9UEREREREROTd9ttf/t8AfKC2tlaJqoiIiIiIiFQNPforIiIiIiIiVUWJqoiIiIiIiFQVJaoiIiIiIiJSVZSoioiIiIiISFX5/wHbXleWHXI55gAAAABJRU5ErkJggg==;" parent="1" vertex="1">
          <mxGeometry x="10" y="120" width="341.46" height="170" as="geometry" />
        </mxCell>
        <mxCell id="bWpkbeTwa-cKXVXdCSfd-2" value="&lt;b&gt;Dados Estruturados e NÃ£o Estruturados (Upload)&lt;/b&gt;" style="text;html=1;align=center;verticalAlign=middle;resizable=0;points=[];autosize=1;strokeColor=none;fillColor=none;" parent="1" vertex="1">
          <mxGeometry x="30.729999999999997" y="90" width="300" height="30" as="geometry" />
        </mxCell>
        <mxCell id="bWpkbeTwa-cKXVXdCSfd-4" value="" style="endArrow=classic;html=1;rounded=0;exitX=1;exitY=0.5;exitDx=0;exitDy=0;" parent="1" source="bWpkbeTwa-cKXVXdCSfd-1" edge="1">
          <mxGeometry width="50" height="50" relative="1" as="geometry">
            <mxPoint x="430" y="280" as="sourcePoint" />
            <mxPoint x="430" y="205" as="targetPoint" />
          </mxGeometry>
        </mxCell>
        <mxCell id="bWpkbeTwa-cKXVXdCSfd-26" style="edgeStyle=orthogonalEdgeStyle;rounded=0;orthogonalLoop=1;jettySize=auto;html=1;entryX=0.5;entryY=0;entryDx=0;entryDy=0;" parent="1" source="bWpkbeTwa-cKXVXdCSfd-5" target="bWpkbeTwa-cKXVXdCSfd-23" edge="1">
          <mxGeometry relative="1" as="geometry">
            <Array as="points">
              <mxPoint x="622" y="205" />
            </Array>
          </mxGeometry>
        </mxCell>
        <mxCell id="bWpkbeTwa-cKXVXdCSfd-5" value="&lt;b&gt;Vector&lt;/b&gt;&lt;div&gt;&lt;b&gt;Database&lt;/b&gt;&lt;/div&gt;" style="rounded=0;whiteSpace=wrap;html=1;" parent="1" vertex="1">
          <mxGeometry x="430" y="175" width="120" height="60" as="geometry" />
        </mxCell>
        <mxCell id="bWpkbeTwa-cKXVXdCSfd-16" style="edgeStyle=orthogonalEdgeStyle;rounded=0;orthogonalLoop=1;jettySize=auto;html=1;entryX=0.5;entryY=1;entryDx=0;entryDy=0;" parent="1" source="bWpkbeTwa-cKXVXdCSfd-6" target="bWpkbeTwa-cKXVXdCSfd-5" edge="1">
          <mxGeometry relative="1" as="geometry" />
        </mxCell>
        <mxCell id="bWpkbeTwa-cKXVXdCSfd-6" value="Prompt" style="swimlane;whiteSpace=wrap;html=1;" parent="1" vertex="1">
          <mxGeometry x="151.46" y="310" width="200" height="220" as="geometry" />
        </mxCell>
        <mxCell id="bWpkbeTwa-cKXVXdCSfd-7" value="Identificar padrÃµes em exames cardÃ­acos" style="rounded=1;whiteSpace=wrap;html=1;" parent="bWpkbeTwa-cKXVXdCSfd-6" vertex="1">
          <mxGeometry x="7.14" y="30" width="185.73" height="30" as="geometry" />
        </mxCell>
        <mxCell id="bWpkbeTwa-cKXVXdCSfd-9" value="Detectar anomalias em imagens mÃ©dicas" style="rounded=1;whiteSpace=wrap;html=1;" parent="bWpkbeTwa-cKXVXdCSfd-6" vertex="1">
          <mxGeometry x="8.57" y="70" width="182.86" height="30" as="geometry" />
        </mxCell>
        <mxCell id="bWpkbeTwa-cKXVXdCSfd-10" value="Correlacionar sintomas relatados pelo paciente com resultados de exames" style="rounded=1;whiteSpace=wrap;html=1;" parent="bWpkbeTwa-cKXVXdCSfd-6" vertex="1">
          <mxGeometry x="10.01" y="110" width="182.86" height="50" as="geometry" />
        </mxCell>
        <mxCell id="bWpkbeTwa-cKXVXdCSfd-28" value="Avaliar riscos baseados em fatores demogrÃ¡ficos e clÃ­nicos" style="rounded=1;whiteSpace=wrap;html=1;" parent="bWpkbeTwa-cKXVXdCSfd-6" vertex="1">
          <mxGeometry x="8.57" y="170" width="182.86" height="40" as="geometry" />
        </mxCell>
        <mxCell id="bWpkbeTwa-cKXVXdCSfd-13" value="" style="endArrow=classic;html=1;rounded=0;exitX=0.437;exitY=-0.074;exitDx=0;exitDy=0;exitPerimeter=0;entryX=0;entryY=0.5;entryDx=0;entryDy=0;" parent="1" source="bWpkbeTwa-cKXVXdCSfd-2" edge="1">
          <mxGeometry width="50" height="50" relative="1" as="geometry">
            <mxPoint x="350" y="130" as="sourcePoint" />
            <mxPoint x="430" y="60" as="targetPoint" />
            <Array as="points">
              <mxPoint x="162" y="60" />
            </Array>
          </mxGeometry>
        </mxCell>
        <mxCell id="bWpkbeTwa-cKXVXdCSfd-25" value="" style="group" parent="1" vertex="1" connectable="0">
          <mxGeometry x="480.00000000000006" y="560" width="247.42999999999995" height="210" as="geometry" />
        </mxCell>
        <mxCell id="bWpkbeTwa-cKXVXdCSfd-23" value="" style="whiteSpace=wrap;html=1;aspect=fixed;" parent="bWpkbeTwa-cKXVXdCSfd-25" vertex="1">
          <mxGeometry x="37.42999999999995" width="210" height="210" as="geometry" />
        </mxCell>
        <mxCell id="bWpkbeTwa-cKXVXdCSfd-17" value="" style="shape=image;verticalLabelPosition=bottom;labelBackgroundColor=default;verticalAlign=top;aspect=fixed;imageAspect=0;image=https://www.battery.com/wp-content/uploads/2023/05/Weaviate_Web_Color-2.png;" parent="bWpkbeTwa-cKXVXdCSfd-25" vertex="1">
          <mxGeometry y="10" width="207.78" height="110" as="geometry" />
        </mxCell>
        <mxCell id="bWpkbeTwa-cKXVXdCSfd-20" value="" style="shape=image;verticalLabelPosition=bottom;labelBackgroundColor=default;verticalAlign=top;aspect=fixed;imageAspect=0;image=https://blust.ai/images/icons/qwen.png;" parent="bWpkbeTwa-cKXVXdCSfd-25" vertex="1">
          <mxGeometry x="63.94999999999993" y="110" width="79.89" height="79.89" as="geometry" />
        </mxCell>
        <mxCell id="bWpkbeTwa-cKXVXdCSfd-22" value="" style="shape=image;verticalLabelPosition=bottom;labelBackgroundColor=default;verticalAlign=top;aspect=fixed;imageAspect=0;image=https://static1.xdaimages.com/wordpress/wp-content/uploads/2024/02/google-gemini-ai-icon.png;" parent="bWpkbeTwa-cKXVXdCSfd-25" vertex="1">
          <mxGeometry x="153.37" y="99.88999999999999" width="78.13" height="90" as="geometry" />
        </mxCell>
        <mxCell id="bWpkbeTwa-cKXVXdCSfd-18" value="" style="shape=image;verticalLabelPosition=bottom;labelBackgroundColor=default;verticalAlign=top;aspect=fixed;imageAspect=0;image=https://latestlogo.com/wp-content/uploads/2024/01/openai-icon.png;" parent="bWpkbeTwa-cKXVXdCSfd-25" vertex="1">
          <mxGeometry x="157.42999999999995" y="25" width="70" height="70" as="geometry" />
        </mxCell>
        <mxCell id="bWpkbeTwa-cKXVXdCSfd-32" style="edgeStyle=orthogonalEdgeStyle;rounded=0;orthogonalLoop=1;jettySize=auto;html=1;" parent="1" edge="1">
          <mxGeometry relative="1" as="geometry">
            <mxPoint x="620" y="860" as="targetPoint" />
            <mxPoint x="620" y="800" as="sourcePoint" />
          </mxGeometry>
        </mxCell>
        <mxCell id="bWpkbeTwa-cKXVXdCSfd-27" value="&lt;b&gt;&lt;font style=&quot;font-size: 13px;&quot;&gt;Multimodal LLMs APIs&lt;/font&gt;&lt;/b&gt;" style="text;html=1;align=center;verticalAlign=middle;resizable=0;points=[];autosize=1;strokeColor=none;fillColor=none;" parent="1" vertex="1">
          <mxGeometry x="540" y="770" width="160" height="30" as="geometry" />
        </mxCell>
        <mxCell id="bWpkbeTwa-cKXVXdCSfd-30" style="edgeStyle=orthogonalEdgeStyle;rounded=0;orthogonalLoop=1;jettySize=auto;html=1;" parent="1" source="bWpkbeTwa-cKXVXdCSfd-29" target="bWpkbeTwa-cKXVXdCSfd-5" edge="1">
          <mxGeometry relative="1" as="geometry" />
        </mxCell>
        <mxCell id="bWpkbeTwa-cKXVXdCSfd-29" value="&lt;b&gt;PrÃ©-processamento dos Dados&lt;/b&gt;" style="rounded=0;whiteSpace=wrap;html=1;" parent="1" vertex="1">
          <mxGeometry x="430" y="30" width="120" height="60" as="geometry" />
        </mxCell>
        <mxCell id="bWpkbeTwa-cKXVXdCSfd-34" style="edgeStyle=orthogonalEdgeStyle;rounded=0;orthogonalLoop=1;jettySize=auto;html=1;" parent="1" source="bWpkbeTwa-cKXVXdCSfd-31" edge="1">
          <mxGeometry relative="1" as="geometry">
            <mxPoint x="390" y="890" as="targetPoint" />
          </mxGeometry>
        </mxCell>
        <mxCell id="bWpkbeTwa-cKXVXdCSfd-31" value="&lt;b&gt;GeraÃ§Ã£o de Insights com Diferentes Modelos&lt;/b&gt;" style="rounded=0;whiteSpace=wrap;html=1;" parent="1" vertex="1">
          <mxGeometry x="560" y="860" width="120" height="60" as="geometry" />
        </mxCell>
        <mxCell id="bWpkbeTwa-cKXVXdCSfd-36" style="edgeStyle=orthogonalEdgeStyle;rounded=0;orthogonalLoop=1;jettySize=auto;html=1;entryX=1;entryY=0.5;entryDx=0;entryDy=0;exitX=1.007;exitY=0.556;exitDx=0;exitDy=0;exitPerimeter=0;" parent="1" source="bWpkbeTwa-cKXVXdCSfd-33" target="bWpkbeTwa-cKXVXdCSfd-31" edge="1">
          <mxGeometry relative="1" as="geometry">
            <Array as="points">
              <mxPoint x="710" y="983" />
              <mxPoint x="710" y="890" />
            </Array>
          </mxGeometry>
        </mxCell>
        <mxCell id="bWpkbeTwa-cKXVXdCSfd-33" value="&lt;b&gt;Feedback&lt;/b&gt;" style="rounded=0;whiteSpace=wrap;html=1;" parent="1" vertex="1">
          <mxGeometry x="560" y="950" width="120" height="60" as="geometry" />
        </mxCell>
        <mxCell id="bWpkbeTwa-cKXVXdCSfd-35" value="" style="endArrow=classic;html=1;rounded=0;entryX=0;entryY=0.5;entryDx=0;entryDy=0;" parent="1" target="bWpkbeTwa-cKXVXdCSfd-33" edge="1">
          <mxGeometry width="50" height="50" relative="1" as="geometry">
            <mxPoint x="480" y="890" as="sourcePoint" />
            <mxPoint x="550" y="720" as="targetPoint" />
            <Array as="points">
              <mxPoint x="480" y="980" />
            </Array>
          </mxGeometry>
        </mxCell>
        <mxCell id="bWpkbeTwa-cKXVXdCSfd-41" style="edgeStyle=orthogonalEdgeStyle;rounded=0;orthogonalLoop=1;jettySize=auto;html=1;entryX=1;entryY=0.5;entryDx=0;entryDy=0;" parent="1" source="bWpkbeTwa-cKXVXdCSfd-37" target="bWpkbeTwa-cKXVXdCSfd-23" edge="1">
          <mxGeometry relative="1" as="geometry">
            <Array as="points">
              <mxPoint x="330" y="1070" />
              <mxPoint x="760" y="1070" />
              <mxPoint x="760" y="665" />
            </Array>
          </mxGeometry>
        </mxCell>
        <mxCell id="bWpkbeTwa-cKXVXdCSfd-44" style="edgeStyle=orthogonalEdgeStyle;rounded=0;orthogonalLoop=1;jettySize=auto;html=1;entryX=0.5;entryY=1;entryDx=0;entryDy=0;" parent="1" source="bWpkbeTwa-cKXVXdCSfd-37" target="bWpkbeTwa-cKXVXdCSfd-40" edge="1">
          <mxGeometry relative="1" as="geometry">
            <Array as="points">
              <mxPoint x="330" y="830" />
              <mxPoint x="400" y="830" />
            </Array>
          </mxGeometry>
        </mxCell>
        <mxCell id="bWpkbeTwa-cKXVXdCSfd-37" value="&lt;b&gt;Insights Gerados&lt;/b&gt;" style="rounded=0;whiteSpace=wrap;html=1;" parent="1" vertex="1">
          <mxGeometry x="270" y="860" width="120" height="60" as="geometry" />
        </mxCell>
        <mxCell id="bWpkbeTwa-cKXVXdCSfd-38" value="&lt;b&gt;Resultados Individuais das LLMs&lt;/b&gt;" style="ellipse;whiteSpace=wrap;html=1;" parent="1" vertex="1">
          <mxGeometry x="210.73" y="730" width="120" height="80" as="geometry" />
        </mxCell>
        <mxCell id="bWpkbeTwa-cKXVXdCSfd-39" value="&lt;b&gt;Resultados Estruturados&lt;/b&gt;" style="ellipse;whiteSpace=wrap;html=1;" parent="1" vertex="1">
          <mxGeometry x="120.72999999999999" y="990" width="120" height="80" as="geometry" />
        </mxCell>
        <mxCell id="bWpkbeTwa-cKXVXdCSfd-40" value="&lt;b&gt;Resultado Geral do Feedback&lt;/b&gt;" style="ellipse;whiteSpace=wrap;html=1;" parent="1" vertex="1">
          <mxGeometry x="340" y="730" width="120" height="80" as="geometry" />
        </mxCell>
        <mxCell id="bWpkbeTwa-cKXVXdCSfd-46" style="edgeStyle=orthogonalEdgeStyle;rounded=0;orthogonalLoop=1;jettySize=auto;html=1;entryX=0.5;entryY=0;entryDx=0;entryDy=0;" parent="1" source="bWpkbeTwa-cKXVXdCSfd-42" target="bWpkbeTwa-cKXVXdCSfd-39" edge="1">
          <mxGeometry relative="1" as="geometry" />
        </mxCell>
        <mxCell id="bWpkbeTwa-cKXVXdCSfd-42" value="&lt;b&gt;ExtraÃ§Ã£o de Pontos Chave&lt;/b&gt;" style="rounded=0;whiteSpace=wrap;html=1;" parent="1" vertex="1">
          <mxGeometry x="120.72999999999999" y="860" width="120" height="60" as="geometry" />
        </mxCell>
        <mxCell id="bWpkbeTwa-cKXVXdCSfd-43" value="" style="endArrow=classic;html=1;rounded=0;exitX=0;exitY=0.5;exitDx=0;exitDy=0;entryX=0.5;entryY=0;entryDx=0;entryDy=0;" parent="1" source="bWpkbeTwa-cKXVXdCSfd-23" target="bWpkbeTwa-cKXVXdCSfd-42" edge="1">
          <mxGeometry width="50" height="50" relative="1" as="geometry">
            <mxPoint x="430" y="690" as="sourcePoint" />
            <mxPoint x="410" y="760" as="targetPoint" />
            <Array as="points">
              <mxPoint x="181" y="660" />
            </Array>
          </mxGeometry>
        </mxCell>
        <mxCell id="bWpkbeTwa-cKXVXdCSfd-45" value="" style="endArrow=none;startArrow=classic;html=1;rounded=0;entryX=0.5;entryY=0;entryDx=0;entryDy=0;exitX=0.5;exitY=1;exitDx=0;exitDy=0;startFill=1;endFill=1;" parent="1" source="bWpkbeTwa-cKXVXdCSfd-38" target="bWpkbeTwa-cKXVXdCSfd-37" edge="1">
          <mxGeometry width="50" height="50" relative="1" as="geometry">
            <mxPoint x="550" y="950" as="sourcePoint" />
            <mxPoint x="600" y="900" as="targetPoint" />
            <Array as="points">
              <mxPoint x="270" y="830" />
              <mxPoint x="300" y="830" />
              <mxPoint x="330" y="830" />
            </Array>
          </mxGeometry>
        </mxCell>
        <mxCell id="aC3K0sm2i3yojUhIV8w9-1" value="&lt;b&gt;1&lt;/b&gt;" style="ellipse;whiteSpace=wrap;html=1;fillColor=#f8cecc;strokeColor=#b85450;" vertex="1" parent="1">
          <mxGeometry x="120.72999999999999" y="60" width="30" height="30" as="geometry" />
        </mxCell>
        <mxCell id="aC3K0sm2i3yojUhIV8w9-2" value="&lt;b&gt;2&lt;/b&gt;" style="ellipse;whiteSpace=wrap;html=1;fillColor=#f8cecc;strokeColor=#b85450;" vertex="1" parent="1">
          <mxGeometry x="109.99999999999999" y="310" width="30" height="30" as="geometry" />
        </mxCell>
        <mxCell id="aC3K0sm2i3yojUhIV8w9-3" value="&lt;b&gt;3&lt;/b&gt;" style="ellipse;whiteSpace=wrap;html=1;fillColor=#f8cecc;strokeColor=#b85450;" vertex="1" parent="1">
          <mxGeometry x="570" y="45" width="30" height="30" as="geometry" />
        </mxCell>
        <mxCell id="aC3K0sm2i3yojUhIV8w9-4" value="&lt;b&gt;4&lt;/b&gt;" style="ellipse;whiteSpace=wrap;html=1;fillColor=#f8cecc;strokeColor=#b85450;" vertex="1" parent="1">
          <mxGeometry x="570" y="220" width="30" height="30" as="geometry" />
        </mxCell>
        <mxCell id="aC3K0sm2i3yojUhIV8w9-5" value="&lt;b&gt;5&lt;/b&gt;" style="ellipse;whiteSpace=wrap;html=1;fillColor=#f8cecc;strokeColor=#b85450;" vertex="1" parent="1">
          <mxGeometry x="697.43" y="520" width="30" height="30" as="geometry" />
        </mxCell>
        <mxCell id="aC3K0sm2i3yojUhIV8w9-6" value="&lt;b&gt;6&lt;/b&gt;" style="ellipse;whiteSpace=wrap;html=1;fillColor=#f8cecc;strokeColor=#b85450;" vertex="1" parent="1">
          <mxGeometry x="650" y="820" width="30" height="30" as="geometry" />
        </mxCell>
        <mxCell id="aC3K0sm2i3yojUhIV8w9-7" value="&lt;b&gt;7&lt;/b&gt;" style="ellipse;whiteSpace=wrap;html=1;fillColor=#f8cecc;strokeColor=#b85450;" vertex="1" parent="1">
          <mxGeometry x="359.99999999999994" y="930" width="30" height="30" as="geometry" />
        </mxCell>
        <mxCell id="aC3K0sm2i3yojUhIV8w9-8" value="&lt;b&gt;8&lt;/b&gt;" style="ellipse;whiteSpace=wrap;html=1;fillColor=#f8cecc;strokeColor=#b85450;" vertex="1" parent="1">
          <mxGeometry x="210.7299999999999" y="960" width="30" height="30" as="geometry" />
        </mxCell>
      </root>
    </mxGraphModel>
  </diagram>
</mxfile>
